<svg id="Capa_4" data-name="Capa 4" xmlns="http://www.w3.org/2000/svg" viewBox="0 0 386 417"><defs><style>.cls-1{fill:#fff;}.cls-2{fill:#ffa32e;}.cls-3{fill:#393e5b;}.cls-4{fill:#919191;}</style></defs><title>blender logo</title><rect width="386" height="417"/><path class="cls-1" d="M188.42,396.64l107.09-63.35c10.65-6.3,21.76-13,28-23.73,6.89-11.79,6.66-26.27,6.22-39.93l-7-222c1.05-10.75-7.69-20.87-35.05-21.47-46.09-1-146.25-1.75-194,0C61.82,27.28,60.11,37.61,59.89,46.73L55.75,273.82c-.2,11.1-.33,22.58,4,32.8,4.61,10.81,13.73,19,22.87,26.37,31.69,25.63,67.28,48.7,105,64.13Z" transform="translate(-0.14 0.38)"/><path class="cls-1" d="M189.18,397.94l60.34-35.7c18.88-11.17,38.44-21.65,56.7-33.8,6.81-4.53,13.34-9.84,17.78-16.81,4.84-7.6,6.67-16.56,7.21-25.44.63-10.11-.1-20.32-.42-30.43l-1.13-35.69-4.4-138.78c-.36-11.46-1-23-1-34.41a17.41,17.41,0,0,0-3.36-11C313,25.55,297,24.81,285.3,24.57c-61.16-1.29-122.49-1.93-183.65-.21-11.86.33-27.45-.45-37.25,7.57-7.61,6.23-6.05,17-6.21,25.75L55.63,198.12l-1.27,69.72c-.19,10.26-.8,20.77,1.38,30.88A49,49,0,0,0,67.37,321c6.61,7.48,14.71,13.61,22.56,19.72s15.92,12,24.14,17.68a409.66,409.66,0,0,0,54.14,31.73q6.81,3.29,13.76,6.27c2.3,1,4.87,3,7.21,1.58,1.64-1,.14-3.6-1.52-2.59-1.37.83-10.34-4.29-12.3-5.19q-6.88-3.18-13.63-6.65c-8.78-4.5-17.38-9.36-25.8-14.51a486,486,0,0,1-49.46-34.85c-7.13-5.69-14.37-11.53-19.88-18.87-6.45-8.6-8.87-18.52-9.31-29.12-.9-21.28.53-42.85.92-64.14L60.59,90.55l.58-31.87c.11-5.74-.61-12.15.87-17.79,3-11.52,19.3-12.6,28.88-13.14,28-1.59,56.25-1.17,84.3-1.19q45.17,0,90.34.66c13.39.2,28-1,40.94,3,5.31,1.65,11,4.55,13.48,9.8,2.67,5.59,1.4,13.49,1.59,19.44l4.15,130.84,2.07,65.43c.6,18.93,4,41.89-8.84,57.77-5.46,6.75-12.84,11.62-20.19,16.07-9.21,5.59-18.53,11-27.8,16.47l-56.1,33.19-27.2,16.09A1.5,1.5,0,0,0,189.18,397.94Z" transform="translate(-0.14 0.38)"/><path class="cls-2" d="M232.64,305.12c29.69-3.37,41.13-17,48.23-50.32,5.28-24.82-6.83-52.36-28.7-65.24l-1.77-1.79c-20.48-14.69-41-29.4-62.87-41.94-2.87-1.64-5.95-3.3-9.26-3.21s-6.78,2.63-6.64,5.94c.12,2.77,2.53,4.8,4.74,6.47l35.95,27.09c-31.78,5.17-80.64,1.34-111.69,9.86-3.41.93-6.95,2-9.5,4.43s-3.72,6.71-1.64,9.56c2.24,3.06,6.73,2.7,10.52,2.69,16.13,0,49.13,3,65.16,4.05-11.43,11.95-27.69,17.89-43.65,22.19s-32.5,7.46-47,15.37c-3.66,2-7.67,5.43-6.67,9.47.63,2.57,3.22,4.27,5.83,4.68s5.25-.21,7.82-.82l68.45-16.38a62.26,62.26,0,0,0,26,44.08c14.45,10,29.66,19.21,46.7,14.82Z" transform="translate(-0.14 0.38)"/><path class="cls-1" d="M174.76,245.4c7-11,16-21,27.24-27.42s24.09-10.29,36.64-6.86l4,.48c8.66,5.84,15.87,14.07,19.54,23.86s3.53,21.13-1.28,30.4-13.91,15.88-23.59,20c-14.44,6.14-31.68,7.36-45.51,0s-22.7-24.66-17.64-39.51Z" transform="translate(-0.14 0.38)"/><path class="cls-2" d="M177.8,247.18c9.5-14.63,22.61-26.91,39.7-31.84,7.87-2.27,15.22-1.63,23.14-.2,2.23.4,3.86,2.4,6.11,4.47a47.89,47.89,0,0,1,8.4,10c9.39,15.25,7.18,34.38-7.09,45.67-12.87,10.19-32,14.89-47.84,10A33.73,33.73,0,0,1,180.9,270c-3.28-5.71-6.65-16.3-2.56-22.46,2.95-4.44-4.27-8.66-7.15-4.18-4.25,6.63-2.82,17.12-.18,24.07a41.66,41.66,0,0,0,15.92,19.92c17.07,11.27,40.49,8.54,57.71-.84,17.94-9.77,27.94-28.58,22.2-48.87a51.59,51.59,0,0,0-16.52-24.87c-2.62-2.21-5.06-4.42-8.47-5-4.19-.7-8.36-1.63-12.64-1.66-24.54-.2-45.07,18-57.48,37.56C169.29,247.47,175.34,251,177.8,247.18Z" transform="translate(-0.14 0.38)"/><path class="cls-3" d="M231.05,230.67c-12.68-5.5-29.15.48-35.36,12.82-3,6-3.65,13.47-.37,19.32,3,5.42,9,8.72,15,10.15,7.76,1.83,16.3.89,23-3.4s11.3-12.07,10.91-20-2.71-16.44-10.5-18.13Z" transform="translate(-0.14 0.38)"/><path class="cls-3" d="M231.64,228.53a30.81,30.81,0,0,0-30.38,4.79c-8.62,6.91-13.42,19.53-8.2,29.92,5.37,10.66,19.61,14.21,30.56,12.33,11.53-2,21.7-11,22.79-23.07.51-5.72-.6-12.78-3.91-17.59-2.7-3.92-6.48-5.19-10.86-6.38-2.76-.74-3.93,3.53-1.18,4.28,4.08,1.1,7.44,2.29,9.42,6.42a24.51,24.51,0,0,1,1.25,17c-4.31,13.29-19.91,17.88-32.28,14-6-1.89-11.5-5.92-13.06-12.3s.88-13.52,5.21-18.35a26.61,26.61,0,0,1,29.46-6.79C233.11,233.87,234.26,229.58,231.64,228.53Z" transform="translate(-0.14 0.38)"/><path class="cls-4" d="M89.62,63.15c-3.11,17.06-3.33,34.81-2.69,52.1A5,5,0,0,0,90.52,120c7.35,1.58,15.33,3,22.29-.78a15.84,15.84,0,0,0,8.68-14.44C121,92,104.46,82,93.34,89.52,89.73,92,90.94,97.89,95.62,98c5.72.07,15.37-2,16,6.79.64,9.38-13.32,6.89-18.47,5.8l3.58,4.71c-.7-17.09.63-33.88,1.71-50.91.32-5-7.88-6.18-8.79-1.19Z" transform="translate(-0.14 0.38)"/><path class="cls-4" d="M125.16,66.09c-1.93,3.48-1.71,7.19-1.82,11.06-.13,4.5-.2,9-.11,13.48.16,8.56-.64,17.82,1,26.23.79,4.19,8,4.35,8.63,0,1.27-8.49.17-17.66,0-26.23-.08-4.51-.32-9-.62-13.48-.26-3.88-.11-7.65-2.18-11.06a2.85,2.85,0,0,0-4.86,0Z" transform="translate(-0.14 0.38)"/><path class="cls-4" d="M147.2,106.58c6.66-.94,14.57-1.75,20.86-4.19,4.92-1.92,7.34-7.13,4.87-12-5.43-10.69-22.14-8-28.74-.21-6.14,7.24-5.91,17.74-.38,25.21,5.33,7.21,17.4,10.79,24.8,4.71,2.36-2,1.11-6.46-1.86-7-4.52-.86-9.37,1.48-13.38-1.71a11.22,11.22,0,0,1-3.92-9.49c.73-7.28,7.17-10.26,13.55-8q.84,1,1.32-.33l-2.11.56-5.44,1.39c-3.93,1-7.88,2-11.75,3.18-5.18,1.64-2.93,8.64,2.18,7.92Z" transform="translate(-0.14 0.38)"/><path class="cls-4" d="M185.3,123.53c2.42-5.58,3-12.16,3.59-18.19.59-5.83,2-12.83-.53-18.27-1.12-2.4-5.16-2.36-6.29,0-2.35,4.9-1.49,11-1.95,16.34-.51,6-2.07,12.24-1.87,18.21.12,3.41,5.45,5.58,7.05,1.91Z" transform="translate(-0.14 0.38)"/><path class="cls-4" d="M187.69,102.26c4-.63,10.68-12.26,12.91-3,1.49,6.18-.27,13.4-2.16,19.28-1.84,5.7,7.4,8.28,9,2.48,2.38-8.75,5.16-24-2.9-30.79a10.9,10.9,0,0,0-12.34-1c-3.86,2-8.58,6.76-7.27,11.42a2.33,2.33,0,0,0,2.78,1.58Z" transform="translate(-0.14 0.38)"/><path class="cls-4" d="M235.88,87.63c-12-1.63-25.8,7.9-24.21,21.05,1.86,15.33,20.09,20.9,30.92,10.57,4.86-4.64-2.52-12-7.38-7.37-5.07,4.84-14.67,1.36-13.19-6.37,1.21-6.32,8.71-7.84,13.86-8.9,4.29-.88,4.59-8.36,0-9Z" transform="translate(-0.14 0.38)"/><path class="cls-4" d="M230.62,66c-1.68,8.52,0,18.45.76,27,.81,9.13,1.93,18.18,3.35,27.23,1,6.45,10.73,3.68,9.78-2.7-1.3-8.79-2.51-17.61-3.5-26.45-.91-8.1-.59-17.33-3-25.11-1-3.38-6.61-3.9-7.39,0Z" transform="translate(-0.14 0.38)"/><path class="cls-4" d="M254.67,106.15c8.74,1.94,21-2.1,20.74-12.8-.25-11.5-14.12-11.82-21.43-7-8.11,5.29-12.77,15.23-9.42,24.7,2.7,7.64,15.91,16.79,22.79,8.62,1.91-2.25,1.47-6.28-1.85-7-3.79-.84-7.76.75-10.53-2.94-2.64-3.51-1.81-8.53.66-11.84,1.15-1.56,9.81-8.29,10.19-3.89.36,4.14-8.74,4-11.15,4.56-3.75.88-3.82,6.81,0,7.65Z" transform="translate(-0.14 0.38)"/><path class="cls-4" d="M284.29,117.81a109.17,109.17,0,0,0,3.14-16.11c.55-4.92,1.9-10.74-.63-15.19a3.73,3.73,0,0,0-6.37,0c-2.38,3.91-1.59,8.84-2,13.29-.43,5.3-1,10.64-1.83,15.9-.74,4.91,6.3,7.17,7.65,2.11Z" transform="translate(-0.14 0.38)"/><path class="cls-4" d="M285.52,107.55c3-1.65,4.45-5.47,7.15-7.67a16.36,16.36,0,0,1,9.47-3.63c6.37-.33,6.29-10.42,0-9.87A26.67,26.67,0,0,0,287.3,92.2c-3.63,3-8.36,8.21-7,13.23a3.59,3.59,0,0,0,5.22,2.12Z" transform="translate(-0.14 0.38)"/></svg>