<svg id="carrito" xmlns="http://www.w3.org/2000/svg" viewBox="0 0 248.19 189.38"><defs><style>.cls-1{fill:#fff;}.cls-2{fill:#dbff00;}</style></defs><title>carrito</title><path class="cls-1" d="M250,115.67c0,.21-2.52.85-7.19,1.83-2.33.5-5.19,1.08-8.52,1.66s-7.12,1.3-11.33,1.94-8.83,1.39-13.79,2.05-10.29,1.32-15.88,2c-2.8.32-5.68.59-8.61.9l-4.45.44-4.54.39c-6.11.56-12.45,1-18.94,1.4s-12.84.67-19,.84l-4.56.15-4.47.07c-3,0-5.83.12-8.65.12-5.64,0-11,0-16-.11s-9.68-.23-13.94-.41-8.1-.39-11.48-.59-6.29-.43-8.66-.65c-4.75-.43-7.36-.76-7.35-1s2.65-.27,7.41-.2l8.66.14c3.38,0,7.23.15,11.48.15s8.9.08,13.9,0,10.33-.09,15.94-.16c2.81,0,5.69-.15,8.63-.22l4.45-.12,4.54-.18c6.11-.21,12.42-.56,18.89-.9s12.79-.82,18.88-1.33l4.52-.35,4.44-.41c2.93-.27,5.8-.5,8.59-.79,5.58-.59,10.9-1.11,15.86-1.71s9.58-1.14,13.79-1.68,8-1.06,11.38-1.49l8.59-1.16C247.36,115.72,250,115.47,250,115.67Z" transform="translate(-62.7 -80.48)"/><path class="cls-1" d="M274.57,107.44a13.71,13.71,0,0,1-.41,3.29c-.36,2.14-1,5.28-1.73,9.32-1.58,8.07-3.94,19.74-6.93,34.14-1.51,7.2-3.16,15.08-4.93,23.55q-1.35,6.34-2.77,13.11c-.51,2.26-.9,4.52-1.57,6.93a17.62,17.62,0,0,1-1.42,3.59,10.15,10.15,0,0,1-2.63,3.2,11,11,0,0,1-3.71,1.9,19.53,19.53,0,0,1-3.94.7c-2.62.19-5.09.14-7.65.2-5.1.07-10.3.08-15.6.07-10.6,0-21.57-.25-32.8-.66s-22.19-1-32.76-1.75q-7.92-.56-15.55-1.21l-7.53-.68c-2.48-.23-4.95-.45-7.4-.79-4.88-.66-9.8-1.84-14-4.45a33.18,33.18,0,0,1-9.6-10c-2.42-3.69-4.39-7.38-6.39-10.85s-3.87-6.85-5.68-10c-7.23-12.81-13-23.2-17-30.42-2-3.6-3.5-6.42-4.49-8.34a13.9,13.9,0,0,1-1.39-3A14,14,0,0,1,68.64,128c1.17,1.82,2.85,4.54,5,8.06,4.26,7,10.35,17.27,17.82,29.94l5.85,9.95c2,3.45,4.08,7.12,6.45,10.62a30.65,30.65,0,0,0,8.92,9.12c3.7,2.29,8.22,3.37,13,4,2.36.31,4.8.51,7.28.73l7.52.62q7.6.61,15.51,1.14c10.55.7,21.47,1.28,32.67,1.68s22.14.65,32.71.72c5.28,0,10.47,0,15.55,0,2.53,0,5.1,0,7.45-.14a11.08,11.08,0,0,0,6.16-2,10.29,10.29,0,0,0,3.18-5.39c.62-2.15,1.06-4.49,1.58-6.73q1.5-6.75,2.92-13.08c1.9-8.44,3.67-16.3,5.28-23.47,3.26-14.34,5.94-25.94,7.86-33.94,1-4,1.73-7.1,2.29-9.2A14.17,14.17,0,0,1,274.57,107.44Z" transform="translate(-62.7 -80.48)"/><path class="cls-2" d="M251.18,117.13l5.54-23.51c.6-2.54,1.3-5.26,3.29-7s4.7-2,7.27-2.18l27.59-2.31c3.1-.26,6.37-.49,9.16.88,4.76,2.34,6.33,8.73,4.82,13.81a8.25,8.25,0,0,1-2.44,4.1,11.11,11.11,0,0,1-4.84,1.88q-25.67,5.52-50.79,13.27" transform="translate(-62.7 -80.48)"/><path class="cls-1" d="M250.78,116.11c-.06-.19,1.95-1,5.67-2.32s9.13-3,15.88-5,14.86-4.1,23.92-6.21l3.44-.78c1.16-.28,2.37-.51,3.42-.81a6.07,6.07,0,0,0,2.61-1.37A6.76,6.76,0,0,0,307.26,97a12.4,12.4,0,0,0,.34-6.76,8.63,8.63,0,0,0-3.63-5.5c-1.85-1.19-4.31-1.36-6.79-1.24s-5.13.4-7.63.59L275,85.22l-6.76.5a20.19,20.19,0,0,0-5.9,1,6.11,6.11,0,0,0-3.42,3.5,34.79,34.79,0,0,0-1.53,5.09c-1.74,6.8-3.2,12.29-4.27,16.07s-1.77,5.84-2,5.8.1-2.21.83-6.07,1.87-9.43,3.35-16.29a33.46,33.46,0,0,1,1.46-5.5,9.65,9.65,0,0,1,1.7-2.84,8.23,8.23,0,0,1,2.89-2.06,22.17,22.17,0,0,1,6.64-1.28l6.75-.63,14.5-1.3c2.54-.21,5-.47,7.73-.64a20.2,20.2,0,0,1,4.23.15,11,11,0,0,1,4.3,1.53,11.54,11.54,0,0,1,4.95,7.37A15.29,15.29,0,0,1,310,98a9.5,9.5,0,0,1-2.3,3.75,8.86,8.86,0,0,1-3.83,2c-1.3.35-2.45.55-3.61.81l-3.44.73c-9.05,1.95-17.16,3.88-24,5.56l-16.1,4.05C253,115.85,250.84,116.31,250.78,116.11Z" transform="translate(-62.7 -80.48)"/><path class="cls-1" d="M105.74,229.82c0-.21,2.78-.18,7.76,0s12.16.66,21,1.24c17.76,1.18,42.28,3,69.35,5.23L242,239.57l8.54.75c2.7.2,5.29.15,7.33-.81a5.41,5.41,0,0,0,1.39-.89,7.72,7.72,0,0,0,.61-.53l.52-.6a7.44,7.44,0,0,0,1.25-2.9,12.86,12.86,0,0,0-.61-6.31,19.54,19.54,0,0,0-2.78-5.31,40.6,40.6,0,0,0-3.75-4,81.43,81.43,0,0,1-6.41-6.5,19.06,19.06,0,0,1-3.08-5,4.23,4.23,0,0,1-.5-2c.13-.05.39.6,1,1.71a24.05,24.05,0,0,0,3.4,4.45c1.69,1.77,4,3.7,6.68,6a38.68,38.68,0,0,1,4.11,4.1,20.82,20.82,0,0,1,3.28,5.78A14.88,14.88,0,0,1,264,235a9.87,9.87,0,0,1-1.59,3.91l-.7.85c-.25.28-.54.5-.81.75a8,8,0,0,1-1.86,1.24c-2.73,1.33-5.76,1.35-8.59,1.2l-8.59-.63-38.17-3c-27.07-2.21-51.56-4.38-69.28-6.1-8.86-.86-16-1.61-21-2.19S105.73,230,105.74,229.82Z" transform="translate(-62.7 -80.48)"/><path class="cls-1" d="M229.48,240.15c0-.2,1.36-.43,3.86-.51a42.21,42.21,0,0,1,4.58.13,30.83,30.83,0,0,1,6,1.11,22,22,0,0,1,6.84,3.33,17.71,17.71,0,0,1,5.49,7,15.35,15.35,0,0,1,1.27,4.75,12.36,12.36,0,0,1-.62,5.22,13,13,0,0,1-7.63,7.61,15.07,15.07,0,0,1-5.38,1.1,18,18,0,0,1-5.22-.66,24.15,24.15,0,0,1-8.58-4.5,21.36,21.36,0,0,1-5.61-6.75,14.29,14.29,0,0,1-1.63-7.6,11.9,11.9,0,0,1,2.32-6,10.17,10.17,0,0,1,3.66-3.09,7.49,7.49,0,0,1,2.91-.74c.69,0,1,.11,1,.21s-.33.23-.94.39a10.17,10.17,0,0,0-2.43,1.16,9.94,9.94,0,0,0-2.85,3,10.62,10.62,0,0,0-1.58,5.16,12.37,12.37,0,0,0,1.7,6.28,19.5,19.5,0,0,0,5.13,5.76,22.1,22.1,0,0,0,7.63,3.83,13.82,13.82,0,0,0,8.73-.38,10.22,10.22,0,0,0,6-5.81,11,11,0,0,0-.42-7.91,15.79,15.79,0,0,0-4.49-6.09,21,21,0,0,0-6-3.26,32.54,32.54,0,0,0-5.6-1.46c-1.69-.31-3.18-.49-4.4-.64C230.85,240.53,229.48,240.37,229.48,240.15Z" transform="translate(-62.7 -80.48)"/><path class="cls-1" d="M129.48,234c0,.22-1.26.21-3.43.37a29.06,29.06,0,0,0-3.88.52,18.58,18.58,0,0,0-4.77,1.65,12.12,12.12,0,0,0-4.44,3.81,10.42,10.42,0,0,0-2,6.13,7.91,7.91,0,0,0,3,6,16.87,16.87,0,0,0,7.3,3.24,21.5,21.5,0,0,0,8.16.26,9.6,9.6,0,0,0,6.1-3.37,8.67,8.67,0,0,0,1.56-6.09,13.16,13.16,0,0,0-1.84-5.59,22.79,22.79,0,0,0-3.13-4c-1.07-1.1-2.06-2-2.87-2.73-1.65-1.46-2.55-2.31-2.43-2.48s1.24.35,3.13,1.55a31.11,31.11,0,0,1,3.31,2.44,21,21,0,0,1,3.77,4.09,14.91,14.91,0,0,1,2.53,6.46,12.28,12.28,0,0,1-.09,4,10,10,0,0,1-1.71,4,10.54,10.54,0,0,1-3.42,3,14.45,14.45,0,0,1-4.35,1.57,23.36,23.36,0,0,1-9.34-.21,19.29,19.29,0,0,1-8.59-3.93,11.22,11.22,0,0,1-2.9-3.77,10.11,10.11,0,0,1-1-4.5,12.8,12.8,0,0,1,2.82-7.63,13.85,13.85,0,0,1,5.52-4.22,18.1,18.1,0,0,1,5.42-1.4,22.26,22.26,0,0,1,4.15,0C128.32,233.38,129.5,233.79,129.48,234Z" transform="translate(-62.7 -80.48)"/><path class="cls-1" d="M131.31,189.68c-.39.15-2-3.1-4.44-8.39s-5.72-12.63-9.46-20.68-7.22-15.29-9.7-20.57-3.92-8.6-3.55-8.8,2.45,2.77,5.42,7.81,6.78,12.19,10.55,20.29,6.77,15.63,8.71,21.15S131.69,189.53,131.31,189.68Z" transform="translate(-62.7 -80.48)"/><path class="cls-1" d="M170.7,191c-.79.28-6.06-12.54-12.2-28.47s-10.84-29-10.07-29.3,6.71,12.24,12.86,28.22S171.47,190.72,170.7,191Z" transform="translate(-62.7 -80.48)"/><path class="cls-1" d="M212.47,192.38c-.4.13-1.81-3.35-3.95-9-1.07-2.82-2.35-6.16-3.77-9.88-.72-1.85-1.48-3.8-2.27-5.81L200,161.49l-2.56-6.19L195,149.55c-1.57-3.66-3-7-4.18-9.71-2.39-5.54-3.81-9-3.43-9.2s2.44,2.94,5.34,8.27c1.45,2.66,3.08,5.88,4.79,9.51.85,1.81,1.74,3.72,2.6,5.72s1.75,4.08,2.64,6.22,1.69,4.25,2.44,6.29,1.47,4,2.13,5.92c1.29,3.8,2.37,7.24,3.18,10.16C212.17,188.57,212.86,192.27,212.47,192.38Z" transform="translate(-62.7 -80.48)"/><path class="cls-1" d="M249.66,183.53c-.37.17-2.08-2.72-4.42-7.59s-5.28-11.74-8.1-19.49-5-14.9-6.29-20.14-1.87-8.55-1.48-8.66,1.66,3,3.5,8L240,155.43c2.82,7.69,5.38,14.65,7.23,19.69S250.05,183.36,249.66,183.53Z" transform="translate(-62.7 -80.48)"/><path class="cls-1" d="M246,135.85c0,.2-2,.86-5.72,1.88-1.86.53-4.15,1.12-6.82,1.72s-5.72,1.34-9.12,2l-5.32,1c-1.86.35-3.8.65-5.8,1-4,.7-8.31,1.26-12.84,1.88-2.27.3-4.6.52-7,.8l-3.6.39-3.69.31c-5,.47-10.1.74-15.37,1s-10.42.36-15.4.34l-3.7,0-3.62-.07c-2.39-.06-4.74-.08-7-.18-4.57-.21-8.91-.39-13-.73-2-.16-4-.28-5.86-.47l-5.4-.55c-3.44-.33-6.53-.79-9.25-1.16s-5-.74-6.95-1.1c-3.8-.68-5.89-1.16-5.86-1.37s2.17-.11,6,.21c1.92.18,4.26.4,7,.59s5.82.52,9.25.71l5.38.36c1.87.13,3.83.19,5.84.29,4,.24,8.35.32,12.89.46,2.27.06,4.59,0,7,.07l3.6,0,3.67-.05c4.94,0,10-.22,15.29-.39s10.34-.55,15.26-1l3.66-.27,3.59-.35c2.36-.25,4.68-.43,6.93-.7,4.51-.54,8.8-1,12.8-1.59,2-.29,3.94-.52,5.79-.81l5.33-.84c3.4-.49,6.45-1.08,9.15-1.53s5-.86,6.91-1.21C243.86,135.92,246,135.65,246,135.85Z" transform="translate(-62.7 -80.48)"/><path class="cls-1" d="M250.86,155.84c0,.2-1.86.82-5.34,1.78-1.74.48-3.88,1-6.39,1.58s-5.34,1.24-8.52,1.81l-5,.93c-1.73.32-3.55.58-5.42.89-3.75.63-7.78,1.11-12,1.65-2.12.26-4.31.44-6.53.67l-3.38.33-3.45.25c-4.63.38-9.45.57-14.38.77s-9.75.18-14.4.07l-3.45,0-3.39-.13c-2.24-.1-4.43-.16-6.56-.3-4.26-.29-8.32-.54-12.1-1-1.89-.19-3.71-.35-5.47-.56l-5-.65c-3.21-.38-6.09-.9-8.62-1.31s-4.7-.82-6.47-1.21c-3.53-.75-5.47-1.26-5.43-1.46s2-.09,5.61.31c1.79.2,4,.46,6.52.7s5.42.62,8.62.86l5,.45c1.75.16,3.57.25,5.45.39,3.76.31,7.79.46,12,.67,2.12.1,4.3.12,6.51.19l3.37.1h3.43c4.61.07,9.38,0,14.28-.13s9.66-.37,14.26-.7l3.42-.21,3.36-.29c2.21-.2,4.37-.34,6.48-.57,4.22-.46,8.23-.85,12-1.37,1.87-.25,3.68-.45,5.41-.7l5-.74c3.18-.44,6-1,8.56-1.36s4.69-.77,6.46-1.09C248.82,155.87,250.81,155.64,250.86,155.84Z" transform="translate(-62.7 -80.48)"/><path class="cls-1" d="M252.25,172.91c0,.2-1.79.73-5.13,1.5-1.67.39-3.73.84-6.12,1.28s-5.12,1-8.16,1.45-6.35,1-9.93,1.47-7.41.92-11.45,1.36c-2,.22-4.1.38-6.21.57s-4.28.37-6.49.5c-4.41.32-9,.51-13.66.71s-9.27.23-13.69.2q-3.32,0-6.5-.07c-2.13,0-4.21-.07-6.24-.15-4-.17-7.91-.32-11.51-.59s-6.95-.51-10-.81-5.81-.61-8.23-.9-4.5-.59-6.2-.87c-3.39-.55-5.25-.95-5.22-1.16s1.93-.2,5.35,0l6.22.37c2.43.13,5.18.33,8.24.46s6.39.33,10,.43,7.42.22,11.45.32c2,0,4.09,0,6.2.05s4.27,0,6.47,0c4.39,0,8.93-.14,13.59-.26s9.19-.36,13.57-.65q3.3-.16,6.45-.42c2.11-.16,4.17-.28,6.18-.46,4-.37,7.85-.68,11.42-1.08s6.89-.74,9.93-1.1,5.77-.71,8.18-1l6.19-.78C250.32,172.84,252.22,172.7,252.25,172.91Z" transform="translate(-62.7 -80.48)"/></svg>