<svg id="js_logo" data-name="js logo" xmlns="http://www.w3.org/2000/svg" viewBox="0 0 393 417"><defs><style>.cls-1{fill:#070707;}.cls-2{fill:#36ad6f;}.cls-3{fill:#384f42;}.cls-4{fill:#fff;}.cls-5{fill:#8b000b;}.cls-6{fill:#17baff;}</style></defs><title>frameworks</title><rect class="cls-1" width="393" height="417"/><path class="cls-2" d="M224.14,43.62c6.33,2.33,18.67,11.66,25,14-1.33,15.66,3.33,33.33,2,49,12.67-10.34,32.33-16.67,45-27,10.67,6,14.33,8,25,14-30.67,22.33-71.33,44.66-102,67C221.47,124.62,221.81,79.62,224.14,43.62Z" transform="translate(6.36 -0.12)"/><path class="cls-3" d="M246.14,55.62c0,16.33-5,47.66-5,64,17.33-8,39.67-31,57-39l-21-9-18,13-3-25Z" transform="translate(6.36 -0.12)"/><path class="cls-4" d="M276,17.5c.53.64-1.33,3.15-4.75,6.68-1.72,1.77-3.82,3.79-6.22,6-1.2,1.08-2.47,2.21-3.81,3.36l-3.62,3.05-4.26,3.54-3.65,3c.35-3.45.69-6.82,1-10.06.17-1.51.34-3,.5-4.44.11-.77.21-1.52.32-2.26.43-2.93.89-5.55,1.36-7.74.94-4.37,1.89-7,2.67-6.93s1.25,2.83,1.38,7.3c.06,2.24,0,4.9-.06,7.86,0,.74-.07,1.5-.1,2.28,0,.27,0,.22,0,.23l0,0,0,0c.05,0,.09,0,.11,0v0h0l.49-.38c1.39-1.09,2.73-2.13,4-3.1,2.59-1.94,5-3.62,7-5C272.71,18.21,275.52,16.86,276,17.5Z" transform="translate(6.36 -0.12)"/><path class="cls-4" d="M296,34.37c.35.22.28,1.07-.19,2.42A23.82,23.82,0,0,1,293,42.16a22.53,22.53,0,0,1-2.8,3.36,17.41,17.41,0,0,1-4.31,3.12,14.71,14.71,0,0,1-6,1.51,13.35,13.35,0,0,1-6.7-1.43,10.44,10.44,0,0,1-4.94-5.44,11.57,11.57,0,0,1-.48-6.54A14,14,0,0,1,270,31.66,17.15,17.15,0,0,1,273,28.3a20.11,20.11,0,0,1,5.22-3.2c1.32-.54,2.16-.65,2.41-.32s-.15,1.1-1,2.19-2.21,2.5-3.55,4.28a17.62,17.62,0,0,0-1.82,2.93,10.87,10.87,0,0,0-1,3.46,6.62,6.62,0,0,0,.47,3.41A4.89,4.89,0,0,0,276,43.4a8.37,8.37,0,0,0,3.8.87,10.58,10.58,0,0,0,3.82-.67A15.9,15.9,0,0,0,287,41.74a28.6,28.6,0,0,0,2.79-2.32c1.67-1.57,3-3,4.06-3.92S295.61,34.14,296,34.37Z" transform="translate(6.36 -0.12)"/><path class="cls-4" d="M304,64.2c0,.2-.32.36-.95.45a5.44,5.44,0,0,1-2.71-.54A8.72,8.72,0,0,1,297,61.28a12.36,12.36,0,0,1-2.21-5.47,12.59,12.59,0,0,1,0-3.57A13.64,13.64,0,0,1,296,48.57a17.94,17.94,0,0,1,5.22-6.2,28.23,28.23,0,0,1,7.51-4.1,19.64,19.64,0,0,1,9.65-1.1,11.61,11.61,0,0,1,5.21,2.11,7.3,7.3,0,0,1,1.14,1l.52.57.44.64a7.07,7.07,0,0,1,.72,1.32,7.66,7.66,0,0,1,.5,1.44,9.09,9.09,0,0,1-.48,5.65,10.83,10.83,0,0,1-3,4.1,10.26,10.26,0,0,1-2,1.37,9.9,9.9,0,0,1-2.22.83,12.21,12.21,0,0,1-4.25.3,15.37,15.37,0,0,1-6.68-2.42,19.58,19.58,0,0,1-4.14-3.65,24.94,24.94,0,0,1-2.36-3.21c-1.12-1.84-1.53-3-1.22-3.24s1.36.39,3,1.7c.81.66,1.77,1.46,2.9,2.31a21.62,21.62,0,0,0,3.91,2.39,12.08,12.08,0,0,0,4.91,1.15,7.75,7.75,0,0,0,2.5-.4,5.58,5.58,0,0,0,1.07-.5,5.94,5.94,0,0,0,.95-.74,4.56,4.56,0,0,0,1.45-4.18,2.28,2.28,0,0,0-.2-.47,1.56,1.56,0,0,0-.26-.45l-.14-.21-.19-.18a2.07,2.07,0,0,0-.41-.36,5.83,5.83,0,0,0-2.57-1,15,15,0,0,0-6.75.71,26,26,0,0,0-6.21,3,14.16,14.16,0,0,0-4.12,4.12,10.08,10.08,0,0,0-1.05,2.26,9.29,9.29,0,0,0-.33,2.27,10.19,10.19,0,0,0,.84,4.06,8.14,8.14,0,0,0,1.81,2.62,11.2,11.2,0,0,0,1.71,1.32C303.78,63.74,304,64,304,64.2Z" transform="translate(6.36 -0.12)"/><path class="cls-5" d="M28.64,131.12c15.41-12.43,30.5-50.5,30.72-51.22.11-.34,8.93-1.11,13.78-1.28,18.9-.68,38.44,1,57-2.47,11.64,31.17,13,48.47,31,80.47,0,0-15.48,38.35-18.47,49.14a140.23,140.23,0,0,1-49.19,1.66l-64.8-76.73" transform="translate(6.36 -0.12)"/><path class="cls-4" d="M148.78,150.81c-.26.55-2.45.19-6.19-1a155.19,155.19,0,0,1-15.37-6.11c-6.37-2.86-13.83-6.55-21.92-11-4-2.24-8.26-4.65-12.55-7.27l-3.24-2-1.63-1-.18-.12h0s0,0,0,0h0a0,0,0,0,0,0,0q.34,3.17.68,6.22c.53,5,1,9.8,1.45,14.39.87,9.17,1.53,17.44,2,24.41.84,13.93.75,22.62-.48,22.77s-3.38-8.28-5.84-22c-1.23-6.87-2.54-15.07-3.86-24.19-.66-4.56-1.32-9.35-2-14.32-.37-2.94-.75-5.92-1.14-9q-.93-7.71-1.89-15.63c0-.27-.06-.54-.1-.81l13.17,8.68,4.64,3,3.15,2c4.16,2.68,8.21,5.2,12.07,7.6,7.74,4.78,14.77,9,20.69,12.53C142,145.14,149.32,149.65,148.78,150.81Z" transform="translate(6.36 -0.12)"/><ellipse class="cls-4" cx="106.26" cy="152.77" rx="20.61" ry="4.5" transform="translate(-65.63 99.2) rotate(-38.49)"/><path class="cls-4" d="M21.06,89.67c-.33.21-1.74-1.58-4.26-4.32-1.25-1.37-2.8-3-4.64-4.64-.92-.83-1.9-1.7-3-2.55-.19-.16-.11-.08-.14-.11H9s0,0,0,0a.26.26,0,0,1,0,.07H9c.1.41.19.81.29,1.22,1.66,7,3.58,13.3,5,17.84s2.36,7.36,2,7.53-2-2.37-3.95-6.78a101.53,101.53,0,0,1-6-17.89L6,78.63,5.5,76c-.35-1.7-.68-3.38-1-5l3.41,2.54c.55.39,1.09.83,1.63,1.27l.8.64c.24.19.59.49.67.57,1.08.94,2.06,1.91,3,2.85a43.15,43.15,0,0,1,4.33,5.28C20.48,87.33,21.34,89.49,21.06,89.67Z" transform="translate(6.36 -0.12)"/><path class="cls-4" d="M15.81,88.28c.53.64.06,1.9-1,2.82s-2.43,1.15-3,.52-.07-1.9,1-2.82S15.27,87.65,15.81,88.28Z" transform="translate(6.36 -0.12)"/><path class="cls-4" d="M25.13,54.29c.13-.12.92.38,2.06,1.6a12.74,12.74,0,0,1,.91,1c.33.39.66.83,1,1.31a28.16,28.16,0,0,1,2.06,3.47,29.64,29.64,0,0,1,2.91,10.14c.06.49.07,1,.11,1.52,0,.25,0,.51,0,.77v1.1c0,1-.11,1.94-.16,2.94l0,.75v.19s0,.16-.06.1l-.33-.17-1.33-.65-6.9-3.56-4.56-2.41a.84.84,0,0,0-.22-.18s0,.07,0,.21l0,.06s0,0,0,.06l.13.23.51.92,1,1.76c1.26,2.29,2.34,4.32,3.22,6,1.74,3.41,2.64,5.5,2.36,5.67s-1.7-1.61-3.87-4.77c-1.09-1.58-2.36-3.5-3.78-5.69L19.12,75l-.56-.89c-.31-.49-.61-1-.92-1.49L13,65.09l13.75,7.09,2.9,1.52,1.41.75.18.09c.05,0,0,0,0,0h0v0s0,0,.06,0v0l0-.35c0-.24,0-.47,0-.71,0-.46,0-.93-.05-1.38a31.68,31.68,0,0,0-2.09-9.5,33.82,33.82,0,0,0-1.56-3.45c-.25-.51-.5-1-.74-1.38s-.45-.81-.66-1.15C25.45,55.21,25,54.45,25.13,54.29Z" transform="translate(6.36 -0.12)"/><path class="cls-4" d="M47.65,65.63c0,.1-.19.21-.62.23A2.24,2.24,0,0,1,45.39,65a4,4,0,0,1-.87-2.81,3.82,3.82,0,0,1,.63-1.9,3.33,3.33,0,0,1,2-1.34,4,4,0,0,1,2.55.25A5.44,5.44,0,0,1,52.9,63.5a5.16,5.16,0,0,1-.77,3.08,6.78,6.78,0,0,1-5.4,3,7.92,7.92,0,0,1-5.95-2.52,11.85,11.85,0,0,1-3-5.36,23.93,23.93,0,0,1-.7-5.3,37.28,37.28,0,0,1,0-4.74,12.48,12.48,0,0,1,1.07-4.21,7.69,7.69,0,0,1,2.31-2.89A6,6,0,0,1,43,43.42a3.73,3.73,0,0,1,1.73,0c.38.11.56.24.54.34s-.81.21-1.91.75a5.91,5.91,0,0,0-1.75,1.31,6.77,6.77,0,0,0-1.46,2.45,11.81,11.81,0,0,0-.55,3.55c0,1.33.1,2.83.23,4.42a23.33,23.33,0,0,0,.77,4.68,9.31,9.31,0,0,0,2.26,4,5.18,5.18,0,0,0,3.71,1.7,4.13,4.13,0,0,0,3.2-1.59,2.51,2.51,0,0,0,.45-1.39,2.66,2.66,0,0,0-.47-1.4A2.53,2.53,0,0,0,47.56,61a1.39,1.39,0,0,0-.89.42,2.21,2.21,0,0,0-.49,1,3.16,3.16,0,0,0,.18,1.95C46.81,65.34,47.66,65.39,47.65,65.63Z" transform="translate(6.36 -0.12)"/><path class="cls-4" d="M53.72,40.11c.14-.15.6,0,1.32.45a15.23,15.23,0,0,1,2.77,2.24,11.91,11.91,0,0,1,3,4.72,8.34,8.34,0,0,1-1.12,7.2,6.11,6.11,0,0,1-3.38,2.42,6,6,0,0,1-3.85-.33,7.45,7.45,0,0,1-2.62-1.93,8.49,8.49,0,0,1-1.42-2.32A10.15,10.15,0,0,1,47.64,49c0-.86.1-1.33.3-1.37s.48.37.83,1.1a25.21,25.21,0,0,0,1.51,2.88,7.34,7.34,0,0,0,1.31,1.55,5.32,5.32,0,0,0,1.85,1.1,3.35,3.35,0,0,0,2.05.07A3.41,3.41,0,0,0,57.22,53a5.55,5.55,0,0,0,.94-2.33,5.76,5.76,0,0,0,0-2.38,12.59,12.59,0,0,0-1.95-4.12c-.77-1.14-1.49-2.06-1.94-2.75S53.58,40.26,53.72,40.11Z" transform="translate(6.36 -0.12)"/><path class="cls-4" d="M83.13,46.27c.13.14-.15.7-.87,1.51a17.31,17.31,0,0,1-3.49,3,24.55,24.55,0,0,1-6.18,2.94l-.47.14-.6.17c-.6.16-1.19.27-1.82.41l-.93.21a4.13,4.13,0,0,1-.2-.87l-.36-1.87c-.15-.69-.29-1.4-.44-2.12s-.3-1.33-.47-2A113.18,113.18,0,0,0,63,34.09c-1.31-3.45-2.18-5.6-1.81-5.82s1.89,1.6,3.74,4.92A56.44,56.44,0,0,1,70.21,47c.18.71.33,1.41.47,2.1s.25,1.28.36,1.9c0,0,0,.16,0,.14l0,0,.32-.07.43-.1a31.08,31.08,0,0,0,5.88-2.13c1.63-.76,2.9-1.52,3.81-2S83,46.11,83.13,46.27Z" transform="translate(6.36 -0.12)"/><path class="cls-4" d="M100.28,41.69c-.1,0-.28-.15-.53-.53s-.57-1-1-1.71l-1.49-2.71c-.59-1.05-1.27-2.23-2.06-3.51a75.81,75.81,0,0,0-6.12-8.57c-1.25-1.53-2.64-3.08-4.15-4.61l-.14-.14h0a0,0,0,0,0,0,0h0s0-.06,0,.14l.13.84c.18,1.13.35,2.23.52,3.32.33,2.17.64,4.27.94,6.27.57,4,1.05,7.61,1.41,10.65.71,6.08.95,9.87.54,9.94s-1.38-3.6-2.64-9.6c-.62-3-1.32-6.57-2-10.54-.35-2-.72-4.08-1.11-6.25-.18-1.08-.37-2.18-.56-3.3q-.47-2.87-1-5.81-.23-1.63-.45-3.24l-.06-.4v-.1s0-.08,0,0l.16.15.61.56,1.22,1.13,2.38,2.24L86.05,17c.2.19.4.37.58.57l.42.45a56.18,56.18,0,0,1,4.2,4.93,59,59,0,0,1,5.82,9.25c.69,1.4,1.26,2.68,1.72,3.83s.8,2.14,1,3a14.8,14.8,0,0,1,.47,1.94C100.38,41.4,100.38,41.65,100.28,41.69Z" transform="translate(6.36 -0.12)"/><path class="cls-4" d="M94.42,34.87c.44.7-.87,2.3-2.91,3.56s-4.05,1.71-4.49,1,.87-2.3,2.91-3.56S94,34.16,94.42,34.87Z" transform="translate(6.36 -0.12)"/><path class="cls-4" d="M123.81,34.28c-.09.1-.49-.1-1.17-.53s-1.67-1.06-3-1.77q-1-.54-2.19-1.08a26.14,26.14,0,0,0-2.67-1,25.39,25.39,0,0,0-3.13-.83c-.28-.06-.56-.12-.85-.16s-.81-.16-1.39-.21c-1.17-.13-2.37-.25-3.62-.37.88-1.12,1.89-2.32,2.82-3.57l.22-.32.17-.25.3-.49a9.93,9.93,0,0,0,.53-1,5.81,5.81,0,0,0,.56-2.1,4.45,4.45,0,0,0-.32-2.06,2.66,2.66,0,0,0-1.2-1.35,3,3,0,0,0-1.91-.19,4.27,4.27,0,0,0-2,1,5.46,5.46,0,0,0-1.3,2,9.47,9.47,0,0,0-.55,2.29,15.36,15.36,0,0,0,0,2.45,23,23,0,0,0,.86,4.83,65,65,0,0,0,3.44,8.73l-2.38,1c-3.43-11.1-5.43-18.62-4.91-18.8s3.43,7.06,7.35,18l-2.38,1a58.58,58.58,0,0,1-3.89-9,24.92,24.92,0,0,1-1.06-5.46,13.81,13.81,0,0,1,.77-6,8.27,8.27,0,0,1,2.09-3.1A7.16,7.16,0,0,1,106.43,14a5.83,5.83,0,0,1,3.83.51,5.5,5.5,0,0,1,2.5,2.86,7.26,7.26,0,0,1,.45,3.38,8.73,8.73,0,0,1-.9,3,11.64,11.64,0,0,1-.72,1.25c-.13.2-.25.39-.39.58l-.2.27-.14.19-.31.3.3.09a3.74,3.74,0,0,0,.45.12c.31.06.62.15.92.23A24.77,24.77,0,0,1,115.54,28a22.56,22.56,0,0,1,2.74,1.37,21.91,21.91,0,0,1,2.16,1.42,17.9,17.9,0,0,1,2.68,2.4C123.66,33.81,123.89,34.19,123.81,34.28Z" transform="translate(6.36 -0.12)"/><path class="cls-6" d="M228.66,315.87c-.15,0-.32-.05-.51-.29a2.09,2.09,0,0,1-.3-.48c-.07-.2-.14-.45-.21-.73a5,5,0,0,1,0-1,6.45,6.45,0,0,1,.19-1.14,6.9,6.9,0,0,1,1.33-2.47,7.6,7.6,0,0,1,2.79-2.07,6.44,6.44,0,0,1,4.35-.34,6.26,6.26,0,0,1,3.87,3.25,8.31,8.31,0,0,1,.71,5,8.19,8.19,0,0,1-2.29,4.49,6.25,6.25,0,0,1-4.75,1.78,6.66,6.66,0,0,1-4-1.73,8,8,0,0,1-2-2.83,7.17,7.17,0,0,1-.51-2.75,7.28,7.28,0,0,1,.16-1.14,5.17,5.17,0,0,1,.33-.9,4.78,4.78,0,0,1,.41-.64,2.32,2.32,0,0,1,.42-.38c.25-.18.44-.21.57-.13a.72.72,0,0,1,.23.54c0,.14,0,.28,0,.45a4.75,4.75,0,0,1,0,.56c0,.19.08.42.1.64s.13.47.2.72a7.49,7.49,0,0,0,.83,1.57,5.79,5.79,0,0,0,1.49,1.38,3.07,3.07,0,0,0,1.79.52,2.22,2.22,0,0,0,1.54-.76,4.49,4.49,0,0,0,1-2.12,4.43,4.43,0,0,0-.24-2.34,2.24,2.24,0,0,0-1.2-1.25,3,3,0,0,0-1.83-.1,5.56,5.56,0,0,0-1.83.84,6.64,6.64,0,0,0-1.25,1.23c-.15.21-.29.42-.41.62s-.21.4-.28.58a5.15,5.15,0,0,1-.2.52c-.06.16-.09.3-.15.42S228.81,315.83,228.66,315.87Z" transform="translate(6.36 -0.12)"/><path class="cls-6" d="M234.63,316.24c-.5-.06-.68-2.45-.59-6.43l.06-2.57,2.19,1.75a9.75,9.75,0,0,1,1.47,1.39,4.56,4.56,0,0,1,1.13,2.59,3.82,3.82,0,0,1,0,.89,2.93,2.93,0,0,1-.47,1.16,3.26,3.26,0,0,1-1.85,1.25,3.48,3.48,0,0,1-2.23-.12,2.87,2.87,0,0,1-.68-.4A2.38,2.38,0,0,1,233,315a2.48,2.48,0,0,1-.32-1,3.55,3.55,0,0,1,0-.87l.47-3.71,2.71,2.79a3.68,3.68,0,0,1,1,2.15,4.36,4.36,0,0,1-.28,2.14,4.31,4.31,0,0,1-1.3,1.81,3.8,3.8,0,0,1-1.15.66,3.94,3.94,0,0,1-1.42.2l-.55,0-.49-.35a5.49,5.49,0,0,1-1.07-1,6,6,0,0,1-.76-1.19,6.28,6.28,0,0,1-.6-2.64,6.49,6.49,0,0,1,.56-2.73,6.16,6.16,0,0,1,.81-1.29,5.67,5.67,0,0,1,1.2-1.08l.76-.51.92.22a5.86,5.86,0,0,1,1.11.4,5.1,5.1,0,0,1,.94.62,5.64,5.64,0,0,1,1.36,1.65,5.75,5.75,0,0,1,.64,2.08,4.9,4.9,0,0,1-.33,2.36,4.63,4.63,0,0,1-1.82,2.13,5,5,0,0,1-2.42.74,5.09,5.09,0,0,1-1.27-.1,5,5,0,0,1-1.32-.48,4.87,4.87,0,0,1-1.09-.82,5.65,5.65,0,0,1-.77-1.11,4.5,4.5,0,0,1,.45-4.41,4.93,4.93,0,0,1,1.5-1.41,4.11,4.11,0,0,1,2.23-.62,3.84,3.84,0,0,1,2.35.9,3.79,3.79,0,0,1,1.21,2,4.66,4.66,0,0,1-.64,3.68,3.7,3.7,0,0,1-1.74,1.38,3.36,3.36,0,0,1-2,.1,3.76,3.76,0,0,1-1.61-.86,4.38,4.38,0,0,1-1-1.54,4.55,4.55,0,0,1,0-3.44,3.18,3.18,0,0,1,3.64-2,2.6,2.6,0,0,1,.68.23,2.75,2.75,0,0,1,.62.37,4.15,4.15,0,0,1,1.47,2.23,3.61,3.61,0,0,1-.1,2.27,1.74,1.74,0,0,1-.23.45,1.9,1.9,0,0,1-.29.38,2.74,2.74,0,0,1-.7.56l-1.15.77-.33-1.21c-.59-2.13-.76-3.4-.42-3.54s1.13.85,2.27,2.74l-1.48-.44c0-.07.15-.18.17-.29a.72.72,0,0,0,.07-.33,1.17,1.17,0,0,0-.16-.64,1.12,1.12,0,0,0-.19-.24.84.84,0,0,0-.24-.18.6.6,0,0,0-.27-.06.5.5,0,0,0-.26.08.6.6,0,0,0-.13.8.32.32,0,0,0,.27.16h.08l0,0,.06.43v0c0,.07,0,0,0,0h0l0-.07-.09-.11a1,1,0,0,0-.15-.14l-.08-.07h0s.06-.38,0-.44,0,0,0,0a.75.75,0,0,0,.2-.1.51.51,0,0,0,.18-.14s0,0,0,0v0h0c-.13.28,0,.07-.06.14h0v0c0-.08,0,0,0,0a.51.51,0,0,0,0,.13.53.53,0,0,0,0,.18s0,.07,0,.1h0l0,0a.8.8,0,0,0-.16.19s0,.05,0,.05h0s0,0,0,0h.14a.73.73,0,0,0,.29-.08l0,0a.62.62,0,0,0,0-.23,1.13,1.13,0,0,0-.12-.4,1.05,1.05,0,0,0-.26-.34.41.41,0,0,0-.12-.09l-.09-.05,1.69-.29a1.92,1.92,0,0,0-.23.19,1.51,1.51,0,0,0-.2.31,2.2,2.2,0,0,0-.23.88,2.25,2.25,0,0,0,.14.89,1.58,1.58,0,0,0,.17.32,1.5,1.5,0,0,0,.2.23l-1.07.05v0l0-.08c0-.06,0-.08-.07-.15a1.74,1.74,0,0,0-.1-.15s.11-.07.16-.16a1.6,1.6,0,0,0,.1-.22s.11,0,.19-.07l0,0v0l2.35-.93a1,1,0,0,0-.45,0s.09,0,.1-.1.11-.16.18-.28a2.79,2.79,0,0,0,.11-.35c0-.1,0-.27,0-.22l.06,0s0,0,.1.16a.75.75,0,0,0,.13.18.46.46,0,0,0,.12.12l0,0h0l-.48-.11h0a.61.61,0,0,0,0-.12,1.53,1.53,0,0,0-.29-1,7.92,7.92,0,0,0-.9-1.19l2.25-.82C235.86,314,235.13,316.3,234.63,316.24Z" transform="translate(6.36 -0.12)"/><path class="cls-6" d="M271.62,243.75c0-.05.21-.25.73-.61a3.77,3.77,0,0,1,2.8-.36,6.32,6.32,0,0,1,3.46,3,16.77,16.77,0,0,1,1.94,5.86c.65,4.64-.06,10.31-1.84,16.54-.89,3.12-2,6.38-3.35,9.79s-2.75,7-4.36,10.68-3.31,7.61-5.29,11.56c-1,2-1.9,4-3,6.06s-2.16,4.11-3.26,6.22a268.46,268.46,0,0,1-16.09,25.83,198.85,198.85,0,0,1-21.64,25.8c-2.11,2-4.18,4.15-6.46,6.08l-3.37,3L208.34,376c-2.33,1.94-4.89,3.63-7.4,5.41l-.95.66-1,.61-2,1.21-2,1.22c-.66.41-1.32.81-2.07,1.19a11.73,11.73,0,0,1-2.51,1,5.05,5.05,0,0,1-3.33-.24,5.44,5.44,0,0,1-2.35-2.24,10.49,10.49,0,0,1-1.05-2.51,23.23,23.23,0,0,1-.19-9.7c1.07-6.21,3.36-11.71,5.37-17.18a260.07,260.07,0,0,1,13.91-30.62,283.51,283.51,0,0,1,15.93-25.92c5.5-7.79,11-14.78,16.21-21,1.29-1.55,2.63-3,3.9-4.45s2.5-2.86,3.77-4.17c2.51-2.65,4.82-5.19,7.13-7.43s4.38-4.39,6.4-6.25,3.82-3.62,5.53-5.1l4.51-4,3.4-2.8a14.82,14.82,0,0,1,2.93-2.14,14.69,14.69,0,0,1-2.49,2.65l-3.17,3q-1.87,1.81-4.29,4.18c-1.63,1.54-3.37,3.34-5.3,5.29s-4,4.09-6.18,6.41-4.46,4.87-6.89,7.55c-1.23,1.33-2.41,2.78-3.65,4.23s-2.53,2.92-3.79,4.49c-5.08,6.22-10.39,13.24-15.74,21a296.16,296.16,0,0,0-15.49,25.8A264.46,264.46,0,0,0,192,356.59c-2,5.4-4.21,10.92-5.14,16.56a26.23,26.23,0,0,0-.37,4.21,16.36,16.36,0,0,0,.49,4.06,4.21,4.21,0,0,0,1.56,2.6,1.79,1.79,0,0,0,1.17,0,8.1,8.1,0,0,0,1.76-.71c.62-.31,1.28-.71,1.92-1.11l1.93-1.18,1.92-1.17,1-.58.92-.65c2.45-1.73,4.94-3.36,7.22-5.25l3.46-2.74,3.31-2.9c2.23-1.88,4.26-3.95,6.34-5.93a200,200,0,0,0,21.44-25.28A274.88,274.88,0,0,0,257,311.17c1.12-2.08,2.23-4.11,3.32-6.11s2.05-4,3.05-6c2-3.89,3.74-7.73,5.44-11.37s3.11-7.2,4.56-10.52,2.57-6.52,3.53-9.54c1.9-6,2.76-11.49,2.34-15.83a16.72,16.72,0,0,0-1.52-5.55,5.81,5.81,0,0,0-2.79-2.86,3.73,3.73,0,0,0-2.46,0C272,243.69,271.65,243.79,271.62,243.75Z" transform="translate(6.36 -0.12)"/><path class="cls-6" d="M177.37,266.75a10.05,10.05,0,0,1-.44-3.64,19.27,19.27,0,0,1,.5-4.46,16.35,16.35,0,0,1,.91-2.75,11.66,11.66,0,0,1,1.73-2.88,7.92,7.92,0,0,1,3.09-2.35,9,9,0,0,1,4.23-.49c3,.33,5.78,1.67,8.67,3.07,5.77,2.86,12.3,6.24,19.24,10.5a157.44,157.44,0,0,1,21.5,15.7,154.64,154.64,0,0,1,20.95,22.3,184.85,184.85,0,0,1,18,28.59q4,7.86,7.36,16.3a80,80,0,0,1,5.28,17.84,44.71,44.71,0,0,1,.47,4.78,22.78,22.78,0,0,1-.29,4.92,11.16,11.16,0,0,1-1.93,4.91,6,6,0,0,1-5.3,2.48,13,13,0,0,1-4.91-1.41,44.46,44.46,0,0,1-4-2.25l-3.84-2.29c-1.28-.75-2.47-1.63-3.7-2.44a184.08,184.08,0,0,1-26.1-21.45,239.64,239.64,0,0,1-20.42-22.67l-2.23-2.76L214,323.52,210,318.1l-3.75-5.32c-1.22-1.74-2.42-3.43-3.52-5.14-2.21-3.4-4.39-6.59-6.26-9.73s-3.75-6-5.31-8.84-3.11-5.39-4.42-7.81l-3.53-6.67c-1.08-2-1.95-3.8-2.71-5.37l-1.89-4a15.49,15.49,0,0,1-1.38-3.37,15.31,15.31,0,0,1,2,3.07c.59,1,1.31,2.32,2.17,3.83s1.81,3.28,3,5.22,2.39,4.12,3.76,6.5,3,4.89,4.64,7.64,3.55,5.6,5.5,8.66,4.16,6.21,6.42,9.54c1.12,1.68,2.34,3.34,3.58,5l3.8,5.23,4.13,5.31,2.12,2.73,2.24,2.71a248.08,248.08,0,0,0,20.42,22.21,185.54,185.54,0,0,0,25.77,20.94c1.21.79,2.37,1.65,3.63,2.37l3.75,2.23c1.26.74,2.53,1.54,3.77,2.11a10.08,10.08,0,0,0,3.65,1.09,2.77,2.77,0,0,0,2.54-1.18,8.12,8.12,0,0,0,1.31-3.5,19.67,19.67,0,0,0,.23-4.23,38.85,38.85,0,0,0-.44-4.39,77,77,0,0,0-5.06-17.13c-2.2-5.54-4.61-10.9-7.19-16.06a185.25,185.25,0,0,0-17.54-28.2A154.57,154.57,0,0,0,235,281.51a160.12,160.12,0,0,0-20.93-15.78c-6.77-4.34-13.17-7.84-18.83-10.83-2.82-1.48-5.48-2.8-8-3.16a7.7,7.7,0,0,0-3.54.27,6.63,6.63,0,0,0-2.62,1.85,10.7,10.7,0,0,0-1.67,2.52,16.79,16.79,0,0,0-1,2.52,20.51,20.51,0,0,0-.78,4.24A34.08,34.08,0,0,1,177.37,266.75Z" transform="translate(6.36 -0.12)"/><path class="cls-6" d="M151.49,334c0,.06-.35-.05-1-.31a15.1,15.1,0,0,1-2.67-1.46,14,14,0,0,1-3.58-3.49,11,11,0,0,1-2.06-6.57,12,12,0,0,1,.81-4.1,15.41,15.41,0,0,1,2.33-3.95,26.12,26.12,0,0,1,3.5-3.47,40.31,40.31,0,0,1,4.33-3c6.27-3.69,14.14-6.36,23-8.1a213.65,213.65,0,0,1,29.25-3.15C216,295.83,227.18,295.3,239,295s24.32-.27,37.23.44q9.69.49,19.67,1.67c1.66.18,3.32.41,5,.64s3.34.45,5,.73a62.08,62.08,0,0,1,10.18,2.42,24.25,24.25,0,0,1,4.95,2.34,10.85,10.85,0,0,1,4,4.35,6.78,6.78,0,0,1,.67,3.25,6.14,6.14,0,0,1-1.15,3.2,10.7,10.7,0,0,1-4.73,3.46,53.84,53.84,0,0,1-9.89,2.56l-9.58,1.85c-12.68,2.39-25,4.35-36.7,6s-22.92,3-33.41,4-20.27,1.84-29.21,2.39c-17.88,1.15-32.38,1.49-42.4,1.53-5,0-8.9,0-11.53-.1a18,18,0,0,1-4-.28,18.59,18.59,0,0,1,4-.39l11.51-.53c10-.45,24.44-1.15,42.26-2.6,8.9-.69,18.65-1.65,29.09-2.79s21.57-2.59,33.26-4.31,23.91-3.74,36.53-6.16l9.54-1.88a51.43,51.43,0,0,0,9.24-2.38,7.56,7.56,0,0,0,3.29-2.3,2.84,2.84,0,0,0,.18-3.1c-1.08-2.33-4.06-3.88-7.07-4.95-6.16-2.1-13-2.77-19.48-3.64s-13.06-1.35-19.45-1.71c-12.8-.74-25.19-.8-37-.62s-23,.62-33.53,1.05a218.3,218.3,0,0,0-28.95,2.71c-8.7,1.55-16.42,4-22.51,7.39a37,37,0,0,0-4.19,2.74,24.57,24.57,0,0,0-3.35,3.13,13.9,13.9,0,0,0-2.21,3.47,10.42,10.42,0,0,0-.85,3.6,10.09,10.09,0,0,0,1.59,6,14.3,14.3,0,0,0,3.15,3.5,23.12,23.12,0,0,0,2.42,1.69C151.23,333.72,151.52,333.93,151.49,334Z" transform="translate(6.36 -0.12)"/><path class="cls-4" d="M189.46,232.28c-.42-.07-.45-2.08-.33-5.27s.38-7.57.56-12.41.25-9.22.35-12.41.29-5.2.71-5.23,1,1.91,1.41,5.12a80.67,80.67,0,0,1-.92,25.19C190.57,230.45,189.86,232.35,189.46,232.28Z" transform="translate(6.36 -0.12)"/><path class="cls-4" d="M202.29,228.91c-.1,0-.19-.32-.25-.89s-.15-1.41-.3-2.47a29.75,29.75,0,0,0-2.51-8.57,27.43,27.43,0,0,0-1.4-2.58c-.27-.43-.54-.87-.86-1.3-.15-.21-.3-.44-.46-.65l-.61-.79-1-1.24-.52-.63-.27-.32c-.09-.07,0-.08.08-.12l.18-.09,2.83-1.51c1.05-.58,2.11-1.2,3.13-1.88a15.46,15.46,0,0,0,5.17-5.19,8.19,8.19,0,0,0,.68-7,7.07,7.07,0,0,0-5.74-3.81,19.2,19.2,0,0,0-7.45.51,44.85,44.85,0,0,0-12.24,5.16,53.32,53.32,0,0,0-7.31,5.37c-1.63,1.42-2.53,2.25-2.7,2.1s.45-1.2,1.86-2.92a37.16,37.16,0,0,1,7-6.33,42.48,42.48,0,0,1,12.69-6.05,21.31,21.31,0,0,1,8.6-.75,11.75,11.75,0,0,1,4.59,1.58,8.93,8.93,0,0,1,3.46,3.92,9.59,9.59,0,0,1,.69,5.11A12.62,12.62,0,0,1,208,202.1a17.66,17.66,0,0,1-6.24,6.09c-1.14.72-2.29,1.33-3.4,1.89l-.17.09h0l0,0-.14,0s.06.13.09.21l0,0,.13.18.25.36c.17.25.32.5.48.74.32.49.59,1,.86,1.48a26.37,26.37,0,0,1,1.34,2.89,24.44,24.44,0,0,1,1.72,9.35,14,14,0,0,1-.26,2.56C202.51,228.63,202.4,228.92,202.29,228.91Z" transform="translate(6.36 -0.12)"/><path class="cls-4" d="M222.07,224.29c.07.08,0,.27-.3.58a4,4,0,0,1-1.5.9,6.15,6.15,0,0,1-2.81.27,7.5,7.5,0,0,1-3.51-1.42,7.63,7.63,0,0,1-2.65-3.88,10.12,10.12,0,0,1-.12-5.28,12,12,0,0,1,2.63-5.12,18.16,18.16,0,0,1,4.63-3.81,27.6,27.6,0,0,1,2.65-1.36,7.48,7.48,0,0,1,3.28-.74,4.33,4.33,0,0,1,3.38,1.77,3.38,3.38,0,0,1,.64,2.06,3.71,3.71,0,0,1-.64,1.9,6.41,6.41,0,0,1-2.34,1.93,17.44,17.44,0,0,1-2.28.94,15.69,15.69,0,0,1-4.29.75,14.62,14.62,0,0,1-1.89-.05l-.86-.1-.9-.17-1-.24-.87-.28-.75-.26-.16-.06-.09,0h0l0,0,.25-.32c1.34-1.61,2-2.15,2.13-2s-.1.83-.32,1.45l0,.11s.12,0,.18,0l.41,0a6.17,6.17,0,0,0,.74,0c.06,0,.38,0,.61,0l.77,0c.53,0,1.08-.07,1.65-.15a15.63,15.63,0,0,0,3.63-1c1.2-.51,2.68-1.25,3.15-2.05.19-.39.16-.52,0-.76a1.49,1.49,0,0,0-1.16-.51,4.73,4.73,0,0,0-2,.53,23.58,23.58,0,0,0-2.33,1.22,15.88,15.88,0,0,0-3.93,3.14,9.63,9.63,0,0,0-2.18,3.88,8.06,8.06,0,0,0-.16,3.94,5.71,5.71,0,0,0,1.6,2.9,6.32,6.32,0,0,0,2.49,1.42,6.18,6.18,0,0,0,2.21.23,7.12,7.12,0,0,0,1.46-.28C221.79,224.24,222,224.21,222.07,224.29Z" transform="translate(6.36 -0.12)"/><path class="cls-4" d="M244.07,222.94c-.43,0-.44-2.46-.71-6.29-.14-1.91-.37-4.18-.76-6.68-.2-1.24-.43-2.55-.73-3.89l-.11-.51-.06-.21h0s0,0,0,0h0l0,0-.28.47c-.19.31-.38.62-.56.93-.73,1.24-1.42,2.44-2.05,3.59-1.28,2.31-2.37,4.43-3.28,6.21-1.81,3.58-2.94,5.83-3.34,5.69s0-2.64,1.39-6.52a65.85,65.85,0,0,1,2.77-6.65c.59-1.22,1.24-2.49,2-3.78.18-.32.36-.65.55-1l.84-1.42,2.4-3.81.79-1.24c.37,1.41.74,2.81,1.11,4.18.18.68.35,1.36.5,2.06l.18.83.1.54c.27,1.42.45,2.81.58,4.13a42.23,42.23,0,0,1,.13,7C245.18,220.63,244.45,223,244.07,222.94Z" transform="translate(6.36 -0.12)"/><path class="cls-4" d="M242.81,215.62c.21.8-1.25,1.89-3.28,2.44s-3.84.36-4.06-.44,1.25-1.9,3.27-2.45S242.59,214.82,242.81,215.62Z" transform="translate(6.36 -0.12)"/><path class="cls-4" d="M266.22,217.9q.13.09,0,.48a2.73,2.73,0,0,1-.66,1,4.53,4.53,0,0,1-1.63,1,6.23,6.23,0,0,1-2.53.41,7.69,7.69,0,0,1-3-.78,6.91,6.91,0,0,1-2.8-2.48,8.69,8.69,0,0,1-1.26-3.82,10.74,10.74,0,0,1,.49-4.16,12.29,12.29,0,0,1,1.87-3.66,12.65,12.65,0,0,1,2.72-2.66,12,12,0,0,1,5.9-2.25,9.47,9.47,0,0,1,2.43.11,5.17,5.17,0,0,1,1,.25,4.37,4.37,0,0,1,.78.31,3.6,3.6,0,0,1,1,.63c.19.18.26.32.22.42s-.2.13-.46.13-.59,0-1-.06c-.22,0-.46,0-.72,0a4.71,4.71,0,0,0-.83,0,10.25,10.25,0,0,0-2,.3,12,12,0,0,0-4.55,2.35,11.09,11.09,0,0,0-2,2.19,10.59,10.59,0,0,0-1.4,2.84,8.85,8.85,0,0,0-.42,3.05,6.48,6.48,0,0,0,.71,2.62,5.49,5.49,0,0,0,3.67,2.56,6,6,0,0,0,1.86.09,5.27,5.27,0,0,0,1.39-.37C265.62,218.1,266,217.77,266.22,217.9Z" transform="translate(6.36 -0.12)"/><path class="cls-4" d="M294.13,194.87c0,.32-1.83.86-5.05,1.52-1.61.33-3.55.69-5.76,1.06l-3.5.57-.94.15-.23,0h-.06s-.09,0-.09.06l.12.09.61.91.63,1.12.57,1.19c.16.41.34.81.49,1.23a20.38,20.38,0,0,1,.73,2.6c.08.43.18.85.23,1.28s.12.85.14,1.27.07.85.06,1.27,0,.84,0,1.25-.05.83-.11,1.23-.1.81-.18,1.21a20.9,20.9,0,0,1-.58,2.3l-2.68-.93a52.73,52.73,0,0,0,3.36-12.76c.45-3.26.56-5.25.91-5.26.16,0,.35.47.52,1.39a23.43,23.43,0,0,1,.32,4,39.35,39.35,0,0,1-2.47,13.67l-2.67-.93c.17-.64.32-1.29.43-2,.06-.34.08-.68.13-1s0-.7.06-1,0-.71,0-1.07,0-.71-.06-1.07-.09-.73-.13-1.09-.13-.72-.19-1.09a20.18,20.18,0,0,0-.62-2.22l-.4-1.06c-.16-.34-.31-.68-.47-1s-.35-.65-.52-1l-.29-.46-.14-.23-.07-.11a2.28,2.28,0,0,0-.18-.26q-1.48-1.9-2.94-3.59l3.84-.45,2.55-.28,3.54-.32c2.23-.2,4.2-.34,5.84-.42C292.14,194.5,294.09,194.55,294.13,194.87Z" transform="translate(6.36 -0.12)"/><path class="cls-4" d="M319.52,65.57c.57-.6,1.34-.79,1.72-.43s.21,1.14-.36,1.74-1.35.78-1.72.42S318.94,66.17,319.52,65.57Z" transform="translate(6.36 -0.12)"/><path class="cls-4" d="M325.66,78.25c.09.07,0,.31-.07.7a3.92,3.92,0,0,0,0,1.67,4.62,4.62,0,0,0,1.17,2.25,3.9,3.9,0,0,0,2.85,1.28A6.55,6.55,0,0,0,333.4,83a11,11,0,0,0,3.27-3.63c.94-1.54,1.76-3.38,2.69-5.29l2.87-5.88c1.19-2.37,2.35-4.68,3.45-6.89.56-1.09,1.11-2.17,1.65-3.21l.4-.78,0-.07h0l0,0,.11-.16-.2-.05c.09,0-.39,0-.69-.09s-.66-.09-1-.15a16.69,16.69,0,0,1-3.5-1.05,16.77,16.77,0,0,1-5-3.15A13.27,13.27,0,0,1,336.09,51a10.09,10.09,0,0,1-.92-1.31c-.43-.76-.57-1.22-.45-1.3s.5.21,1.1.77c.32.27.68.62,1.15,1a15.83,15.83,0,0,0,1.6,1.2,17,17,0,0,0,2.11,1.25,18.38,18.38,0,0,0,2.64,1.07,15.65,15.65,0,0,0,3.12.69,8,8,0,0,0,.84.08,8.06,8.06,0,0,0,1.19,0c1.23,0,2.49-.09,3.8-.16-1.25,2.61-2.58,5.4-4,8.33l-3.38,6.92L342,75.36a56.83,56.83,0,0,1-3,5.48,12.9,12.9,0,0,1-4.31,4.26,8.53,8.53,0,0,1-5.32,1.16,6.09,6.09,0,0,1-2.36-.82,5.63,5.63,0,0,1-2.61-4.75,3.33,3.33,0,0,1,.65-2C325.35,78.31,325.59,78.2,325.66,78.25Z" transform="translate(6.36 -0.12)"/><path class="cls-4" d="M345.15,79.46c.15-.14.65.16,1.43.75a12.05,12.05,0,0,0,3.25,1.94,4.1,4.1,0,0,0,2.18.11,2.19,2.19,0,0,0,1.59-1.17,3.42,3.42,0,0,0-.16-2.46c-.35-1-.95-2.17-1.43-3.62a11.65,11.65,0,0,1-.6-4.38,8.87,8.87,0,0,1,.42-2.17,7.22,7.22,0,0,1,1-1.94A6.86,6.86,0,0,1,355.93,64a5.12,5.12,0,0,1,3.59-.1,4.93,4.93,0,0,1,2.29,1.71,4.11,4.11,0,0,1,.8,1.95,2.49,2.49,0,0,1-.17,1.3c-.14.27-.27.38-.37.36s-.17-.19-.23-.42a5.09,5.09,0,0,0-.36-.94,4,4,0,0,0-.92-1.14,3.65,3.65,0,0,0-1.64-.79,3.2,3.2,0,0,0-2,.35,4.69,4.69,0,0,0-1.81,1.74,5.42,5.42,0,0,0-.76,2.73,9.5,9.5,0,0,0,.51,3.29c.34,1.09,1,2.3,1.38,3.65a8.18,8.18,0,0,1,.38,2.22,4.78,4.78,0,0,1-.56,2.39,4.26,4.26,0,0,1-1.67,1.72,5.24,5.24,0,0,1-2,.65A6,6,0,0,1,349,84.1a8,8,0,0,1-2.1-1.62A10.94,10.94,0,0,1,345.72,81C345.18,80.14,345,79.6,345.15,79.46Z" transform="translate(6.36 -0.12)"/><path class="cls-4" d="M294,210.89c-.32-.12-.4-.85-.25-2l.08-.63,1,.05a4.16,4.16,0,0,1,3.7,4.51,3.59,3.59,0,0,1-.48,1.46,3.78,3.78,0,0,1-1.06,1.15,4.23,4.23,0,0,1-2.39.78,3.42,3.42,0,0,1-2.38-.9,2.89,2.89,0,0,1-.93-2.21,3.25,3.25,0,0,1,.55-1.72,2.48,2.48,0,0,1,2.14-1.2c.62.08.81.41.76.58s-.32.34-.52.57a1.91,1.91,0,0,0-.48,1,1.19,1.19,0,0,0,0,.63.34.34,0,0,0,.25.24.9.9,0,0,0,.5.06,1.69,1.69,0,0,0,.72-.28,1.12,1.12,0,0,0,.27-.26.84.84,0,0,0,.13-.3,1.71,1.71,0,0,0-.07-.88,3,3,0,0,0-.5-.86,3.24,3.24,0,0,0-.67-.58l1.08-.57C294.81,210.51,294.28,211,294,210.89Z" transform="translate(6.36 -0.12)"/><path class="cls-4" d="M304.58,222.5c.1.05.07.29.12.67a2.55,2.55,0,0,0,.69,1.41,2.35,2.35,0,0,0,2.07.78,4,4,0,0,0,2.58-1.71,11.3,11.3,0,0,0,1.47-4.07c.37-1.69.77-3.5,1.18-5.41.86-3.8,1.84-8,2.91-12.36.65-2.55,1.27-5,1.87-7.4.3-1.19.61-2.35.9-3.48l.11-.41v0l0-.07a1.07,1.07,0,0,0,.07-.19l-.18,0h-.06c-.05,0,0,0-.19,0s-.63.18-.94.26a24.61,24.61,0,0,1-3.55.69,25.94,25.94,0,0,1-3.18.21,24.66,24.66,0,0,1-2.7-.14,19.74,19.74,0,0,1-2.15-.35,14,14,0,0,1-1.55-.41c-.83-.29-1.25-.53-1.21-.67s.51-.18,1.35-.17l1.55,0q.91,0,2.07,0c.77,0,1.62-.08,2.53-.18a28.56,28.56,0,0,0,2.92-.48,27.76,27.76,0,0,0,3.22-.87c.28-.09.56-.18.83-.29l.71-.26c.27-.11.56-.22.84-.36l3.56-1.58c-.68,2.95-1.41,6.09-2.17,9.38-.57,2.38-1.17,4.87-1.78,7.43-1.08,4.37-2.14,8.53-3.14,12.3-.52,1.89-1,3.68-1.46,5.36A12.4,12.4,0,0,1,311.7,225a5.58,5.58,0,0,1-4.17,2.06,3.59,3.59,0,0,1-2-.57,3.74,3.74,0,0,1-1.13-1.2,2.69,2.69,0,0,1-.34-2.16C304.27,222.62,304.5,222.46,304.58,222.5Z" transform="translate(6.36 -0.12)"/><path class="cls-4" d="M322.2,216.86c0-.2.85-.21,2.23-.12a20.51,20.51,0,0,0,5.6-.16,8,8,0,0,0,3.19-1.47,4.72,4.72,0,0,0,1.86-3,5.81,5.81,0,0,0-1.08-3.9,16.18,16.18,0,0,0-3.47-3.69,41.19,41.19,0,0,1-4.29-3.82,10.52,10.52,0,0,1-2.75-5.2,8.85,8.85,0,0,1,.77-5.36,8.21,8.21,0,0,1,3.14-3.45,7.89,7.89,0,0,1,3.61-1.11,7.45,7.45,0,0,1,2.75.33c1.45.49,2,1.14,1.92,1.3s-.85-.07-2.14-.16a8.88,8.88,0,0,0-2.31.19,7.13,7.13,0,0,0-2.66,1.22,6.27,6.27,0,0,0-2,2.71,6.49,6.49,0,0,0-.33,3.79,8.07,8.07,0,0,0,2.2,3.74,46.54,46.54,0,0,0,4,3.51,18.06,18.06,0,0,1,4.05,4.44,8.4,8.4,0,0,1,1.32,5.93,7.18,7.18,0,0,1-3.14,4.59,9.69,9.69,0,0,1-4.32,1.55,13.29,13.29,0,0,1-3.59-.15,18.44,18.44,0,0,1-2.55-.64C322.86,217.44,322.16,217.06,322.2,216.86Z" transform="translate(6.36 -0.12)"/></svg>