<svg id="logo_html_y_css" data-name="logo html y css" xmlns="http://www.w3.org/2000/svg" viewBox="0 0 293.11 289"><defs><style>.cls-1{fill:#f97e03;}.cls-2{fill:#062ef7;}.cls-3,.cls-4{fill:#fff;}.cls-4{stroke:#000;stroke-miterlimit:10;}</style></defs><title>html+css</title><path class="cls-1" d="M176.14,91.62c-11.36-43.5-43.15-72.34-74-72-38.24.42-63,45.55-70,72-17.63,66.44,40.28,151.9,143,217Q175.64,200.11,176.14,91.62Z" transform="translate(-29 -19.61)"/><path class="cls-2" d="M176.14,91.62c10.85-42.38,41.64-70.88,72-71,38.75-.16,64,46,71,73,17.15,66.26-41,151.07-144,215Q175.64,200.11,176.14,91.62Z" transform="translate(-29 -19.61)"/><path class="cls-3" d="M164.14,279.62c-1-39.67-7-107.34-8-147-26.67.33-52.33,1.66-79,2-.79-.46-14-1-14-13,0-14,7.53-17.72,9-19,27-.34,58,1.33,85,1v-22c-28,.33-67-.34-95,0-20.41,8.6-22.81,29.35-23,51-.17,19.68,6,28,26,31,22-.34,70-6,68,16v41c-14.67-6.67-45.33-33.34-60-40-4.67,3.66-8.33,8.33-13,12C88.14,230.62,126.14,260.62,164.14,279.62Z" transform="translate(-29 -19.61)"/><path class="cls-4" d="M62.14,68.62v-25h7v10h7v-10h6v25h-6v-8h-7v8Z" transform="translate(-29 -19.61)"/><path class="cls-4" d="M87.14,43.62v5h6v19h5v-19h6v-5Z" transform="translate(-29 -19.61)"/><path class="cls-4" d="M107.14,67.62q.49-12,1-24h6l3,8,3-8h6v24h-6v-14l-3,7c-1.33-2.34-2.67-4.67-4-7v14Z" transform="translate(-29 -19.61)"/><path class="cls-4" d="M132.14,43.62v23h14v-8h-8v-15Z" transform="translate(-29 -19.61)"/><path class="cls-4" d="M228.64,55.12c-1.17-4.95-4.86-8.59-9-9-7.1-.71-10.81,8.51-11,9s-3.27,8.84,2,14a11.33,11.33,0,0,0,8,3,12,12,0,0,0,9-5l-8-3h0c-2.9.25-5.42-.51-6-2s1.07-3.66,3-6c1.22-1.49,2.05-1.77,2.83-2.87a.34.34,0,0,1,.17-.13c.82-.24,1.82,4.37,4,5C224.56,58.38,226.08,58,228.64,55.12Z" transform="translate(-29 -19.61)"/><path class="cls-4" d="M253.64,51.12a8.16,8.16,0,0,0-5-8,8,8,0,0,0-7,1c-3.42,2.35-4.51,7.19-3,10s4.93,2.15,6,5c.9,2.39-.45,5.67-2,6-1.73.36-2.75-3.1-5-3s-4.71,3.66-4,6c.89,2.95,6.8,3.86,11,3,6.55-1.35,12.14-7.68,11-11-1-3-6.95-1.9-10-7-1-1.65-1.5-3.65-1-4s1.72,1.26,4,2A8.81,8.81,0,0,0,253.64,51.12Z" transform="translate(-29 -19.61)"/><path class="cls-4" d="M280.64,51.12a8.16,8.16,0,0,0-5-8,8,8,0,0,0-7,1c-3.42,2.35-4.51,7.19-3,10s4.93,2.15,6,5c.9,2.39-.45,5.67-2,6-1.73.36-2.75-3.1-5-3s-4.71,3.66-4,6c.89,2.95,6.8,3.86,11,3,6.55-1.35,12.14-7.68,11-11-1-3-6.95-1.9-10-7-1-1.65-1.5-3.65-1-4s1.72,1.26,4,2A8.81,8.81,0,0,0,280.64,51.12Z" transform="translate(-29 -19.61)"/><path class="cls-3" d="M193.14,84.62c-5.31,26.45-3.58,33-1,34,3,1.19,6.73-5,21-14,13.74-8.7,18-7.88,20-7,4,1.73,5.66,6.27,7,10,.82,2.31,4.34,12.12-1,21-4.6,7.65-12.85,9.71-18,11a38,38,0,0,1-12,1c-5.4,9.3-3.57,19.28,2,23,4.13,2.75,9.4,1.46,11,1,2.05-.63,9.31-2.64,13,1,1.84,1.82,1.79,4.07,2,11,.52,17.68,1.27,18,0,21-3.22,7.65-10.24,11.15-12,12-2.12,1-9,4.31-16,2-6.42-2.11-7.39-7.05-11-7-3,0-7.18,3.63-12,19,1.81,3.52,3.8,44.05,14,49,8.87,4.3,23-9,33-19,3.6-3.61,17.72-12.47,32-29,11.45-13.26,19.1-35.47,10-55-5.55-11.91-15.2-18.29-20-21,2.84-3.85,6.6-9,11-15,8.18-11.25,9.12-12.72,10-15,3-7.71,3.19-19-2-27-8.09-12.53-26.36-12.78-43-13A114.47,114.47,0,0,0,193.14,84.62Z" transform="translate(-29 -19.61)"/><path d="M181.36,122.28c2.48.2,2.8,20.37.72,45s-5.77,44.49-8.24,44.28-2.8-20.37-.72-45S178.89,122.07,181.36,122.28Z" transform="translate(-29 -19.61)"/><path d="M212.26,155c.19.25.17.63,0,1.14A7.7,7.7,0,0,1,211,158a21,21,0,0,1-2.41,2.37A34.5,34.5,0,0,1,205,163a43,43,0,0,1-4.73,2.59,53.83,53.83,0,0,1-5.73,2.29,60.2,60.2,0,0,1-6.56,1.79c-2.3.49-4.7.88-7.16,1.16a89.35,89.35,0,0,1-24.86-1c-6.2-1.15-9.93-2.56-9.85-3.79s4-2.08,10.18-2.56,14.58-.67,23.56-1.62q3.36-.37,6.5-.87c2.08-.32,4.07-.72,6-1.12s3.67-.85,5.34-1.29,3.21-.9,4.62-1.35,2.69-.87,3.83-1.24,2.14-.69,3-.92a10.08,10.08,0,0,1,2.09-.4A1.24,1.24,0,0,1,212.26,155Z" transform="translate(-29 -19.61)"/></svg>