<svg id="js_logo" data-name="js logo" xmlns="http://www.w3.org/2000/svg" viewBox="0 0 337.84 368.96"><defs><style>.cls-1{fill:#e8e800;}</style></defs><title>Js-logo</title><path class="cls-1" d="M28.26,66C23.94,51.24,31.38,34,45,27c8.85-4.52,19.18-4.85,29.12-5.06q111.15-2.34,222.33.43c15,.38,31.67,1.58,41.72,12.67,9,9.87,9.7,24.47,10,37.8q2.6,132.29,5.21,264.58c.29,14.8-.08,31.35-10.53,41.84-10.66,10.71-27.63,10.92-42.73,10.43L52,381.63c-8.82-.28-18.27-.78-25.31-6.1C15.57,367.15,15.16,351,15.8,337.07,20,246.31,22.61,156.3,28.14,65.62" transform="translate(-15.61 -20.84)"/><path d="M100.21,180.3l8.73-43.94a222.46,222.46,0,0,0,73.55,3.34c-2.94,46.58-5.88,93.44-.84,139.84,2,18.18,4.49,38.77-7.33,52.73-8,9.41-20.62,13.26-32.72,15.56-10.95,2.07-22.8,3.15-32.79-1.8-12-6-18.56-19.29-22.19-32.24s-5.35-26.65-11.76-38.47a189.74,189.74,0,0,0,31.35-19c2.13,5.9,2.17,12.31,2.63,18.57s1.45,12.77,5.12,17.86,10.73,8.22,16.43,5.59c6.82-3.15,8.23-12,8.72-19.54l8-120.49-21.5.71,2.51,25.67a50.19,50.19,0,0,0-27.27-4.37" transform="translate(-15.61 -20.84)"/><path d="M301.88,173c1.3-6.54-2.48-13.25-7.75-17.34s-11.83-6.07-18.22-8c-10.4-3.11-21-6.24-31.8-6.55s-22.23,2.57-30.1,10c-10.46,10-12.69,25.73-12.42,40.16.19,10.23,1.81,21.44,9.4,28.3s18.85,7.33,29,9,21.59,6.55,23.75,16.6c1.82,8.46-4.54,17.23-12.74,20s-17.43.47-24.8-4.06-13.25-11.07-19-17.53a142.73,142.73,0,0,0-12.85,49.15c4,.91,4.66,6.26,5.08,10.39,1.87,18.71,18.46,34.1,37,37.24s37.91-4.66,51.33-17.82,21.39-31.13,25.32-49.52c3-14,3.76-28.84-1-42.31s-15.87-25.28-29.89-28c-7.15-1.4-14.59-.44-21.75-1.79s-14.6-6.14-15.32-13.38c-.62-6.2,4.82-12.32,11-12.43s11.89,5.8,11.49,12l37.12-.81A25.38,25.38,0,0,1,302,170.26" transform="translate(-15.61 -20.84)"/></svg>