<svg id="Capa_4" data-name="Capa 4" xmlns="http://www.w3.org/2000/svg" viewBox="0 0 386 417"><defs><style>.cls-1{fill:#000782;}.cls-2{fill:#0660ff;}.cls-3{fill:#001291;}.cls-4{fill:#3f0000;}.cls-5{fill:#ffa608;}</style></defs><title>psyai logos</title><rect width="386" height="417"/><path class="cls-1" d="M291.75,382.58c-34.3-8.72-68.2-19-101.7-30.41-8.26-2.82-17.32-6.43-21-14.33-4.56-9.71,1.08-20.89,6.21-30.32a405.35,405.35,0,0,0,39.2-104c1.59-7,3-14.12,6.18-20.56s8.38-12.23,15.23-14.36c8-2.51,16.69.36,24.63,3.21l97.69,35c4.07,1.45,8.56,3.3,10.27,7.27a11.61,11.61,0,0,1,.73,7C358.38,269.47,341.7,309.32,332,353.14c-2.19,9.95-4.19,18.76-12.39,24.79s-15.5,7.75-27.9,4.65" transform="translate(-0.14 0.38)"/><path class="cls-2" d="M292.37,380.34q-32.73-8.35-65-18.43-15.66-4.89-31.22-10.13C187.83,349,177,346.42,172,338.46c-6.31-10.07,1.25-22.37,6.08-31.38s9.47-18.43,13.66-27.9A408.17,408.17,0,0,0,212.47,221c2.77-10.18,4.45-20.75,7.73-30.77,3.16-9.65,9.79-19.53,20.89-20.22s22.76,5.48,32.85,9.09l32.88,11.78,31.94,11.45,16,5.72c5.65,2,12.58,3.95,12.26,11.31-.22,5.22-2.33,10.88-3.61,15.94q-2.06,8.08-4.33,16.12c-2.76,9.8-5.73,19.53-8.75,29.25-6.71,21.58-13.7,43.09-18.94,65.09-2.21,9.25-3.21,20.44-10.06,27.66-7.9,8.32-18.27,9.47-28.93,6.95-2.91-.69-4.15,3.79-1.23,4.48,8.57,2,17.09,2.4,25.05-1.91a31.65,31.65,0,0,0,15.37-18.53c3.34-10,5-20.67,7.7-30.87,3-11.15,6.35-22.2,9.78-33.23,6.95-22.37,14.13-44.68,19.74-67.44,2.1-8.51,6.06-19-2.82-25-3.8-2.57-8.56-3.81-12.82-5.33l-19.72-7.07c-24.68-8.84-49.28-17.94-74-26.52-9.25-3.21-19.53-5.76-28.62-.67-8.31,4.65-12.94,13.59-15.58,22.4-3.38,11.3-5.41,23-8.66,34.35s-7.06,22.7-11.32,33.79q-6.8,17.63-15.23,34.57c-4.87,9.78-11.65,19.45-14.13,30.21-5.91,25.64,24.91,31.39,42.82,37.23q40.85,13.31,82.48,24c2.9.74,4.13-3.74,1.23-4.48Z" transform="translate(-0.14 0.38)"/><path class="cls-2" d="M195.69,323.7c6.57,2.84,16,5,22.58,7.86a448.74,448.74,0,0,0,23.81-58.74c11.67,5.6,26.51,5.09,36.81-2.76s14.59-23.29,8.38-34.65c-4.4-8.07-12.94-13-21.52-16.33s-17.68-5.44-25.73-9.89c-9.33,18.5-18.7,37.1-25.05,56.83-5.85,18.18-9.2,37.45-18.78,54,.7.29-1.2,3.41-.5,3.7" transform="translate(-0.14 0.38)"/><path class="cls-2" d="M253,318.28l11.39-4.95c-3.21,5.68.77,14,7.21,15.06s12.88-5.54,11.66-11.95c-1.25-6.57-8.43-10.41-10.8-16.66s1-13.62,6.68-16.87,13.18-2.58,18.83.81,9.58,9.16,11.74,15.38a8.16,8.16,0,0,1-10.82,2.38c-2.15-1.37-4.43-3.9-6.68-2.71-1.47.78-1.78,2.83-1.22,4.38a17.3,17.3,0,0,0,2.73,4.11c6.3,8.57,3.53,21-2.45,29.79-3.25,4.79-7.58,9.15-13.09,10.93-7.41,2.39-16-.56-21.05-6.48s-6.69-14.34-5.11-22" transform="translate(-0.14 0.38)"/><path class="cls-3" d="M253,236.41l-4.62,12a1.63,1.63,0,0,0-.13,1.27,1.67,1.67,0,0,0,1.24.72,19.8,19.8,0,0,0,7.63.73c2.53-.42,5-2.1,5.64-4.6.54-2.27-.6-4.65-2.18-6.37a13.07,13.07,0,0,0-7-3.94" transform="translate(-0.14 0.38)"/><path class="cls-4" d="M181.41,230.5c-30.34,14.5-61.33,27.62-92.71,39.67-7.74,3-16.54,5.85-24,2.34-9.24-4.32-11.93-15.9-13.92-25.9a385,385,0,0,0-34.67-99.74c-3.1-6.07-6.39-12.14-8-18.76s-1.33-14,2.37-19.75c4.35-6.72,12.4-9.88,19.92-12.64l92.57-33.88c3.85-1.41,8.25-2.8,11.92-.94a11,11,0,0,1,4.78,4.66c21.59,41.88,33.66,81.11,53.26,119,4.45,8.59,8.36,16.24,6,25.63s-6.59,15.08-17.52,20.36" transform="translate(-0.14 0.38)"/><path class="cls-5" d="M180.29,228.59q-29.5,14.08-59.74,26.54Q105.76,261.24,90.82,267C82,270.42,70.23,275.5,62,268.08c-5.69-5.09-7.36-13.6-8.83-20.75-2.06-10-4.31-19.9-7.06-29.72A389.08,389.08,0,0,0,26.26,163c-4-8.95-8.82-17.52-12.85-26.46-4.18-9.25-6.81-21.31.89-29.55,6.49-7,17.29-9.41,25.9-12.57L69.83,83.62l30.54-11.18L115.18,67c4.68-1.71,10.22-4.74,15.3-4.81,6.32-.08,8.48,6.82,10.81,11.52q3.63,7.35,7,14.83c4.44,9.69,8.63,19.5,12.72,29.35,8.34,20,16.36,40.21,25.9,59.7,4.83,9.86,12.49,20.43,9.85,31.94-2.15,9.36-8.14,14.87-16.51,19-2.54,1.27-.31,5.08,2.23,3.81,7-3.47,13.12-8,16.38-15.28,3.77-8.42,3.51-16.89,0-25.34-4.08-9.7-9.44-18.91-13.81-28.51-4.73-10.39-9.14-20.92-13.51-31.47-8.89-21.5-17.71-43-28.2-63.82-4.09-8.1-9.58-11.91-18.78-9-11.37,3.56-22.5,8.19-33.69,12.28C68.5,79.42,45.48,86.68,23.57,96c-8.06,3.43-15.35,8.59-17.75,17.45s.38,18,4.14,26.12c4.65,10,9.92,19.72,14.33,29.87q7.17,16.49,12.74,33.6,5.38,16.5,9.27,33.43c2,8.75,3,18.08,6.77,26.32s10.82,13.85,20.24,13.5c11.93-.45,24-7.08,34.94-11.43q37.63-15.08,74.27-32.47c2.56-1.22.33-5-2.23-3.81Z" transform="translate(-0.14 0.38)"/><path class="cls-4" d="M64.21,147.43,68.13,159a1.6,1.6,0,0,0,.68,1,1.58,1.58,0,0,0,1.35-.23,18.8,18.8,0,0,0,6-4.11c1.59-1.85,2.4-4.59,1.32-6.78-1-2-3.26-3-5.47-3.33a12.53,12.53,0,0,0-7.48,1.36" transform="translate(-0.14 0.38)"/><path class="cls-5" d="M65.17,233.59q-3.15-48-9.76-95.67c9.08-3.72,9.32-3.59,18.39-7.31,18.7,25.3,45,47.67,61.06,74.7l-25.63,8-8.37-11.21-18,6.45L85.67,225,65.4,234" transform="translate(-0.14 0.38)"/><path class="cls-4" d="M78.61,195.86l.17-31.26a73.32,73.32,0,0,0,16.06,18.82c.6.5,1.28,1.16,1.13,1.93a2.19,2.19,0,0,1-.85,1.13,51.81,51.81,0,0,1-16.31,9.16" transform="translate(-0.14 0.38)"/><path class="cls-5" d="M133.8,153.14,147.57,149l15.32,38.19c.69,1.7,1.38,3.57.86,5.32-.71,2.4-3.36,3.61-5.81,4.14s-5.08.7-7.08,2.19a479.08,479.08,0,0,1-18.59-45" transform="translate(-0.14 0.38)"/><path class="cls-5" d="M131.05,120c-3.09,1.8-5.73,4.67-6.45,8.17s.88,7.58,4.16,9c4.25,1.85,9.59-1.87,10-6.48s-3.4-9-7.94-10" transform="translate(-0.14 0.38)"/></svg>