<svg id="python_logo" data-name="python logo" xmlns="http://www.w3.org/2000/svg" viewBox="0 0 386 417"><defs><style>.cls-1{fill:#fff;}.cls-2{fill:#004acc;}.cls-3{fill:#e0da0a;}</style></defs><title>python logo</title><rect class="cls-1" width="386" height="417"/><path class="cls-2" d="M101,157.73c-.09-25.14,16.38-49.55,39.74-58.86s52.1-2.94,69.34,15.36c23.35,24.81,22.93,63,21.08,97-.55,10.06-1.63,21.27-9.2,27.92-12.64,11.11-32.54,1.68-49.05,5-16,3.17-27.2,18.54-30.58,34.45S141.83,311,144.73,327c-23.16,18.81-60.38,13.54-81.16-7.88s-25.95-54.9-17.76-83.6c4.17-14.61,11.77-28.69,23.79-38,20.21-15.63,48.18-15,73.68-13.56,8.58.48,17.39,1,25.58-1.67s15.73-9.05,17.09-17.54a597.21,597.21,0,0,1-83.6-3.89" transform="translate(-0.14 -0.62)"/><path class="cls-2" d="M102.35,160.85a9,9,0,0,1,2.25,0l6.54.51c5.75.44,14.23,1.13,25.16,1.65s24.33.93,39.87.71l5.92-.12,1.7,0c.8,0,1.63,0,2.4,0h1.19a8.85,8.85,0,0,1-.2,1.14c-.17.8-.3,1.58-.53,2.37l-.31,1c-.09.26-.2.52-.3.78a12.29,12.29,0,0,1-.68,1.53,14.23,14.23,0,0,1-.8,1.49,15.08,15.08,0,0,1-.93,1.42,25.46,25.46,0,0,1-4.7,5,31.27,31.27,0,0,1-12.71,6.08,59.87,59.87,0,0,1-14.58,1.33c-5-.07-10-.44-15.07-.63s-10.32-.35-15.63-.26a150.61,150.61,0,0,0-16.14,1.07,88.55,88.55,0,0,0-16.24,3.62,56.69,56.69,0,0,0-28,19.58c-7.24,9.5-12.12,21.25-14.63,33.69-.28,1.56-.64,3.12-.85,4.7s-.42,3.17-.62,4.77-.24,3.21-.35,4.82-.07,3.24-.11,4.87a92.71,92.71,0,0,0,2.11,19.55,81.28,81.28,0,0,0,6.62,18.89,68.94,68.94,0,0,0,11.64,16.65,63.49,63.49,0,0,0,36.41,18.7,60.56,60.56,0,0,0,21.18-.42,49.68,49.68,0,0,0,19.5-8.45l1-.78-.32-1.77-1-5.53c-.61-3.68-1.17-7.38-1.6-11.09a100.48,100.48,0,0,1-.41-22.4,56.65,56.65,0,0,1,6.32-21.38,50.69,50.69,0,0,1,6.28-9.2,40,40,0,0,1,8.31-7.38,35,35,0,0,1,10.1-4.63,39.93,39.93,0,0,1,10.84-1.32c7.14,0,14,1.11,20.58,1.35a41.27,41.27,0,0,0,9.62-.59,20.28,20.28,0,0,0,8.34-3.59,19.81,19.81,0,0,0,3.22-3.12,20.85,20.85,0,0,0,2.42-3.81,33.19,33.19,0,0,0,2.8-8.79c1.14-6.14,1.24-12.56,1.61-18.85s.45-12.48.46-18.57c-.12-12.18-.92-24-3.55-35.08l-.48-2.06-.24-1-.3-1q-.62-2-1.2-4a18.9,18.9,0,0,0-.68-2l-.73-1.94c-.5-1.28-.91-2.59-1.53-3.81s-1.15-2.46-1.72-3.68-1.31-2.34-1.94-3.51a65.13,65.13,0,0,0-4.33-6.63c-.19-.26-.36-.54-.56-.8l-.64-.74L211,117.69l-1.25-1.48a15.87,15.87,0,0,0-1.29-1.42l-2.71-2.67-2.88-2.43A64.86,64.86,0,0,0,190.39,102a65.3,65.3,0,0,0-26.5-6c-1.09,0-2.16,0-3.22.06l-1.6,0-1.57.16-3.11.32-3,.53c-.5.09-1,.17-1.49.27l-1.47.38-2.89.75-2.77.95-1.37.47c-.46.16-.88.38-1.32.56a61.51,61.51,0,0,0-17.83,11.51A66.21,66.21,0,0,0,102,149c-.21,1.42-.39,2.68-.54,3.75s-.16,2-.23,2.74a9.05,9.05,0,0,1-.29,2.22,9.1,9.1,0,0,1-.12-2.24c0-.74,0-1.67,0-2.77s.22-2.37.35-3.81A63,63,0,0,1,109.49,125a65.72,65.72,0,0,1,11.4-14.47,63,63,0,0,1,18.26-12.18c.46-.2.9-.43,1.37-.6l1.42-.51,2.88-1,3-.81,1.52-.41c.51-.11,1-.2,1.55-.3l3.15-.6,3.23-.37,1.64-.18,1.66-.06c1.11,0,2.22-.1,3.35-.11a67.92,67.92,0,0,1,27.68,6,68,68,0,0,1,13.12,8l3,2.53,2.88,2.79a17.52,17.52,0,0,1,1.37,1.49l1.32,1.53,1.33,1.55.67.77c.21.27.4.55.6.83a68.21,68.21,0,0,1,4.58,6.9c.68,1.22,1.46,2.39,2.06,3.66l1.81,3.83a41.47,41.47,0,0,1,1.63,3.95l.77,2a20.49,20.49,0,0,1,.71,2c.42,1.38.85,2.76,1.27,4.15l.32,1,.26,1.06.51,2.13c2.78,11.39,3.66,23.48,3.84,35.82q0,9.27-.38,18.77c-.34,6.3-.4,12.74-1.59,19.36a36.5,36.5,0,0,1-3.09,9.79,22.78,22.78,0,0,1-6.72,8.29,24,24,0,0,1-9.87,4.31,45,45,0,0,1-10.52.7c-6.94-.25-13.72-1.32-20.43-1.3a36.38,36.38,0,0,0-9.81,1.2,31.55,31.55,0,0,0-8.94,4.13,41.52,41.52,0,0,0-13.26,15.16,52.64,52.64,0,0,0-5.84,19.93,96.87,96.87,0,0,0,.42,21.5c.42,3.62,1,7.25,1.57,10.9.32,1.82.64,3.65,1,5.47l.68,3.74c.28.53-.33.72-.66,1l-1.1.84-1.22.93a53.76,53.76,0,0,1-21.08,9.15,64.52,64.52,0,0,1-22.59.43,67.38,67.38,0,0,1-38.68-20,72.35,72.35,0,0,1-12.26-17.61,84.2,84.2,0,0,1-6.89-19.82A95.46,95.46,0,0,1,40.24,262c0-1.69,0-3.38.13-5s.25-3.35.38-5l.66-4.95c.23-1.65.61-3.26.9-4.89s.74-3.21,1.14-4.8l.61-2.38.71-2.34q1.48-4.67,3.39-9.11A76.49,76.49,0,0,1,57.78,207a65.41,65.41,0,0,1,6.29-7,56.11,56.11,0,0,1,7.24-5.78,64.36,64.36,0,0,1,16.2-7.83,92.11,92.11,0,0,1,16.89-3.65,150.21,150.21,0,0,1,16.5-1c5.4-.06,10.67.12,15.8.38s10.16.65,15,.77a57.67,57.67,0,0,0,13.92-1.12,28.73,28.73,0,0,0,11.7-5.44,22.74,22.74,0,0,0,4.29-4.43,10.42,10.42,0,0,0,.83-1.25,10.94,10.94,0,0,0,.73-1.29,12.31,12.31,0,0,0,.61-1.34c.09-.23.19-.45.27-.68l.14-.46a5.25,5.25,0,0,0,.17-.6c0-.1.05-.22.06-.3h-.31l-2,0-6,0c-15.6,0-29-.61-40-1.39s-19.42-1.71-25.15-2.42c-2.87-.36-5-.67-6.51-.91A9.29,9.29,0,0,1,102.35,160.85Z" transform="translate(-0.14 -0.62)"/><path class="cls-3" d="M282.13,346.54c-.58,25.14-17.71,49.09-41.3,57.77s-52.17,1.54-68.91-17.22c-22.67-25.42-21.22-63.57-18.46-97.52.82-10,2.2-21.21,9.94-27.66,12.95-10.77,32.58-.81,49.18-3.64,16-2.74,27.68-17.81,31.49-33.62s1.35-32.38-1.12-48.46c23.66-18.18,60.72-11.91,80.92,10.05s24.46,55.59,15.51,84.06c-4.56,14.49-12.55,28.36-24.81,37.32-20.62,15.08-48.56,13.7-74,11.58-8.56-.72-17.36-1.42-25.61,1s-16,8.62-17.56,17.07a596.14,596.14,0,0,1,83.46,6.14" transform="translate(-0.14 -0.62)"/><path class="cls-1" d="M138.13,118.68c6.73.8,11,9.58,7.5,15.37s-13.27,6.07-17.1.48,0-14.6,6.63-15.77" transform="translate(-0.14 -0.62)"/><path class="cls-1" d="M135.16,118.76c0,.14-.15.32-.49.54-.16.12-.37.22-.61.37s-.49.34-.78.53-.57.47-.9.72-.62.6-.94,1a11.68,11.68,0,0,0-1.74,2.72,10.82,10.82,0,0,0-.93,3.7,8.17,8.17,0,0,0,.7,4,6.75,6.75,0,0,0,2.94,3.12,9.75,9.75,0,0,0,4.74,1.09,9.59,9.59,0,0,0,4.66-1.36,6.73,6.73,0,0,0,2.77-3.27,8.35,8.35,0,0,0,.47-4.07,11.17,11.17,0,0,0-1.13-3.64,12.2,12.2,0,0,0-1.89-2.61c-.34-.34-.68-.64-1-.91s-.64-.48-.94-.66l-.81-.48c-.24-.14-.46-.23-.63-.34-.35-.2-.53-.38-.52-.51s.24-.24.67-.29a4.17,4.17,0,0,1,.81,0c.31,0,.67.1,1.09.18A13.09,13.09,0,0,1,142,119a13.56,13.56,0,0,1,1.45.81,12.17,12.17,0,0,1,2.89,2.86,12.61,12.61,0,0,1,2,4.56,11.09,11.09,0,0,1-.26,5.93A10.27,10.27,0,0,1,144,138.5a13.06,13.06,0,0,1-13.55.37,10.26,10.26,0,0,1-4.4-5.08,11.13,11.13,0,0,1-.59-5.9,12.7,12.7,0,0,1,1.74-4.68,12.23,12.23,0,0,1,2.73-3,12.84,12.84,0,0,1,1.4-.89,11.42,11.42,0,0,1,1.29-.53c.4-.11.76-.19,1.07-.25a5.76,5.76,0,0,1,.81,0C134.91,118.54,135.14,118.62,135.16,118.76Z" transform="translate(-0.14 -0.62)"/><path class="cls-1" d="M237.29,362.26c-4.18-3-10.79-1.43-13.37,3s-.87,10.78,3.48,13.53a11.38,11.38,0,0,0,14-2.13,12.48,12.48,0,0,0,1.18-14.37,13.16,13.16,0,0,0-14.73-5.61" transform="translate(-0.14 -0.62)"/><path class="cls-1" d="M227.89,356.7c0-.14.18-.34.68-.6a8,8,0,0,1,2.31-.7,12.61,12.61,0,0,1,3.87,0,14.17,14.17,0,0,1,4.89,1.8,13.37,13.37,0,0,1,4.61,4.54A14.18,14.18,0,0,1,243.7,377,13.22,13.22,0,0,1,227,380.86a11.83,11.83,0,0,1-5.42-6.62,12,12,0,0,1-.06-7.66,10.57,10.57,0,0,1,1.73-3.11,11,11,0,0,1,2.43-2.14,11.34,11.34,0,0,1,5.08-1.64,9.37,9.37,0,0,1,3.93.54,6.41,6.41,0,0,1,2.12,1.25c.4.4.55.66.47.78s-.39.08-.87-.07a13.74,13.74,0,0,0-2.1-.43,9.44,9.44,0,0,0-3.24.17,9.93,9.93,0,0,0-3.76,1.76,8.73,8.73,0,0,0-1.58,1.68,7.84,7.84,0,0,0-1,2.21,9,9,0,0,0,.37,5.4,8.26,8.26,0,0,0,3.8,4.39,9.11,9.11,0,0,0,6.26.7,9.21,9.21,0,0,0,5.34-3.38,10.46,10.46,0,0,0,2-5.75,11,11,0,0,0-1.16-5.51,11.18,11.18,0,0,0-3.26-3.81,13.44,13.44,0,0,0-3.83-2A15.36,15.36,0,0,0,231,357C229.08,356.83,228,357,227.89,356.7Z" transform="translate(-0.14 -0.62)"/><path d="M53.13,64.53c0-.64,2.08-1.25,5.76-2.15,1.83-.46,4.06-1,6.54-1.79a42.37,42.37,0,0,0,7.95-3.29,27.53,27.53,0,0,0,4-2.63c.32-.26.65-.51,1-.78l.92-.85a11.52,11.52,0,0,0,.83-.89,7.17,7.17,0,0,0,.79-.93,18,18,0,0,0,2.57-4.46,19.27,19.27,0,0,0,1.35-5.23c.36-3.62-.51-7.29-2.86-9.65a9.64,9.64,0,0,0-4.36-2.57A13.58,13.58,0,0,0,71.87,29,17.45,17.45,0,0,0,61.52,34.7a26.18,26.18,0,0,0-5.28,10.83,49.91,49.91,0,0,0-1.35,11.76c0,3.79.25,7.47.49,10.85s.49,6.51.58,9.28a62.47,62.47,0,0,1-.1,7.15c-.32,4-1.07,6.08-1.67,6.05s-1.09-2.15-1.83-5.85C52,82.91,51.51,80.65,51,78s-1.23-5.65-1.89-9a95.22,95.22,0,0,1-1.65-11.45,51.77,51.77,0,0,1,.71-13.8,33.19,33.19,0,0,1,6.6-14.68,25.67,25.67,0,0,1,15.74-8.91,21.93,21.93,0,0,1,9.61.56A18.12,18.12,0,0,1,92.73,34.13a22.51,22.51,0,0,1,.3,8.5,26.54,26.54,0,0,1-2.37,7.42,24.48,24.48,0,0,1-4.11,6,13.41,13.41,0,0,1-1.25,1.25c-.44.38-.86.82-1.3,1.14l-1.3,1c-.44.31-.89.6-1.33.89a30.92,30.92,0,0,1-5.3,2.71,38.54,38.54,0,0,1-9.58,2.44,45,45,0,0,1-7.24.36C55.3,65.71,53.16,65.14,53.13,64.53Z" transform="translate(-0.14 -0.62)"/><path d="M102.24,76.42c.06-.29.63-.47,1.66-.55s2.5-.05,4.34,0a35,35,0,0,0,6.42-.43,14.56,14.56,0,0,0,6.86-3.08c2-1.7,3-4,3-7.41a36,36,0,0,0-.39-5.54l-.93-6.47C122,44,120.72,34.08,119.5,23.65l8.93-.94c.16,1.46.36,3,.58,4.52.75,5.36,1.75,11.19.9,17.26a25.61,25.61,0,0,1-1.06,4.59,22.46,22.46,0,0,1-2.06,4.27,20.89,20.89,0,0,1-6.32,6.54,17.84,17.84,0,0,1-4.16,2,14.7,14.7,0,0,1-4.72.68,13.49,13.49,0,0,1-4.62-.94,13.9,13.9,0,0,1-3.8-2.33,16.48,16.48,0,0,1-4.43-6.42,25.16,25.16,0,0,1-1.5-6.36,31,31,0,0,1-.07-5.67c.13-1.7.31-3.25.48-4.67.36-2.85.62-5.19.69-7.12s0-3.4,0-4.46,0-1.67.3-1.8.8.27,1.42,1.25a14.73,14.73,0,0,1,1.79,4.67,43.14,43.14,0,0,1,.85,7.64c.07,1.45.12,3,.22,4.54a28.57,28.57,0,0,0,.62,4.63,19.63,19.63,0,0,0,1.58,4.55,9.68,9.68,0,0,0,2.78,3.43,6.52,6.52,0,0,0,1.8.92,6,6,0,0,0,1.94.23,6.87,6.87,0,0,0,2-.44A10.42,10.42,0,0,0,115.8,53a13,13,0,0,0,3.63-4.13,14,14,0,0,0,1.15-2.6,17.33,17.33,0,0,0,.59-3c.53-4.32-.26-9.3-1.07-14.84-.23-1.61-.45-3.25-.61-4.92l8.94-.94C129.58,33.08,130.56,43,131.34,52c.19,2.27.38,4.39.54,6.63a38.4,38.4,0,0,1,0,6.86,18,18,0,0,1-2,6.8,14.28,14.28,0,0,1-4.56,5,18.45,18.45,0,0,1-10.17,3,26.36,26.36,0,0,1-7.31-1.08,24.31,24.31,0,0,1-4.21-1.59C102.62,77.11,102.18,76.71,102.24,76.42Z" transform="translate(-0.14 -0.62)"/><path d="M163,67.62c-.62,0-1.25-.74-1.85-2.12-.3-.7-.6-1.54-.91-2.53s-.58-2.1-.9-3.33c-.59-2.47-1.22-5.39-1.86-8.64-.31-1.62-.64-3.32-1-5.08l-1-5.45q-.51-2.8-1-5.46c-.31-1.76-.61-3.47-.9-5.09-.57-3.26-1-6.22-1.36-8.73-.15-1.27-.29-2.41-.36-3.44s-.09-1.92-.06-2.68c.07-1.51.38-2.45,1-2.65s1.39.36,2.36,1.55a18.86,18.86,0,0,1,1.53,2.27c.53.91,1.11,2,1.66,3.14a68.84,68.84,0,0,1,3.31,8.56c.51,1.65,1,3.39,1.47,5.21s.86,3.72,1.24,5.68.66,3.87.88,5.74.38,3.67.5,5.39a69.51,69.51,0,0,1,0,9.17c-.09,1.31-.25,2.5-.42,3.53a18,18,0,0,1-.62,2.67C164.13,66.79,163.57,67.6,163,67.62Z" transform="translate(-0.14 -0.62)"/><ellipse cx="163.66" cy="26.86" rx="24.58" ry="4.5" transform="translate(-1.74 12.3) rotate(-4.5)"/><ellipse cx="198.07" cy="40.09" rx="4.5" ry="29.6" transform="translate(-2.47 13.41) rotate(-4.03)"/><path d="M221.83,62.54c-.57-.27-.7-1.31-.6-2.93s.44-3.83.69-6.44a34.15,34.15,0,0,0-.2-8.69A18.88,18.88,0,0,0,220.39,40a17.86,17.86,0,0,0-2.57-4.14,14.07,14.07,0,0,0-3.48-3,12.88,12.88,0,0,0-1.88-.9c-.32-.08-.65-.21-1-.28s-.57-.16-.87-.18A11.13,11.13,0,0,0,203.76,33a12.7,12.7,0,0,0-2.36,1.8c-.33.3-.59.63-.88.92s-.48.6-.69.88-.38.55-.57.79-.31.46-.47.64a1.4,1.4,0,0,1-.93.59c-.31,0-.61-.2-.88-.67a3.81,3.81,0,0,1-.37-.9,9.78,9.78,0,0,1-.18-1.29,11,11,0,0,1,.11-1.63,11.16,11.16,0,0,1,.52-1.88,12.83,12.83,0,0,1,2.52-4.05,15.13,15.13,0,0,1,4.67-3.46A15.73,15.73,0,0,1,211,23.21a16.44,16.44,0,0,1,7.5,1.88,19.91,19.91,0,0,1,6.2,5,23.13,23.13,0,0,1,3.87,6.66A22.76,22.76,0,0,1,230,43.66a26.83,26.83,0,0,1-1.88,11.06A22.45,22.45,0,0,1,224.46,61C223.32,62.28,222.38,62.8,221.83,62.54Z" transform="translate(-0.14 -0.62)"/><path d="M243.46,34c-.23-.21-.17-.69.19-1.44.09-.19.2-.39.33-.61s.32-.42.51-.65.41-.48.64-.74a10.28,10.28,0,0,1,.83-.73,14.86,14.86,0,0,1,5-2.75,19.47,19.47,0,0,1,16.87,2.38,18,18,0,0,1,6.85,9.4,20.58,20.58,0,0,1,.73,3,22.08,22.08,0,0,1,.24,3.16,23.14,23.14,0,0,1-.19,3.21,24,24,0,0,1-.72,3.21A19.15,19.15,0,0,1,253,65.43a24.23,24.23,0,0,1-3.22-.7,25.11,25.11,0,0,1-3-1.18A22.43,22.43,0,0,1,244,62a22.1,22.1,0,0,1-2.44-1.94,18.1,18.1,0,0,1-5.68-10.14,19.38,19.38,0,0,1,.84-9.69,19,19,0,0,1,3.94-6.64,14.91,14.91,0,0,1,4.56-3.48c.36-.17.68-.34,1-.46l.94-.29c.28-.08.55-.15.79-.2l.7-.06c.83,0,1.29.11,1.39.41s-.15.73-.67,1.26a5.77,5.77,0,0,1-.43.41l-.49.52-.57.56c-.2.21-.39.45-.6.68a18,18,0,0,0-4.43,9,14.23,14.23,0,0,0,.31,6.37A11.14,11.14,0,0,0,247,53.81a15.36,15.36,0,0,0,1.53,1.06,15.57,15.57,0,0,0,1.75.83,18.91,18.91,0,0,0,1.88.65,16.72,16.72,0,0,0,2,.34,10.9,10.9,0,0,0,12.25-7.81,18.49,18.49,0,0,0,.52-1.94,19.1,19.1,0,0,0,.21-2,17.86,17.86,0,0,0,0-1.94,13.72,13.72,0,0,0-.32-1.83,11,11,0,0,0-3.4-5.77,13.9,13.9,0,0,0-5.66-2.9,17.85,17.85,0,0,0-10,.36c-.29.1-.59.17-.86.27l-.74.3-.67.23-.56.23C244.19,34.18,243.69,34.24,243.46,34Z" transform="translate(-0.14 -0.62)"/><path d="M311.62,66.18c-.58-.23-.65-1.58-.35-3.78s1-5.25,1.52-8.86a40.5,40.5,0,0,0,.45-5.75,20.49,20.49,0,0,0-.81-6,16.72,16.72,0,0,0-2.94-5.53,15,15,0,0,0-2.25-2.19,10.89,10.89,0,0,0-2.58-1.41,9.12,9.12,0,0,0-2.65-.43,7.92,7.92,0,0,0-2.64.54,12.23,12.23,0,0,0-4.71,3.42,17.07,17.07,0,0,0-3,5,28.93,28.93,0,0,0-1.54,5.4c-.67,3.52-.89,6.64-1.27,8.82s-.83,3.45-1.45,3.51-1.33-1.08-2.05-3.23a34,34,0,0,1-1.57-9.6,27.81,27.81,0,0,1,.74-7.09,22.39,22.39,0,0,1,3.66-7.91A19.29,19.29,0,0,1,296,24.66a16,16,0,0,1,5.66-1.34,17,17,0,0,1,6,.87A18.9,18.9,0,0,1,312.73,27a22.34,22.34,0,0,1,3.74,3.87,23,23,0,0,1,4,8.92,24.78,24.78,0,0,1,.2,8.54A32.73,32.73,0,0,1,319,55.13a36.68,36.68,0,0,1-4.43,8.57C313.2,65.54,312.19,66.42,311.62,66.18Z" transform="translate(-0.14 -0.62)"/></svg>