<svg id="Capa_4" data-name="Capa 4" xmlns="http://www.w3.org/2000/svg" viewBox="0 0 389 417"><defs><style>.cls-1{fill:#0800ad;}.cls-2{fill:#ffee17;}.cls-3{fill:#b90005;}.cls-4{fill:#00730d;}.cls-5{fill:#4f4f4f;}</style></defs><title>seo logo</title><rect width="389" height="417"/><path class="cls-1" d="M95.23,134.74c1-12.18-10.11-23.8-21.59-22.52S53.56,127.32,57,139c4.28,14.71,21.19,19.47,33,28.47,20.44,15.62,25,50,9.49,71S51.26,263,32.06,245.7c-8.75-7.88-14.46-18.86-19.22-29.94-3.57-8.32-6.78-17.38-5.36-26.39s9.16-17.51,17.68-16.11c3.21,7.06,4,15.09,7,22.26s9.35,13.87,16.69,12.94c7.85-1,12.64-10.73,11.34-19s-7-15-13-20.34-12.86-10-17.84-16.48c-11.06-14.49-10.44-37.07.29-51.83S59.67,79.57,76.85,83.53s31.77,17.54,39.21,34.42l-19.2,14.67" transform="translate(0.86 0.38)"/><path class="cls-2" d="M134.16,91.29l-9.64,142c-.25,3.69-.4,7.75,1.73,10.68,2.44,3.38,6.93,4,10.93,4.34l44.72,3.87c5,.43,10.66.59,14.14-3.2,5.52-6,1-16,1.69-24.33.78-9.26,8.36-18.26,4.84-26.77-2.3-5.56-8.75-8.08-14.44-7.38s-10.79,3.91-15.67,7.09c-3.33,2.16-7,4.43-10.9,3.76-5.13-.89-8.3-6.9-8.18-12.4s2.68-10.57,5.18-15.4c13.47-1.07,22.49-19.64,15.48-31.88l-13.42-.9A19.39,19.39,0,0,1,161,119.7a16.89,16.89,0,0,1,19-6.23c4.66,1.68,8.75,5.52,13.68,5.59,5.86.08,10.69-5.52,12.12-11.54s.27-12.36-.88-18.45A197.75,197.75,0,0,0,134,92.16" transform="translate(0.86 0.38)"/><path class="cls-3" d="M315.42,131.05c-5.38,9-.51,1-5.89,10,5.51.22,14,26,14.72,31.83s-3.08,30.9-7.06,34.94c-28.27,28.71-58.9,5-66-6.24-6.74-10.71-2.83-42.16-1.18-54.91s26.51-38.07,46.53-14.36c2.36-5,1.29-4.33,5.22-9.13a.93.93,0,0,0-.22-1.38c-10.87-6.09-35.92-11.75-46.23-4.46-9.9,7-16.77,14.44-19.52,26.72-3.61,16.06-7.24,32.66-4.56,48.92,4.31,26.25,26.61,47.95,51.66,50.29s50.58-14.92,59.15-40S336.06,146.27,315.42,131.05Z" transform="translate(0.86 0.38)"/><path class="cls-4" d="M257.11,192.84c9.76-24.52,9.09-34.14,18.85-58.67,8.24,2.5,11.78,6.25,18.85,8.74C311.39,118.32,323,83.59,334.65,56A40.83,40.83,0,0,0,352.71,71.1c-19.94,26.86-36.79,56.19-56.73,83-1.24-3-15.24-7-16.49-10-7.46,18.73-8.53,34.6-21.83,49.26Z" transform="translate(0.86 0.38)"/><path class="cls-3" d="M314.63,231.74l24.82,26a78.79,78.79,0,0,0,7.19,6.26c1,.69,5.89-8.74,9-11.68l-30.42-29.67c-3.56,2.36-8.32,5-10.41,8.9" transform="translate(0.86 0.38)"/><path class="cls-3" d="M312.62,233.75c5,6.2,10.8,11.82,16.34,17.52,4.46,4.59,8.76,9.32,13.72,13.37,2.57,2.1,4.62,3.34,7.22.61,3.09-3.23,4.75-7.61,7.88-10.83a3,3,0,0,0,0-4.24l-30.39-29.7a3.12,3.12,0,0,0-3.69-.48c-4.34,2.85-8.72,5.47-11.57,9.95-2.16,3.4,3.29,6.58,5.4,3.16s5.84-5.63,9.24-7.86l-3.68-.47,30.45,29.64v-4.24c-2.53,2.61-4.4,5.78-6.42,8.78a7.37,7.37,0,0,0-1.17,1.7c-.79.75-.64.88.44.38,1.07,0,1.23-.23.51-.63-.18-.87-3.66-3.23-4.38-3.93-8.88-8.64-16.57-18.54-25.88-26.75a2.84,2.84,0,0,0-4,4Z" transform="translate(0.86 0.38)"/><path class="cls-5" d="M336,257.74c9.73,8.7,19.36,16.9,29.09,25.6.89.8,1.95,1.64,3.09,1.42a4,4,0,0,0,2.29-2l9.24-13.81A144.72,144.72,0,0,1,348,244.31c-3.57,4.07-8.36,9.35-11.93,13.43" transform="translate(0.86 0.38)"/><path class="cls-5" d="M334,259.77c4.75,4.84,9.8,9.32,14.86,13.84,4.79,4.3,9.51,9.18,14.7,13,3,2.2,6.12,2.16,8.79-.5,4.14-4.13,7.19-10.54,10.45-15.39a3.6,3.6,0,0,0-1.28-4.86,148.48,148.48,0,0,1-31-24.09,3.63,3.63,0,0,0-5.1,0c-4,4.5-8,8.94-11.91,13.45-3,3.45,2,8.53,5.07,5.06,3.95-4.49,8-8.92,11.94-13.41h-5.1A151.78,151.78,0,0,0,378,272l-1.27-4.85c-2.73,4.09-5.58,8.13-8.2,12.29-1.31,2.07-.49,1.86-2.33.14s-3.89-3.44-5.83-5.14C353,268,345.7,261.67,338.06,255.71c-2.83-2.21-6.72,1.34-4.05,4.06Z" transform="translate(0.86 0.38)"/></svg>