<svg xmlns="http://www.w3.org/2000/svg" xmlns:xlink="http://www.w3.org/1999/xlink" viewBox="0 0 2241.16 1040.89"><defs><style>.cls-1{fill:#8983c4;}.cls-2{fill:#fcd3ca;}.cls-3{fill:#2d0003;}.cls-4,.cls-5{stroke-miterlimit:10;}.cls-4{stroke:url(#Degradado_sin_nombre_4);}.cls-5,.cls-9{fill:#fff;}.cls-5{stroke:#000;}.cls-6{fill:#5c2f00;}.cls-7{fill:#c5f5ff;}.cls-8{fill:#dbff00;}.cls-10{fill:#363073;}.cls-11{fill:#6d2806;}.cls-12{fill:#ef0a1b;}.cls-13{fill:#f91e29;}.cls-14{fill:#9b9a9a;}.cls-15{fill:#e8e9ea;}.cls-16{fill:#e1ebeb;}</style><radialGradient id="Degradado_sin_nombre_4" cx="1114.12" cy="280.69" r="130.85" gradientUnits="userSpaceOnUse"><stop offset="0" stop-color="#fff"/><stop offset="0" stop-color="#f6f6f6"/><stop offset="0.02" stop-color="#c8c8c8"/><stop offset="0.03" stop-color="#9d9d9d"/><stop offset="0.05" stop-color="#777"/><stop offset="0.06" stop-color="#575757"/><stop offset="0.08" stop-color="#3b3b3b"/><stop offset="0.11" stop-color="#252525"/><stop offset="0.13" stop-color="#141414"/><stop offset="0.16" stop-color="#090909"/><stop offset="0.21" stop-color="#020202"/><stop offset="0.33"/></radialGradient></defs><title>SoN portada</title><g id="fondo"><rect class="cls-1" width="2237" height="1026"/></g><g id="Capa_2" data-name="Capa 2"><path class="cls-2" d="M941.14,214.62c-5.12,11.19-5.89,22.1-7,38a178.43,178.43,0,0,0,9,69c6,17.69,13.25,29.94,21,43a289,289,0,0,0,26,37,238.7,238.7,0,0,0,36,36c14.21,11.35,25,19.94,42,26,20.71,7.36,38.34,6.58,49,6,6.1-.33,30.65-2.05,59-16,22.85-11.25,36.46-24.67,52-40,14.51-14.32,31.86-31.73,46-60a193,193,0,0,0,17-50c3.42-18.09,3.23-32.07,3-45-.54-30.21-.8-45.31-7-55-14.86-23.25-67.14-22.84-127-3-15.67-12.36-51.53-36.77-101-38C1021.45,161.68,959.8,173.81,941.14,214.62Z" transform="translate(-0.14 0.38)"/><path class="cls-3" d="M1283.14,131.62c0,11,3,47,7,75,1.42,10-16.5,14.66-29,17-21.5,4-39.07.65-49-1-78-13-154.05-60-152-59,1.63.82,4,1,0,1-1.23,0-3.73,1.79-5,6a186.39,186.39,0,0,1-22,17c-10.3,6.79-28.22,18.37-54,24a142.12,142.12,0,0,1-38,3q4-25.5,8-51v-33c10.62,3.94,25.28,9,43,14a556.92,556.92,0,0,0,93,18c80.1,8.2,123-6,175-18C1270.38,142.25,1283.14,128.62,1283.14,131.62Z" transform="translate(-0.14 0.38)"/><path class="cls-4" d="M937.14,240.62l50,11a14.63,14.63,0,0,0,2-10,13.64,13.64,0,0,0-2-5l86,9,9,3,5,6a6.2,6.2,0,0,0,3,6,6.32,6.32,0,0,0,8-2l8-2,9,2,8,5c1.33-2.67,2.67-5.34,4-8a30.39,30.39,0,0,1,9-7c7.17-3.63,13.76-3.18,20-3a265.25,265.25,0,0,0,31-1l29,1h13a21.51,21.51,0,0,0,3,19,129.16,129.16,0,0,0,17-4,132,132,0,0,0,42-22q1,7,2,14l-34,14-26,7q1,6,2,12-2,8.49-4,17-5.51,7-11,14l-14,7a96.4,96.4,0,0,1-31,0c-9.05-1.49-20.55-3.39-32-12-3.74-2.82-13.17-10.09-18-23a45.94,45.94,0,0,1-2-7l-8-6a24.06,24.06,0,0,0-12-2c-2.32.22-11.15,1.44-15,8-1.46,2.47-1,3.58-2,7-2.08,6.76-6.67,11-10,14-15,13.72-46.18,10.22-48,10-12.44-1.52-22.52-2.76-31-11-14.1-13.7-11.46-34.77-11-38l-16-4-35-10C935.81,246.62,936.47,243.62,937.14,240.62Z" transform="translate(-0.14 0.38)"/><path class="cls-5" d="M1074.64,368.12a11.67,11.67,0,0,0,2,6,11.91,11.91,0,0,0,9,5c7.68.29,13-5,16-7,1.58-1.05,1.2,2.35,4,5a16.08,16.08,0,0,0,8,4c7.59,1.25,13.39-4.43,15-6,1.91-1.88,5-5.59,4-7-.71-1-3.33-.48-5,0l-19,2h-15Z" transform="translate(-0.14 0.38)"/><path d="M1251.64,196.16a1.67,1.67,0,0,0-.93.22.86.86,0,0,0,0,1.48,1.88,1.88,0,0,0,.93.22c1.23.06,1.24-2,0-1.92Z" transform="translate(-0.14 0.38)"/><g id="Capa_3" data-name="Capa 3"><path class="cls-6" d="M994.69,333.57a1.84,1.84,0,0,0,.89-1.45,1,1,0,0,0-.94-.94,1.83,1.83,0,0,0-1.45.88c-.65.86.64,2.16,1.5,1.51Z" transform="translate(-0.14 0.38)"/><path class="cls-6" d="M1009.28,327.24a2.11,2.11,0,0,0-.75-.79.78.78,0,0,0-1.06,1.06,2.06,2.06,0,0,0,.8.75.75.75,0,0,0,1-1Z" transform="translate(-0.14 0.38)"/><path class="cls-6" d="M1030,325.24l.47.09a.73.73,0,1,0,0-1.42l-.47.09a.65.65,0,0,0,0,1.24Z" transform="translate(-0.14 0.38)"/><path class="cls-6" d="M1024.64,343.18a.56.56,0,0,0,0-1.12.56.56,0,0,0,0,1.12Z" transform="translate(-0.14 0.38)"/><path class="cls-6" d="M1039.14,331a.87.87,0,0,0,0-1.73.87.87,0,0,0,0,1.73Z" transform="translate(-0.14 0.38)"/><path class="cls-6" d="M1176.14,338.46l-.5,0a.62.62,0,0,0,0,1.24l.5,0c.84.06.84-1.37,0-1.31Z" transform="translate(-0.14 0.38)"/><path class="cls-6" d="M1171.14,358h-.5a.6.6,0,0,0,0,1.2h.5a.61.61,0,0,0,0-1.22Z" transform="translate(-0.14 0.38)"/><path class="cls-6" d="M1194.14,347.29a.67.67,0,0,0,0-1.34.67.67,0,0,0,0,1.34Z" transform="translate(-0.14 0.38)"/><path class="cls-6" d="M1213.9,331a1.33,1.33,0,0,0,1.36-.25.88.88,0,0,0,0-1.24,1.31,1.31,0,0,0-1.36-.25.91.91,0,0,0,0,1.74Z" transform="translate(-0.14 0.38)"/><path class="cls-6" d="M1233,334l-.15.16c-1.81,1.82,2.67,2.76,1.89.5l-.1-.29a1,1,0,0,0-2,0l-.09.29c-.78,2.26,3.7,1.32,1.89-.5l-.16-.16a.92.92,0,0,0-1.29,0Z" transform="translate(-0.14 0.38)"/><path class="cls-6" d="M1217.14,346.39l-.5.06a.67.67,0,0,0,0,1.34l.5,0c.93.11.93-1.56,0-1.45Z" transform="translate(-0.14 0.38)"/><path class="cls-6" d="M1115.13,315.48l-.28.11a1.08,1.08,0,0,0,0,2.06l.28.11c1.89.77,1.91-3.06,0-2.28Z" transform="translate(-0.14 0.38)"/><path class="cls-6" d="M1110.16,298.1c-.66-.57-1.61-1.05-2.35-.31s-.26,1.69.31,2.35a1.44,1.44,0,0,0,2-2Z" transform="translate(-0.14 0.38)"/><path class="cls-6" d="M1096.14,313.24a1.13,1.13,0,0,0,0-2.25,1.13,1.13,0,0,0,0,2.25Z" transform="translate(-0.14 0.38)"/><path class="cls-6" d="M1086.14,325a.85.85,0,0,0,0-1.69.85.85,0,0,0,0,1.69Z" transform="translate(-0.14 0.38)"/><path class="cls-6" d="M1152,336a2.66,2.66,0,0,0-.58.72.8.8,0,0,0,1.09,1.09,2.82,2.82,0,0,0,.71-.58c.81-.77-.45-2-1.22-1.23Z" transform="translate(-0.14 0.38)"/><path class="cls-6" d="M1187.64,329.8a1.82,1.82,0,0,0-.7.08.77.77,0,0,0,0,1.47,1.83,1.83,0,0,0,.7.09.82.82,0,0,0,0-1.64Z" transform="translate(-0.14 0.38)"/><path class="cls-6" d="M1197.93,336.85l-.48.07a.73.73,0,0,0,0,1.4l.48.07a.79.79,0,1,0,0-1.54Z" transform="translate(-0.14 0.38)"/><path class="cls-6" d="M1046.32,336l-.45.17a1,1,0,0,0,0,1.94l.45.17a1.18,1.18,0,1,0,0-2.28Z" transform="translate(-0.14 0.38)"/><path class="cls-6" d="M1052.33,317a2.38,2.38,0,0,0-.68.28,1,1,0,0,0,0,1.68,2.71,2.71,0,0,0,.68.28,1.16,1.16,0,1,0,0-2.24Z" transform="translate(-0.14 0.38)"/><path class="cls-6" d="M1025.88,327.91a1.34,1.34,0,0,0,.1,1.09.77.77,0,0,0,1.32,0,1.42,1.42,0,0,0,.1-1.09.79.79,0,0,0-1.52,0Z" transform="translate(-0.14 0.38)"/><path class="cls-6" d="M1045.14,323.76a.65.65,0,0,0,0-1.29.65.65,0,0,0,0,1.29Z" transform="translate(-0.14 0.38)"/></g><path class="cls-7" d="M1130.14,262.62c2.51-4.63,6.39-6.9,10-9a41.7,41.7,0,0,1,14-5c9.54-1.74,16.42-.61,23,0,26.68,2.47,37,0,44,1,4.32.61,1.6,6.44,4,19a88.31,88.31,0,0,1,2,16c.2,3-1.39,10.87-6,19a32.58,32.58,0,0,1-14,13c-9.58,4.49-18.55,2.41-29,0-7.32-1.69-24-5.77-38-20-4.52-4.59-10.84-11.17-12-21C1127.84,273.1,1127.29,267.86,1130.14,262.62Z" transform="translate(-0.14 0.38)"/><path class="cls-7" d="M1076.14,252.62c2.12,1.39,3.23,2.92,5,7,.9,2.09,1.82,5.44,0,16-1.5,8.69-2.25,13-4,16-5.28,8.95-16.35,11.22-25,13-5,1-21.25,4.12-39-4-8.53-3.91-20.28-9.29-22-19-1.55-8.69,2.32-9,2-23-.2-8.71-1-17,2-18C1001.14,238.62,1019.14,244.62,1076.14,252.62Z" transform="translate(-0.14 0.38)"/><path class="cls-8" d="M950.14,128.62l6-16,3-22v-17l24,6,38,10c12,2.51,28,5.5,47,8a506.82,506.82,0,0,0,62,5c22.15.31,49.2.69,83-7a285.75,285.75,0,0,0,58-20,98.07,98.07,0,0,0,0,14,86.32,86.32,0,0,0,3,18,80.78,80.78,0,0,0,10,22,71.84,71.84,0,0,1-11,9c-10.36,6.86-19.45,8.53-36,12-33.76,7.07-27.05,6.35-37,8-6.45,1.06-21.76,3.44-48,5-22.4,1.33-40.92,2.43-63,1-32-2.09-57.4-9.32-82-16-11.37-3.09-20.68-6-27-8Z" transform="translate(-0.14 0.38)"/><path class="cls-9" d="M1210.67,288.16c.52.66-3.76,4.86-9,10s-9.43,9.43-10.09,8.9,2.62-5.72,8-11S1210.18,287.51,1210.67,288.16Z" transform="translate(-0.14 0.38)"/><path class="cls-9" d="M1200.59,272.58c.61.54-5,7.72-13.19,15.41s-15.65,12.89-16.15,12.26,6-6.83,14.1-14.45S1200,272,1200.59,272.58Z" transform="translate(-0.14 0.38)"/><path class="cls-9" d="M1169,264c.59.58-2.85,5.07-7.68,10s-9.23,8.53-9.83,8,2.85-5.08,7.68-10S1168.44,263.44,1169,264Z" transform="translate(-0.14 0.38)"/><path class="cls-9" d="M1071.14,280.61c.31.26-.26,1.61-1.63,3.51a36.09,36.09,0,0,1-14.09,11.22c-2.15.91-3.6,1.16-3.77.8s.92-1.31,2.72-2.64,4.3-3.12,6.94-5.23,4.94-4.13,6.64-5.59S1070.8,280.35,1071.14,280.61Z" transform="translate(-0.14 0.38)"/><path class="cls-9" d="M1061,267.47c.16.13-.1.73-.73,1.73A15.46,15.46,0,0,1,1059,271c-.52.65-1.1,1.4-1.82,2.16s-1.49,1.62-2.4,2.46-1.9,1.71-3,2.61c-.53.45-1.11.87-1.69,1.31s-1.18.88-1.81,1.3c-1.24.87-2.59,1.68-4,2.5s-2.8,1.51-4.18,2.12c-.69.33-1.37.63-2.05.89s-1.34.55-2,.78c-1.32.45-2.57.89-3.77,1.2s-2.31.59-3.34.79a27.23,27.23,0,0,1-2.8.45,16.56,16.56,0,0,1-2.13.17c-1.18,0-1.83-.06-1.86-.26s.56-.51,1.65-.89c.55-.18,1.22-.39,2-.66s1.65-.5,2.6-.85,2-.68,3.12-1.12,2.29-.9,3.52-1.4c.62-.25,1.23-.56,1.87-.84s1.28-.58,1.92-.91c1.31-.62,2.62-1.36,4-2.08s2.62-1.53,3.83-2.34c.61-.38,1.21-.77,1.77-1.18s1.15-.77,1.68-1.17c1.07-.8,2.1-1.54,3-2.3s1.79-1.44,2.56-2.1,1.46-1.27,2.08-1.79l1.58-1.37C1060.23,267.69,1060.79,267.33,1061,267.47Z" transform="translate(-0.14 0.38)"/><path class="cls-9" d="M1044.57,253c.26.31-1.25,2.08-4,4.54-1.4,1.23-3.13,2.61-5.12,4.07-1,.71-2.06,1.47-3.18,2.19s-2.3,1.48-3.51,2.22-2.43,1.41-3.62,2-2.34,1.21-3.44,1.75c-2.22,1.06-4.26,1.93-6,2.58-3.49,1.3-5.77,1.78-5.92,1.41s1.82-1.57,5-3.34l5.63-3.1c1-.6,2.15-1.21,3.29-1.87l3.5-2,3.47-2.11c1.12-.68,2.18-1.37,3.2-2l5.4-3.47C1042.32,253.89,1044.3,252.7,1044.57,253Z" transform="translate(-0.14 0.38)"/><path class="cls-9" d="M1201.09,256.07c.58.59-3.18,5.14-8.38,10.16s-9.89,8.59-10.47,8,3.18-5.15,8.39-10.16S1200.52,255.47,1201.09,256.07Z" transform="translate(-0.14 0.38)"/></g><g id="color_camisa" data-name="color camisa"><path class="cls-10" d="M1010.14,432.62c-12.66-4.1-24.06-.26-31,2-50.29,16.34-45.38,7.35-77,21a281.62,281.62,0,0,0-79,51c-9.69,9-38.52,37-61,83a289.76,289.76,0,0,0-26,83l20,15a149.9,149.9,0,0,0,27,13c31,11.22,59.55,9.73,104,7,10.88-.67,19.68-1.48,25-2l-10,17a221.07,221.07,0,0,0-12,32c-9.48,32.81-8.8,59.28-8,83a400.55,400.55,0,0,0,14,92l218-126,286-173-3-6c4.17-4,10.07-9.86,17-17,48-49.52,75.08-78.16,70-106-1.29-7.06-5.3-17.62-19-29a215.52,215.52,0,0,0-59-60c-20.17-13.67-42.26-28.65-74-31,0,0-44.22-3.27-99.38,27.65l-.62.35h0l-20,30a111.8,111.8,0,0,1-84,34l-58-2-38-22C1028.3,444.27,1021.21,436.21,1010.14,432.62Z" transform="translate(-0.14 0.38)"/></g><g id="colores_mesa" data-name="colores mesa"><path class="cls-11" d="M1850.14,401.62c64.84,23.21,133.11,50,204,81,65.93,28.82,127.62,58.42,185,88q1,42.5,2,85c-1.33,122.33-2.67,247.66-4,370-422.67,1-845.33-1-1268,0l-32-12c.67,3,.33,9,1,12h-46c-.67-8.34-.33-19.67-1-28,2.67-22,3.33-45,6-67,42.67-25.67,89.33-50.34,132-76l447-267Z" transform="translate(-0.14 0.38)"/></g><g id="colores_del_nerd" data-name="colores del nerd"><path class="cls-2" d="M912.14,705.62a142.65,142.65,0,0,0-10,17,154,154,0,0,0-10,26c-7.66,26.44-9.72,57.42-10,62-2.27,36.35,1.48,61.23,9,111,0,0,2.28,15.13,4,15,1.22-.1,1.82-6,2-6s-7.28,31.13-7,65a223.7,223.7,0,0,0,2,28l-93-1c-2.82-4.57-7.17-11.28-13-19-13.3-17.61-23.86-26.64-31-34-24.86-25.63-33.68-57.14-37-69-7-24.85-6.43-45.16-6-62,.54-21,3.61-38.3,8-63,4.58-25.77,5.66-22.73,8-39,5.41-37.71,1.24-62.36,8-64,2.62-.64,4.06,2.88,13,10a113.52,113.52,0,0,0,23,14c15.22,7.35,28.43,9.6,37,11,12.64,2.06,22.58,2.14,33,2C859.17,709.39,882.86,708.49,912.14,705.62Z" transform="translate(-0.14 0.38)"/><path class="cls-2" d="M1396.14,623.62c1.33,2.33,2.67,4.66,4,7l45-28,13-5q-.5-24-1-48l-11,19-24,30Z" transform="translate(-0.14 0.38)"/><path class="cls-2" d="M1009.14,425.62c-1.52,1.64,1.27,6.89,4,12a67.85,67.85,0,0,0,11,15c9.7,9.48,28.94,18.91,52,24,27.38,6,42.44,9.36,57,3,4.37-1.91,9,1,19,0,2.32-.23,7.25-.18,8,1q7-4.39,14-9,18.24-11.94,35-24c3.78-1.39,13.63-5.56,19-15,1.42-2.51,3.43-6.15,3-11a16.53,16.53,0,0,0-3-8c-2.6,2.25-6,4-9,9-3.13,5.21-17.83,21-32,28-19.61,9.65-58,19-75,19-16.59,0-42.3-5-79-25C1020.06,437.49,1011.85,422.69,1009.14,425.62Z" transform="translate(-0.14 0.38)"/><path class="cls-12" d="M1131.14,515.62" transform="translate(-0.14 0.38)"/><path class="cls-13" d="M1182.14,720.62q18.49-24.51,37-49-8.17-41.54-16-84-6.21-33.74-12-67-3.5-6.51-7-13l-11-10-12-13c-2.33-4.67-3.67-4.34-6-9-7,4-8,4-11,4s-10.06-1.94-8,2q-2,13-4,26a20,20,0,0,0,3,12c4.7,7.39,12.69,8.79,14,9q-.5,8.49-1,17-4,66.48-9,132a211.5,211.5,0,0,0,43,43Z" transform="translate(-0.14 0.38)"/></g><g id="colores_pc" data-name="colores pc"><path class="cls-14" d="M1112.14,919.62c2.11-3.38,5.87-6.55,21-10,12.09-2.76,20.2-4.61,32-4,7.07.36,25.16,1.3,41,12,5.72,3.86,6.91,6.13,16,12,5.92,3.82,9.44,5.45,13,10,1.89,2.41,6.19,7.91,5,13s-7.21,8.18-18,11c-20.42,5.33-39.48,4.42-56,2-26.85-3.94-38-10.54-44-15-7.3-5.42-10.75-10.45-12-16C1109.85,933.32,1108.18,926,1112.14,919.62Z" transform="translate(-0.14 0.38)"/><path class="cls-14" d="M1216.14,842.62l8,13a146.5,146.5,0,0,0,46,23c13.35,4,38.28,13.17,88,34q9.83,2.31,20,5,5.56,1.47,11,3l39-27,69-53c5.19-3.54,13.14-8.85,23-15,23.94-15,41-23.59,51-29,16.16-8.79,39-23,66-46l3,35-54,44,10,9,37,25,33,27,55-29,108-67-34-11-42-21q-1-32.5-2-65,17.88-10.26,36-21,30.27-18,59-36,1-170.5,2-341l-22-4-371,194v59q2,23,4,46,2,50,4,100l-118,66-58,34Z" transform="translate(-0.14 0.38)"/></g><g id="mesa_con_pc" data-name="mesa con pc"><path d="M1644,833.62c-1-48.24-3.3-96.47-5.19-144.69-.93-23.67-2-47.33-2.78-71-.7-20.87-.89-42.12,3.72-62.61,4.43-19.68,13.74-38.95,29.89-51.62,15.14-11.88,36.23-16.12,53.66-6.53,19,10.48,21.34,32.77,21.83,52.34.59,24.09,1,48.2,1.49,72.3q1.68,81.91,3,163.83c.06,3.35,5.28,3.36,5.2,0q-1.8-77.91-3.53-155.84-.81-39-1.6-77.92c-.41-18.45-1.42-39.73-16.24-52.94-13-11.63-32.48-14.2-48.67-8.41-18,6.45-31.83,21.39-40.15,38.27-9.34,18.92-12.28,40.16-12.89,61-.68,23.43,1,47,1.94,70.37,2.33,57.8,4,115.68,7.47,173.42.11,1.79,2.85,1.83,2.81,0Z" transform="translate(-0.14 0.38)"/><path d="M1644.15,829.69c31.3-27.37,70.29-44.3,111.95-46.68,2.76-.16,2.77-4.48,0-4.32-42.13,2.54-83.65,19.43-114.47,48.48-1.69,1.59.8,4,2.52,2.52Z" transform="translate(-0.14 0.38)"/><path d="M1586,835.75c28.24,16.43,54.81,34.07,78.69,56.54a2.28,2.28,0,0,0,2.67.35C1725,864,1780.7,832,1835,797.57a2.44,2.44,0,0,0-.57-4.41,306.47,306.47,0,0,1-80.5-32.64c-2.79-1.63-5.31,2.69-2.53,4.33a292.34,292.34,0,0,0,81.74,33l-.57-4.41c-53.81,35.17-110,66.76-167.5,95.43l2.67.35c-23.67-22.1-50.67-42.53-80.07-56.38-2-.93-3.66,1.83-1.73,3Z" transform="translate(-0.14 0.38)"/><path d="M1587,831c18.7-13.81,36.73-29.08,54.33-44.26,2-1.7-.85-4.38-2.82-2.82-18.07,14.37-36.32,29.13-53.25,44.83-1.16,1.08.41,3.23,1.74,2.25Z" transform="translate(-0.14 0.38)"/><path d="M1487.57,841.54c-1.29-45.09-4.25-90.13-6.11-135.2q-2.82-68.12-6.23-136.2l-3.79-76.55c-.17-3.51-5.65-3.53-5.48,0,4.37,90.48,9.29,180.93,13.77,271.4,1.27,25.52,2.38,51.06,4.14,76.55.16,2.35,3.77,2.4,3.7,0Z" transform="translate(-0.14 0.38)"/><path d="M1469.52,498.4c98.2-53.1,196.62-105.71,296.39-155.82q42.31-21.24,84.87-42c3.06-1.5.38-6.07-2.68-4.57q-150.39,73.51-297.8,153-41.62,22.54-82.82,45.88c-2.26,1.29-.24,4.72,2,3.48Z" transform="translate(-0.14 0.38)"/><path d="M1848.66,647.62c1.36-45.29.7-90.7.85-136l.47-135q.13-38.49.19-77c0-3.17-4.91-3.17-4.92,0q-.52,135.5-.72,271c0,25.65-.42,51.35.2,77a2,2,0,0,0,3.93,0Z" transform="translate(-0.14 0.38)"/><path d="M1845.29,638.15c-16.32,8.65-32,18.68-47.91,28.14s-31.78,19-47.65,28.59c-3.07,1.85-.28,6.66,2.82,4.82q23.87-14.24,47.66-28.57c15.82-9.54,32.08-18.69,47.4-29a2.3,2.3,0,0,0-2.32-4Z" transform="translate(-0.14 0.38)"/><path d="M1635.78,748.68c-6.31,3.91-12,9-18,13.43s-12.15,8.83-18.32,13.1q-18.15,12.54-37.09,23.9t-38.53,21.52q-9.6,5-19.36,9.63-4.87,2.32-9.79,4.58c-3.18,1.46-6.24,2.27-8.39,5.06-.87,1.13.35,2.48,1.48,2.57,3.24.27,5.78-1.47,8.7-2.8q5.32-2.42,10.62-4.94,9.76-4.65,19.37-9.6,20-10.32,39.29-22t37.72-24.61c5.9-4.13,11.75-8.35,17.49-12.71s12.22-8.67,17.36-13.85c1.64-1.66-.48-4.54-2.53-3.28Z" transform="translate(-0.14 0.38)"/><path d="M1685.73,733.4l15.64-5.35-4.62-11-11,6.24c-4.11,2.32-3.65,7.93,0,10.36,10,6.65,15.52,17.86,19.77,28.72,4.71,12.06,8.31,24.66,14.5,36.09s15.17,20.53,27.52,24.72c15.53,5.28,32.32,1.06,47.89-1.73,15.18-2.71,31.21-4.07,44.14,6,11.88,9.22,18.65,24,23.35,37.93,10.25,30.38,15.64,65.08,47.3,80.94,16.61,8.33,36.53,10.15,52.09,20.49,12.08,8,24.34,25.56,14.15,39.4-4.58,6.22,5.83,12.21,10.36,6,9.33-12.67,5.6-29.25-3.15-41.15-10.37-14.1-25.14-20.49-41.36-25.7s-33.21-10-44.34-23.94c-10.45-13.15-14.86-30.13-19.43-46-8.53-29.54-22.79-64.19-57.77-67.8-28.12-2.91-66.2,20-86.61-9.08-16.76-23.91-16.17-57.89-42.35-75.31v10.36l11-6.24c5.78-3.28,1.93-13.21-4.63-11l-15.64,5.35c-7.26,2.49-4.14,14.08,3.19,11.57Z" transform="translate(-0.14 0.38)"/><path d="M1475.3,496.46c-2.45-1.95-5.33-2.64-8.27-3.61l-10.29-3.4c-2.76-.91-3.93,3.42-1.2,4.34l9.64,3.24c2.93,1,5.82,2.33,9,2.23,1.28,0,2.34-1.86,1.16-2.8Z" transform="translate(-0.14 0.38)"/><path d="M1452.11,487.7c2.37,89.81,6.84,179.61,10.44,269.38,1,25.51,2,51,3.09,76.54.13,3.06,4.89,3.09,4.78,0-3.29-89.8-7.15-179.59-10.73-269.38-1-25.52-2-51-3.41-76.54-.14-2.67-4.24-2.71-4.17,0Z" transform="translate(-0.14 0.38)"/><path d="M1467.77,835c5.27,2.2,10.6,4.22,15.93,6.27,2,.77,2.89-2.47.88-3.21-5.34-2-10.68-3.93-16.07-5.73-1.73-.57-2.33,2-.74,2.67Z" transform="translate(-0.14 0.38)"/><path d="M1456.14,495a1.41,1.41,0,0,0,0-2.81,1.41,1.41,0,0,0,0,2.81Z" transform="translate(-0.14 0.38)"/><path d="M1456.22,491.73q141.45-80.91,287.25-153.86,40.8-20.36,81.93-40c2.44-1.17.31-4.81-2.13-3.64q-147,70.41-289.63,149.33-39.89,22.07-79.36,44.88c-2.14,1.24-.21,4.55,1.94,3.32Z" transform="translate(-0.14 0.38)"/><path d="M1825.68,297.29c7.32,1.36,14.63,2.89,22,4,2.22.34,3.23-3,.95-3.44-7.29-1.5-14.68-2.65-22-3.95-2.18-.39-3.12,2.93-.92,3.34Z" transform="translate(-0.14 0.38)"/><path d="M1779.56,1018.37q90.21-70.24,180.24-140.72l179.12-140.43,101.35-79.46c3-2.34-1.22-6.49-4.18-4.18l-180,141Q1966.52,864.73,1877,935q-50.6,39.79-101.13,79.67c-2.66,2.09,1.08,5.76,3.71,3.71Z" transform="translate(-0.14 0.38)"/><path d="M1386.7,901.56q-86.51-31.41-173.17-62.38l.57,4.4q93.95-58.86,190.21-113.86,27.57-15.74,55.31-31.15c2.82-1.57.3-5.9-2.53-4.33Q1360.24,748.15,1265.64,806q-27.09,16.56-54,33.44a2.44,2.44,0,0,0,.58,4.4q86.61,31,173.29,61.95c2.66.94,3.78-3.26,1.16-4.21Z" transform="translate(-0.14 0.38)"/><path d="M1386.74,908.07a390.07,390.07,0,0,1,41.88-40.43c15.39-12.75,31.89-23.33,48.63-34.12a2.11,2.11,0,0,0-2.13-3.64c-17.14,9.19-33.22,21.26-48.21,33.59a360.34,360.34,0,0,0-43,41.82c-1.65,1.9,1.09,4.68,2.79,2.78Z" transform="translate(-0.14 0.38)"/><path d="M1210.73,842.37c6,11.16,16.18,19.16,27.5,24.42,13.75,6.37,27.79,11.87,41.88,17.43,16.4,6.47,32.84,12.81,49.27,19.19q12.55,4.88,25.1,9.77c7,2.74,14.61,6.51,22.36,5.87,5.37-.44,9.85-3.12,12.11-8.11,2-4.31,1.59-9.27-2.18-12.4a1.75,1.75,0,0,0-2.9,1.68c1.07,7,2.18,14.1,3.27,21.15a1.71,1.71,0,0,0,2.48,1,1230.75,1230.75,0,0,0,111-82.5c1.87-1.57-.83-4.24-2.69-2.68a1172.58,1172.58,0,0,1-110,82.26l2.48,1q-1.59-10.59-3.19-21.17l-2.89,1.69c3,2.47,2.85,6.22,1,9.42-2.33,4.14-6.61,5.41-11.11,5.25-8.89-.31-18.15-5.5-26.29-8.7q-26-10.2-52-20.46c-16-6.32-32.43-12-48.31-18.76-13.27-5.64-26.6-14.35-33.35-27.46-1.21-2.35-4.81-.26-3.56,2.09Z" transform="translate(-0.14 0.38)"/><path d="M1298,793c-2.61,8.25-14.13,9-18.7,15.9-5,7.55,1.92,15.77,10,16.25,5.85.35,11.15-2.83,16-5.77,7.3-4.47,14.58-9,21.88-13.46l42.12-25.83c14-8.61,28-17.26,42.13-25.82L1429.88,743c4.52-2.75,12.38-5.73,14.36-11.2a6.49,6.49,0,0,0-3.81-8.42c-4.61-1.71-9.61.6-13.61,2.77C1412.35,734,1398,742.07,1383.58,750q-24.21,13.4-48.39,26.84L1311,790.29c-8,4.43-16.67,8.37-23.89,14-1.69,1.31-.85,4.77,1.63,3.85,12.33-4.57,23.87-12.49,35.36-18.88l36.28-20.16,36.27-20.17,17.26-9.62c6.08-3.39,12.28-7.81,18.76-10.34,1.66-.65,8.32-2.65,5.83,2.46-1.08,2.21-5.8,4-7.75,5.24l-17.61,11q-17.19,10.73-34.44,21.34c-23.53,14.56-47,29.19-70.61,43.66-5.62,3.45-13.09,9.61-20.13,7.95-6.58-1.54-7.53-7.68-2.78-11.59,5.88-4.86,14.34-6.8,16.83-14.86.79-2.58-3.22-3.66-4-1.11Z" transform="translate(-0.14 0.38)"/><path d="M1307.1,838.42c5.26.08,11.16-4.86,15.66-7.37,5.41-3,10.75-6.16,16.07-9.33q17.14-10.23,33.85-21.18,32.5-21.31,63.07-45.34c2.42-1.9-1-5.25-3.39-3.38q-30.84,24.13-63.56,45.76-15.88,10.49-32.21,20.31c-5.3,3.2-10.65,6.32-16,9.45-4.42,2.6-11.68,5-14.41,9.5a1.06,1.06,0,0,0,.91,1.58Z" transform="translate(-0.14 0.38)"/><path d="M1332.51,842.85c5.07-.85,9.92-3.42,14.6-5.51,5.15-2.3,10.25-4.74,15.26-7.33a324.4,324.4,0,0,0,29.91-17.55,327.72,327.72,0,0,0,52-42.68c2.14-2.17-1.21-5.53-3.35-3.35a330.7,330.7,0,0,1-51.51,42.86q-13.35,9-27.53,16.59-7.45,4-15.08,7.67c-5,2.39-10.59,4.21-15.15,7.37a1.06,1.06,0,0,0,.82,1.93Z" transform="translate(-0.14 0.38)"/><path d="M1348.15,856.06c19.39-7.4,37.7-19.36,54.61-31.25q12.33-8.68,24-18.29c7.85-6.46,17.44-13.24,23.24-21.68,1-1.47-1-3.39-2.43-2.44-8,5.21-14.68,13.1-22,19.3q-12.39,10.56-25.65,20c-16.87,12.07-35,21.65-52.57,32.52-.9.56-.32,2.22.76,1.8Z" transform="translate(-0.14 0.38)"/><path d="M1377.22,867.34c13.83-6.76,26.67-16.62,39.49-25.13q19.51-13,39-26c2.61-1.76.15-6-2.49-4.25q-19.86,13.37-39.6,26.9c-12.56,8.58-26.33,16.67-37.66,26.83-.94.84.25,2.16,1.28,1.66Z" transform="translate(-0.14 0.38)"/><path d="M1321.83,816c8.31,4.54,17.54,7.69,26.41,10.94q13.71,5,27.61,9.39t28,8.15c8.94,2.38,18.67,5.93,28,6.22,1.86.06,1.87-2.37.4-3-8.47-3.57-18.41-4.71-27.31-7q-14.12-3.68-28.05-8-13.47-4.17-26.77-8.91c-9.1-3.25-18.09-7.19-27.38-9.85a1.13,1.13,0,0,0-.87,2.06Z" transform="translate(-0.14 0.38)"/><path d="M1357.66,793.81c5.57,4.7,15,6.29,21.89,8.52q11.82,3.84,23.77,7.31t24,6.51c7.72,2,16.78,5.52,24.77,5.19,1.41-.06,2.19-2.12.76-2.84-6.69-3.38-15.31-4.06-22.59-5.83q-12.54-3.06-25-6.55-12-3.36-23.84-7.1c-4-1.24-7.89-2.53-11.83-3.84-3.62-1.2-7.48-3-11.33-2.89a.9.9,0,0,0-.63,1.52Z" transform="translate(-0.14 0.38)"/><path d="M1391.65,777.4c10.62,4.15,21.27,8.2,31.93,12.23l15.54,5.87c5.41,2,10.88,4.67,16.55,5.81,1.88.38,3.17-2.17,1.36-3.21-4.63-2.64-10-4.17-15-6L1425.61,786c-11-4.09-22-8.16-33-12.12-2.26-.81-3.17,2.72-1,3.57Z" transform="translate(-0.14 0.38)"/><path d="M1295.84,836.67c9.16,2,18.6,2.59,27.86,4s18.56,3.11,27.76,5.08,18.35,4.21,27.42,6.72,17.93,5.94,27.07,8c1.66.38,3-2.12,1.22-2.91-8.61-3.93-18.18-6.21-27.3-8.69s-18.23-4.68-27.44-6.61-18.48-3.59-27.8-5-19-3-28.49-2.81c-1.22,0-1.58,1.93-.3,2.2Z" transform="translate(-0.14 0.38)"/><path d="M1451.17,595.53C1379.63,640,1308,684.28,1235.86,727.71S1091,813.72,1018.17,856Q956.33,891.79,894.11,927c-2.22,1.26-1.83,4.09,0,5.43a489.05,489.05,0,0,0,234.36,91.3c4,.45,3.92-5.74,0-6.19A483.5,483.5,0,0,1,897.29,927v5.43q110-62.16,218.8-126.33,108.72-64.33,216.42-130.37c40.63-24.92,81.21-49.9,121.5-75.36,3-1.93.25-6.78-2.84-4.86Z" transform="translate(-0.14 0.38)"/><path d="M1853.62,410.27c12.11,5.29,25,9,37.51,13.33s24.8,8.72,37.14,13.24c25.26,9.25,50.45,18.69,75.39,28.78,50.24,20.3,99.87,42,148.64,65.63,27.59,13.37,54.73,27.58,82,41.52,3.31,1.69,6.23-3.2,2.93-5-47.54-26.33-97.05-49.51-146.69-71.56q-73.22-32.52-148.61-59.76c-14.11-5.11-28.3-10-42.52-14.78-14.69-4.93-29.6-10.65-44.77-13.87-1.41-.3-2.54,1.84-1.05,2.49Z" transform="translate(-0.14 0.38)"/><path d="M895.15,925.28c-1.32,5.12-1.32,10.67-1.79,15.92l-1.65,18.47c-1.08,12-2.31,24-3.49,36-.28,2.89,4.34,2.92,4.55,0,.84-11.67,1.62-23.34,2.56-35l1.34-16.53c.49-6,1.64-12.44,1.15-18.48-.12-1.45-2.27-1.93-2.67-.36Z" transform="translate(-0.14 0.38)"/><path d="M889.24,998.5q38.24,14.41,76.47,28.78c2.46.93,3.52-3,1.08-3.93q-38.25-14.33-76.54-28.51c-2.3-.86-3.28,2.8-1,3.66Z" transform="translate(-0.14 0.38)"/><path d="M888.85,997.58c-.15,4.94.44,9.94.75,14.87.24,4-.2,8.28,1.62,11.87a1.45,1.45,0,0,0,2.61-.35c1.39-4.08.09-9.13-.25-13.38-.36-4.49-.51-9-1.28-13.47-.35-2-3.4-1.44-3.45.46Z" transform="translate(-0.14 0.38)"/><path d="M932.58,1014.53a13.12,13.12,0,0,1-.12,12.11c-1.16,2.22,2.24,4.19,3.36,2a17.1,17.1,0,0,0-.12-15.89c-1.08-2.07-4.15-.25-3.12,1.82Z" transform="translate(-0.14 0.38)"/><path d="M1135.29,479c-2.3,5.39-2.68,11.39-3.59,17.15l-3,19c-.43,2.72,3.75,3.87,4.16,1.14l2.85-19c.87-5.8,2.41-11.77,1.83-17.64-.1-1-1.74-1.86-2.27-.62Z" transform="translate(-0.14 0.38)"/><path d="M1155,476.9c4.35,12.92,16.77,23.64,28.47,29.81,2.24,1.19,4.24-2.25,2-3.4a63.82,63.82,0,0,1-16.13-11.52c-4.84-4.81-8.06-10.39-11.94-15.9-.79-1.14-2.9-.5-2.39,1Z" transform="translate(-0.14 0.38)"/><path d="M1132.06,515.77c4,19.32,27.35,17.41,41.8,13.7,6.3-1.62,14.15-4.08,16.44-11,1.54-4.61.13-12.77-6-12.61a1.52,1.52,0,0,0-1.07,2.56c3.87,3.78,5,8.55.43,12.59-4.35,3.82-11.51,5-17,6.22-11.58,2.59-28.3,2-31.64-12.31-.45-1.92-3.34-1.1-2.94.81Z" transform="translate(-0.14 0.38)"/><path d="M1147,529.66q-2.61,37.5-5.14,75-1.23,18.26-2.5,36.51l-1.31,18.75c-.38,5.48-2.3,13-.35,18.17a1.55,1.55,0,0,0,2.79.37c2.38-4.45,1.63-10.62,1.93-15.58l1.14-18.74q1.15-19.25,2.36-38.49,2.38-38,4.69-76c.14-2.32-3.45-2.3-3.61,0Z" transform="translate(-0.14 0.38)"/><path d="M1138.23,678.8a192.34,192.34,0,0,0,43,43.56,1.77,1.77,0,0,0,2.36-.62c12.66-16.4,25.93-32.5,38-49.37,1.16-1.63-1.51-3.72-2.8-2.15-13.27,16.09-25.48,33.19-38.13,49.77l2.36-.62a187.38,187.38,0,0,1-42-42.15c-1.17-1.63-3.89-.07-2.71,1.58Z" transform="translate(-0.14 0.38)"/><path d="M1220.93,671.76c-1.44-12-4.24-23.88-6.5-35.71q-3.63-19.08-7.34-38.15l-14.7-75.27c-.51-2.61-4.49-1.5-4,1.09L1202.92,598q3.54,18.09,7.17,36.15c2.52,12.62,4.5,25.57,7.89,38,.43,1.57,3.15,1.32,3-.4Z" transform="translate(-0.14 0.38)"/><path d="M1160.55,482.34q25.83-17.28,51.64-34.54c10.88-7.3,26.67-18.83,18.51-33.91-1.15-2.11-4.43-.21-3.24,1.9,9.16,16.24-16.37,28.7-26.76,35.75l-41.64,28.25c-1.56,1-.09,3.61,1.49,2.55Z" transform="translate(-0.14 0.38)"/><path d="M1130.14,485.07a1.46,1.46,0,0,0,0-2.91,1.46,1.46,0,0,0,0,2.91Z" transform="translate(-0.14 0.38)"/><path d="M1133.63,477.49c-11.81.75-23.22,2.13-35.1,1.17a144,144,0,0,1-36.29-7.75,132.31,132.31,0,0,1-32.14-16.3c-9.81-6.9-18.91-16.5-18.62-29.22.06-2.88-4.3-2.85-4.46,0-1.32,24.73,29.49,39.82,48.63,47.42a148.47,148.47,0,0,0,37.87,9.43c13.1,1.49,27.71,2,40.55-1.49,1.77-.47,1.48-3.39-.44-3.26Z" transform="translate(-0.14 0.38)"/><path d="M1229.28,411.68c2.5,6.69,6.13,12.82,8.3,19.7a143.57,143.57,0,0,1,5,21.26c2.06,13.35-1.77,23.56-13.44,30.33-8.11,4.7-17.18,7.46-25.6,11.54-6.33,3.08-17.55,9-18.67,16.9a2,2,0,0,0,3.22,1.87c1.92-1.57,3.12-3.88,4.84-5.67a34.23,34.23,0,0,1,6.22-5,87.75,87.75,0,0,1,13.19-6.68c8.85-3.79,18.3-7.16,25.62-13.66,9-8,10.47-19.2,8.59-30.69a129,129,0,0,0-5.62-22c-2.29-6.46-5-13.92-9.78-19-.73-.77-2.24,0-1.85,1.07Z" transform="translate(-0.14 0.38)"/><path d="M1012.58,438.11c3.45,16.06-7.77,29.85-7.72,45.65,0,13.35,9.23,20.16,21.33,23.14,33.17,8.18,67.84,11.85,101.92,12.83,2.39.07,2.38-3.61,0-3.7a572.41,572.41,0,0,1-96-12c-6.39-1.36-13.72-2.66-18.54-7.45-5.23-5.19-5.68-12.91-4.52-19.78,2.19-13,10.76-26,5.62-39.28a1.08,1.08,0,0,0-2.08.57Z" transform="translate(-0.14 0.38)"/><path d="M1231.5,413.9c4-1.6,6.93-4.47,10.39-7a125.74,125.74,0,0,1,12-7.73,123.59,123.59,0,0,1,25.58-10.83,130.85,130.85,0,0,1,51.51-4.45c37.15,4.14,69.78,24.82,96.38,50.08,7.63,7.24,14.85,14.9,21.78,22.81q5.54,6.31,10.81,12.86c3.51,4.32,6.64,9.14,10.75,12.91a2.21,2.21,0,0,0,3.46-2.67c-4.54-8.9-12.48-16.89-19-24.43s-13.3-14.91-20.45-21.88c-14-13.67-29.44-26.07-46.49-35.76-31.58-17.95-68.78-25-104.32-15.95a128.83,128.83,0,0,0-29,11.3,125.85,125.85,0,0,0-13.45,8.33c-4.18,3-8.94,5.91-11.49,10.45-.51.91.36,2.37,1.48,1.93Z" transform="translate(-0.14 0.38)"/><path d="M1010.14,430.76A277.81,277.81,0,0,0,861.64,474C819.28,500.8,785,539.07,762.12,583.63A289.89,289.89,0,0,0,735,662.82c-.58,3.11,4.17,4.45,4.78,1.31C758.9,565.27,829.65,481.36,925.43,449a276.81,276.81,0,0,1,84.71-14.5,1.86,1.86,0,0,0,0-3.71Z" transform="translate(-0.14 0.38)"/><path d="M730.2,667.69c7.71,10.09,19.26,18,30.22,24.2a155.23,155.23,0,0,0,38.44,15c29.95,7.46,61.12,6.69,91.48,2.33,9.67-1.39,19.3-3.14,28.88-5.09s20.35-3.25,29.5-6.86c1.88-.74,1.88-4.08-.52-3.87-7.55.69-15.1,3.24-22.49,4.91-7.94,1.79-15.92,3.46-23.93,4.94A330,330,0,0,1,852,709c-28.47.87-57.39-3.48-83.22-15.93A134.11,134.11,0,0,1,749.94,682c-6.61-4.65-12.2-10.14-18.26-15.42-.75-.64-2.16.24-1.48,1.14Z" transform="translate(-0.14 0.38)"/><path d="M948.31,694c12-15.48,24.23-31.36,34.91-47.81,1.09-1.69-1.56-3.82-2.84-2.19-12.13,15.42-23.28,32.07-34.06,48.46-.77,1.18,1.1,2.68,2,1.54Z" transform="translate(-0.14 0.38)"/><path d="M910.73,704.52c-19,29.73-27.7,64.55-29.85,99.51-1.22,19.82-.38,39.71,1.43,59.46.89,9.72,2,19.41,3.27,29.09s2,19.83,4.23,29.4c.38,1.63,3.05,1.3,3-.4-.55-9.68-2.56-19.39-3.79-29s-2.38-19.37-3.27-29.09a395.34,395.34,0,0,1-1.56-56.85c1.85-35.2,10.27-70.53,29.26-100.56,1.07-1.68-1.6-3.23-2.67-1.56Z" transform="translate(-0.14 0.38)"/><path d="M1115.12,921.29c8.68-4.49,17-8.94,26.62-11.19a86.37,86.37,0,0,1,29.51-1.55c19.76,2.29,38.42,11.44,51.6,26.44,2.21,2.52,5.88-1.17,3.67-3.68-13.94-15.88-33.74-25.38-54.6-27.89-19.52-2.35-44,1.28-59,15-1.61,1.46.44,3.84,2.24,2.91Z" transform="translate(-0.14 0.38)"/><path d="M1111.75,918.58c-5,2.17-5.24,9.94-4.56,14.58a27.92,27.92,0,0,0,8.65,16.2c10.68,10.08,27.07,14.18,41,17.08a161.58,161.58,0,0,0,48.41,2.68,144.27,144.27,0,0,0,23.45-4c5.23-1.41,10.76-3.78,13.2-9,6.7-14.2-12-24.61-23.64-24.79-1.91,0-3,3-1,3.85,6.65,2.82,14.94,3,19.08,9.91,5.27,8.79-2.84,13.54-10.32,15.4a151.94,151.94,0,0,1-47.85,3.8c-15.78-1.18-32.2-4.51-46.67-11.08-6.54-3-13.15-7.13-16.64-13.63a20.78,20.78,0,0,1-2.56-10.08c0-3.38,2-6.25,1.86-9.56a1.61,1.61,0,0,0-2.39-1.38Z" transform="translate(-0.14 0.38)"/><path d="M1198.88,938.93a26.77,26.77,0,0,0,22.94,9.46,2.4,2.4,0,0,0,2-3.58,27,27,0,0,0-23.79-13.4c-1.79,0-3.4,2.23-2.22,3.87,2,2.8,3.91,5.7,6.47,8.07a2.14,2.14,0,0,0,3.35-2.59,48.73,48.73,0,0,0-5.38-8.08l-2.22,3.87a22.43,22.43,0,0,1,19.68,10.66l2.06-3.58a22.39,22.39,0,0,1-20-7.69c-1.8-2.06-4.71.93-3,3Z" transform="translate(-0.14 0.38)"/><path d="M1169.83,962.61a43.65,43.65,0,0,1,31-20.33c3.4-.51,1.93-5.62-1.42-5.16a46.21,46.21,0,0,0-33.82,23,2.44,2.44,0,0,0,4.21,2.46Z" transform="translate(-0.14 0.38)"/><path d="M1209.65,935.14a11.82,11.82,0,0,1,11.78-3c3,.9,4.35-3.88,1.3-4.75a15.88,15.88,0,0,0-16.29,4.51c-1.93,2.18,1.08,5.25,3.21,3.21Z" transform="translate(-0.14 0.38)"/><path d="M1568.14,1040.51a.89.89,0,0,0,0-1.78.89.89,0,0,0,0,1.78Z" transform="translate(-0.14 0.38)"/><path d="M1235.39,954.06c84.07,16.32,170.1,33,255.95,21.37,21.37-2.89,43.56-9.85,65.25-6.54,18.05,2.76,32.43,14.2,47,24.28,13.44,9.27,27.4,16.44,43.76,18.54,15.57,2,31.33.06,46.69-2.7,34.16-6.14,73.06-19.93,106-2.27,3.48,1.87,6.59-3.43,3.1-5.3-59.62-32-127.48,28.46-186.75-7.21-14.72-8.86-27.77-20.56-43.84-27.07-18.49-7.5-38.33-5-57.44-1.6a517.9,517.9,0,0,1-130.76,6c-49.73-3.84-98.82-12.8-147.78-22-2.88-.54-4.13,3.87-1.22,4.43Z" transform="translate(-0.14 0.38)"/><path d="M735,663.3c-1.89,5.64-1.5,11.65-1.94,17.56-.55,7.41-1.39,14.8-2.41,22.16-1.76,12.71-4,25.33-6.42,37.92-4.85,25.18-10.29,50.27-13.17,75.78-2.69,23.93-3.14,48.27,1.23,72,4.24,23.09,13.63,44.48,26.75,63.88a308.82,308.82,0,0,0,23.58,30.14c8.82,10.08,17.8,20.56,27.81,29.48a2.44,2.44,0,0,0,3.44-3.45c-7.28-8.87-15.72-16.83-23.38-25.39a335.48,335.48,0,0,1-22.32-27.31c-13.73-19-24.21-39.78-29.3-62.74-10.83-48.92.78-99,10-147.17,2.57-13.47,5-27,6.82-40.56.91-7,1.62-14,2.12-21s1.7-14.64-.47-21.38a1.2,1.2,0,0,0-2.3,0Z" transform="translate(-0.14 0.38)"/><path d="M1321.61,567.49a134.71,134.71,0,0,1,72.2,57.5c1.42,2.35,5.16.17,3.69-2.15a140.47,140.47,0,0,0-75-58.51c-2-.66-2.86,2.49-.87,3.16Z" transform="translate(-0.14 0.38)"/><path d="M1394.47,628.74c14.17-10.29,26.43-24.28,37.35-37.86s22.46-28.61,29.24-44.66c1.12-2.66-2.31-4.87-4-2.32-4.64,7.14-8.43,14.83-13,22q-7.42,11.61-16,22.46c-10.85,13.75-23.41,25.4-35.49,38-1.14,1.19.4,3.44,1.85,2.39Z" transform="translate(-0.14 0.38)"/></g><g id="Capa_1" data-name="Capa 1"><path d="M1070.28,465.42c28.93,9.43,60.73,7,89.15-3.11,27.92-9.91,50.82-27.43,71.07-48.71,20.43-21.49,39.75-45.93,51.29-73.46,12.72-30.32,14.93-62.87,12.62-95.35-2.72-38.29-9.72-76.14-8.28-114.67a1.51,1.51,0,0,0-2.54-1.06c-7.27,5.79-14.87,11.37-23.64,14.65-8.2,3.07-17,4.55-25.49,6.31-24.58,5.06-49.33,9.34-74.34,11.69a411.61,411.61,0,0,1-131.76-8.55c-26.68-6.18-52.73-14.79-78.32-24.48a1.49,1.49,0,0,0-1.89,1.44c3.3,54.73-22.34,107.71-14.65,162.37C937,317.12,948.69,340.61,961,362a280.2,280.2,0,0,0,43.52,57.47,220.67,220.67,0,0,0,65.69,46.07c1.61.72,3-1.66,1.4-2.39-44.09-19.87-79.22-55-104.23-96-12.82-21-25.34-44.53-30-68.86-5-26.12-1-52.86,3.72-78.7,5.42-29.57,11.85-59.2,10-89.45l-1.89,1.44c44.7,17,91,30.37,138.82,34.14,47.61,3.75,95.24-2.08,141.88-11.54,10.28-2.09,21-3.7,30.84-7.44,9.28-3.52,17.23-9.38,24.91-15.55l-2.54-1c-1.06,32.68,3.62,65,6.91,97.4,3.17,31.3,4.27,63.11-4.55,93.66-8.59,29.71-26.22,55.37-46.26,78.54-19,21.94-40.41,42-67,54.31-31.37,14.53-68,19.22-101.28,8.79-1.67-.52-2.36,2.06-.72,2.6Z" transform="translate(-0.14 0.38)"/><path d="M1284.61,130.55a108.61,108.61,0,0,1-12.56-54.93,1.21,1.21,0,0,0-2.41,0c-.57,19.57,3.57,38.86,13,56.07.7,1.27,2.63.13,1.94-1.14Z" transform="translate(-0.14 0.38)"/><path d="M951.32,128.92c7.53-17.35,10.19-36.52,8.73-55.31-.12-1.53-2.54-1.55-2.42,0,1.45,18.79-1.65,36.92-8.11,54.55-.38,1,1.36,1.78,1.8.76Z" transform="translate(-0.14 0.38)"/><path d="M958.35,74.15C1037.75,98.44,1124.23,114,1206.82,98a274.41,274.41,0,0,0,64.45-20.83c1.44-.68.18-2.82-1.26-2.15-75.18,35.18-163.24,31.45-242.6,14.35-23.05-5-45.67-11.41-68.49-17.3a1.07,1.07,0,0,0-.57,2.06Z" transform="translate(-0.14 0.38)"/><path d="M994.85,95.6c.44-5.9-5-11.34-11-10.61s-10.2,7.48-8.34,13.22c2.2,6.77,10.06,8.58,14.09,13.82a9,9,0,0,1-3.42,13.59c-6,2.59-10.66-2-13.31-6.88-.58-1.07-2.5-.64-2.38.64.54,5.85,6.38,10.15,12.07,10.26,6.12.13,11.06-4.71,12-10.63,1-6.42-3.49-10.59-8.26-14-3.27-2.32-7.61-4.78-8-9.19-.32-3.21,1.94-6.91,5.21-7.73,4.86-1.21,8.56,3.16,9,7.5a1.16,1.16,0,0,0,2.32,0Z" transform="translate(-0.14 0.38)"/><path d="M1012.39,106c-5.3-2.9-12.3-.15-14.48,5.48s1,12.8,7,14.08a1.12,1.12,0,0,0,.85-2c-3.74-2.21-6.73-6.38-5.09-10.88s6.81-6,11.07-5.12c.89.19,1.51-1,.65-1.52Z" transform="translate(-0.14 0.38)"/><path d="M1015,93.6c-.21,7.08,0,14-1.41,21s-4.14,13.3-7.17,19.74a1.31,1.31,0,0,0,2.25,1.32c7.47-11.53,11.28-28.82,7.48-42.19a.59.59,0,0,0-1.15.15Z" transform="translate(-0.14 0.38)"/><path d="M1012.88,116.14a10.81,10.81,0,0,0,11.93-1.2c.75-.64,0-2.1-1-1.71a18.35,18.35,0,0,1-10.31,1.43c-.84-.11-1.5,1-.63,1.48Z" transform="translate(-0.14 0.38)"/><path d="M1028.8,92.59c-3,6.43-5.17,13.31-7.55,20-2.52,7.12-5.82,14.5-7.16,22-.2,1.09,1.34,1.94,1.93.81,3.24-6.29,5-13.51,7.2-20.22,2.37-7.28,5.12-14.57,6.74-22.06.14-.66-.83-1.17-1.16-.49Z" transform="translate(-0.14 0.38)"/><path d="M1036.18,109.56c-4.13.24-8.93,3.6-10.11,7.68-.92,3.15.35,7.36,3.52,8.73,3.91,1.7,7.27-1.74,8.94-4.92,2.41-4.6,3.39-11.14.64-15.78-.51-.85-2.09-.56-2,.54.3,3.22,1,6.19.32,9.42-.63,3-2.32,8-5.91,7.65-4.11-.44-3-5.39-.89-7.58,1.77-1.83,4.24-2.71,6-4.58a.69.69,0,0,0-.48-1.16Z" transform="translate(-0.14 0.38)"/><path d="M1050.16,109.61a13.14,13.14,0,0,0-8.28,11.2c-.39,3.8.92,9.23,5.47,9.78,5,.6,8.05-5.44,9.11-9.35,1.43-5.26.75-11.47-2.77-15.74-.61-.74-2,0-1.64,1,2.16,5.37,4.46,13.65-.34,18.55-6.31,6.44-7.67-2.47-6.54-6.4.93-3.24,3.18-5.72,5.59-7.95a.62.62,0,0,0-.6-1Z" transform="translate(-0.14 0.38)"/><path d="M1068.67,105.17c-7.26,11.64-13,24.33-19.19,36.56a1.42,1.42,0,0,0,.84,2.05,23,23,0,0,0,15-1.21c1.18-.53.33-2.33-.85-2a28.49,28.49,0,0,1-13.45.56l.83,2c6.17-12.35,13-24.59,18-37.44.3-.75-.86-1.17-1.26-.53Z" transform="translate(-0.14 0.38)"/><path d="M1098.6,120.33c-3.68,2.17-7.71,5.38-6.53,10.23,1,4.15,5.21,5.6,8.67,3.19,3.27-2.29,7.19-7.81,5.62-12-1.18-3.12-5.52-4.84-7.68-1.82-.62.86.59,2,1.44,1.44a2.4,2.4,0,0,1,3.07.36c1.28,1.24.84,3.09.17,4.53-.94,2-2.71,4.6-4.74,5.66-3.17,1.65-4.73-2.08-3.94-4.6.73-2.34,3-4.36,4.66-6a.61.61,0,0,0-.74-1Z" transform="translate(-0.14 0.38)"/><path d="M1106.78,133.14c1.22-3.22,2.56-6.18,5-8.65s5.29-3.13,8.15-4.81a1,1,0,0,0-.52-1.92c-3.58-.2-7.42,2.69-9.75,5.17a15.07,15.07,0,0,0-4.46,10,.79.79,0,0,0,1.55.21Z" transform="translate(-0.14 0.38)"/><path d="M1106.57,128.56a20.76,20.76,0,0,0,6.22.8,1,1,0,0,0,.26-1.91,20.6,20.6,0,0,0-6.26-.5.82.82,0,0,0-.22,1.61Z" transform="translate(-0.14 0.38)"/><path d="M1141.31,156.23c5.16-4.62,6.67-11.26,7.61-17.87a101.37,101.37,0,0,0,0-27.29l-2.45.66a94.24,94.24,0,0,1,17,37.41c.33,1.52,2.7,1.15,2.69-.37-.07-17,7.65-30.79,19.9-42,1.06-1-.35-2.86-1.54-2-13.8,9.78-21.21,27.42-21.09,44l2.69-.36a96.14,96.14,0,0,0-17.35-38c-.67-.89-2.64-.8-2.45.67a105.77,105.77,0,0,1,.56,23.12c-.64,7.31-1.71,15.09-6.9,20.7a1,1,0,0,0,1.34,1.34Z" transform="translate(-0.14 0.38)"/><path d="M1176.83,131.72c4.78,1.88,12.43.5,13-5.61s-6.42-6.25-10-3.29c-4.51,3.7-7.22,11.14-3.92,16.42,2.6,4.16,9.2,6.39,12.91,2.47a1.11,1.11,0,0,0-1.34-1.73,6.79,6.79,0,0,1-8.58-1.37c-2.39-2.79-1.91-6.86-.32-9.92a11.7,11.7,0,0,1,3.74-4.4c2-1.32,5.7-.83,4.91,2.29-1.19,4.69-6.79,3.08-10.19,3.42a.88.88,0,0,0-.23,1.72Z" transform="translate(-0.14 0.38)"/><path d="M1195.4,141.62a66,66,0,0,1,.69-15.45,8.53,8.53,0,0,1,.78-3q.27-2.19,2.8-.75,3.42-.89,2.17,1.78c-.14,2.93-3.34,4.64-5.58,6a1.5,1.5,0,0,0,1.14,2.73,5.32,5.32,0,0,1,6.57,5.31,1.54,1.54,0,0,0,3.07,0,8.39,8.39,0,0,0-10.43-8.19l1.15,2.73c3.07-2,6.82-4.49,7.21-8.48.28-2.83-1.38-6.28-4.4-6.82-9.73-1.74-8.07,19.31-7.51,24.09.17,1.46,2.42,1.54,2.34,0Z" transform="translate(-0.14 0.38)"/><path d="M1211.9,118.53a56.9,56.9,0,0,1,1.22,17.06,1.13,1.13,0,0,0,1.68,1c5.93-3,11-9.1,8.8-16.13-1.5-4.79-9.22-9.38-13.19-4.56a1,1,0,0,0,1,1.69c2-.59,3.81-1.37,5.92-.63,3,1,4.45,4.08,4.42,7,0,5-3.93,8.54-8.06,10.67l1.68,1a54.32,54.32,0,0,0-1.64-17.55.94.94,0,0,0-1.81.49Z" transform="translate(-0.14 0.38)"/><path d="M1237.66,112.27c-2.75-4.78-9.39-.29-9.55,4.09-.1,2.73,1.53,4.75,3.73,6.17,1.94,1.24,4.8,1.87,6.06,4,2.52,4.3-2.07,6.68-5.58,7-1,.1-1.62,1.5-.56,2,4.77,2.5,10-2.28,9.65-7.2a7.73,7.73,0,0,0-3.49-5.88c-1.44-1-3.18-1.52-4.61-2.53l-1.91-1.77,1.26-4.72c.79-.73,3.34-.31,4.49-.38a.59.59,0,0,0,.51-.88Z" transform="translate(-0.14 0.38)"/><path d="M940.73,216c45.35,1.81,90.33-17.44,120.66-51.15,1-1.11-.64-2.76-1.65-1.64a154.64,154.64,0,0,1-119,50.63c-1.39,0-1.39,2.1,0,2.16Z" transform="translate(-0.14 0.38)"/><path d="M1059,163.26a422.82,422.82,0,0,0,86.49,42.34,437.4,437.4,0,0,0,46.94,13.93c16.34,3.86,33.08,7.14,49.94,7s33.74-4,48-13.27c1.29-.85.08-2.94-1.22-2.09-28.56,18.59-63.87,13.53-95.2,6.19a439.26,439.26,0,0,1-87.83-30.7,491.75,491.75,0,0,1-46.09-25.17c-1.13-.69-2.13,1.05-1,1.76Z" transform="translate(-0.14 0.38)"/><path d="M1088.35,282.83c8.77-9.22,23.88-10.11,33.07-1.15,1.12,1.1,2.84-.62,1.72-1.72-9.62-9.43-27.47-9.6-36.21,1.44-.79,1,.5,2.39,1.42,1.43Z" transform="translate(-0.14 0.38)"/><path d="M1090.16,264.64c9.79-7.61,22.23-8.92,31.75.23,1.19,1.15,3-.68,1.82-1.82-9-8.55-26.91-10.93-34.73.69-.51.76.55,1.37,1.16.9Z" transform="translate(-0.14 0.38)"/><path d="M1123.51,264.76c6.16-19.74,30-19.92,46.84-19.43q29.36.84,58.7,1.72l-1.23-1.61a22.87,22.87,0,0,0,3.61,19.39,1.46,1.46,0,0,0,1.55.63,137.06,137.06,0,0,0,58.51-25.57c1.4-1,0-3.46-1.4-2.39a137.51,137.51,0,0,1-57.84,25.31l1.55.63a20.24,20.24,0,0,1-3.52-17.32,1.29,1.29,0,0,0-1.23-1.62c-22.65-.64-45.39-1.92-68-1.84-15.78.06-34.55,4.37-39.71,21.49a1.15,1.15,0,0,0,2.22.61Z" transform="translate(-0.14 0.38)"/><path d="M1292.22,251.29c-19.25,9.36-38.32,17.12-59.45,21.16a1.47,1.47,0,0,0-1,1.8,38.82,38.82,0,0,1-5.39,33.05c-8.12,11.89-21.37,16.64-35.4,16.42-26.1-.4-63.07-11.62-66.59-42.12-.22-1.88-3.18-1.91-3,0,3.46,32.82,43.11,45.38,71.28,45.1,14-.14,27.1-5.26,35.48-16.83a41.84,41.84,0,0,0,6.43-36.4l-1,1.81c20.63-4,41.87-10.91,59.72-22.21a1,1,0,0,0-1-1.78Z" transform="translate(-0.14 0.38)"/><path d="M1090.67,264c3.63-19-21.8-20.7-34.33-22q-34.38-3.67-68.76-7.25a1.53,1.53,0,0,0-1.47,1.93,18.91,18.91,0,0,1,1.32,7.48,17.43,17.43,0,0,1-.77,4.35c-.76,1.64-1.93,2.12-3.51,1.42-5.07.32-11.38-1.74-16.34-2.79a203.05,203.05,0,0,1-29-8.42c-2-.73-2.82,2.41-.87,3.14a203.77,203.77,0,0,0,50,11.57,1.49,1.49,0,0,0,1.33-.76,21.21,21.21,0,0,0,.82-16.8l-1.48,1.93q27.51,2.87,55,5.73c9.24.94,18.65,1.45,27.82,3,8.56,1.42,19.41,6.32,18,16.91-.21,1.48,2,2.17,2.3.63Z" transform="translate(-0.14 0.38)"/><path d="M1086.54,281.82c-3,17-18,26.2-34.08,28.75s-37.19,2.74-50.92-7c-6.51-4.61-11.72-11.23-13.43-19.11-1.27-5.88-.85-11.75-.88-17.7,0-2.42-.06-3.88-2.24-5.15-3-1.74-7-2.2-10.35-2.89-12.75-2.64-26.38-4.22-38.23-9.94-1.76-.85-3.31,1.78-1.54,2.63,11.29,5.47,24.07,7.3,36.27,9.64,3,.58,10.32.85,12.59,3.18,1,1,.6,2.79.57,4.3-.07,3.16-.14,6.31.07,9.47a36.63,36.63,0,0,0,22.34,31.75c7.74,3.38,16.37,4.36,24.74,4.59s17,0,25.18-1.84c15.34-3.36,30.16-13.79,32.15-30.4.15-1.27-2-1.56-2.24-.3Z" transform="translate(-0.14 0.38)"/><path d="M1111.22,172.55c9.5,6.21,20.31,10.92,30.75,15.31A293.91,293.91,0,0,0,1176.64,200a296.54,296.54,0,0,0,70.17,10.7c1.72.06,1.72-2.61,0-2.67a294.1,294.1,0,0,1-69.45-10.62,297.24,297.24,0,0,1-32.2-11c-11.3-4.6-21.86-10.44-32.84-15.68a1.09,1.09,0,0,0-1.1,1.88Z" transform="translate(-0.14 0.38)"/><path d="M1183.34,170.42c10.48,6.23,23.56,9.63,35.41,12a168.9,168.9,0,0,0,37.4,3.27,1.2,1.2,0,0,0,0-2.39A169.3,169.3,0,0,1,1218.5,180c-12-2.48-23-7.06-34.67-10.74a.65.65,0,0,0-.49,1.18Z" transform="translate(-0.14 0.38)"/><path d="M1013.07,161.88c-7.55,6.05-14.69,12.3-23.07,17.23a109.5,109.5,0,0,1-12.47,6.3c-4.1,1.76-8.54,2.85-12.52,4.83-.87.44-.5,2,.51,1.9,8.83-1.08,18.24-6.34,25.78-10.8,8.29-4.91,16.66-11,22.67-18.56a.64.64,0,0,0-.9-.9Z" transform="translate(-0.14 0.38)"/><path d="M992.23,151.76c-4.83,4.42-8.75,9.2-14.31,12.85-5.15,3.39-10.71,5.13-16.29,7.57-1,.43-.52,2.22.56,2.08,11.44-1.52,26-11.31,30.95-21.8a.58.58,0,0,0-.91-.7Z" transform="translate(-0.14 0.38)"/><path d="M976.5,145.72l-6.75,4.56c-2,1.37-4.3,2.6-6,4.38-.5.53,0,1.65.78,1.33a34.5,34.5,0,0,0,6.24-3.94l6.72-4.63c1-.72.06-2.42-1-1.7Z" transform="translate(-0.14 0.38)"/><path d="M1086.86,281.14c-.8,15.51-4.1,29.29-13.95,41.72-1,1.25.77,3,1.77,1.77,9.4-11.79,16-28.17,14-43.49a.93.93,0,0,0-1.86,0Z" transform="translate(-0.14 0.38)"/><path d="M1075.34,342.13c3.86,2.37,9.26.42,13.1-.9,1.65-.56.49-3-.89-2.12a14.07,14.07,0,0,1-6.38,2c-1.85.16-3.71-.26-5.53,0a.59.59,0,0,0-.3,1.09Z" transform="translate(-0.14 0.38)"/><path d="M1111.3,339c3.6,3.63,9.9,6.84,15.13,5.21a1.12,1.12,0,0,0-.29-2.19c-2.33-.27-4.54-.13-6.83-.87a16,16,0,0,1-6.29-3.87,1.22,1.22,0,0,0-1.72,1.72Z" transform="translate(-0.14 0.38)"/><path d="M1132.71,342.41c5.66-4.15,7.72-15.94,2.87-21.37-.74-.83-1.82.09-1.68,1,.51,3.27,1.76,6.11,1.43,9.54-.35,3.69-2.15,6.52-3.73,9.74-.32.65.39,1.63,1.11,1.11Z" transform="translate(-0.14 0.38)"/><path d="M1088.64,341c2.26-1,4.47-2.1,6.66-3.22,1.24-.64.14-2.52-1.1-1.88-2.19,1.12-4.37,2.27-6.48,3.52-1,.61-.13,2,.92,1.58Z" transform="translate(-0.14 0.38)"/><path d="M1055.38,362.54c31.6,12.86,67.86,12.3,99.25-.87a1.18,1.18,0,1,0-.91-2.17,130.85,130.85,0,0,1-97.83,1.21c-1.15-.45-1.62,1.37-.51,1.83Z" transform="translate(-0.14 0.38)"/><path d="M1074.19,368.19c-.24,5.74,4,10.34,9.45,11.67,7,1.69,13.5-2.41,18.51-6.81l-1.68-.21a18.7,18.7,0,0,0,33.77-4.21c.48-1.5-1.84-2.11-2.35-.64-4.68,13.27-21.73,15.6-29.58,3.77a1.08,1.08,0,0,0-1.67-.22c-3.78,3.6-8.54,6.89-14,6.88-5.79,0-11.11-4.19-11.11-10.23a.68.68,0,0,0-1.36,0Z" transform="translate(-0.14 0.38)"/><path d="M1084.71,417c5.7-1.49,11.06-3.22,17-3.31s11.35,1.48,17.11,2.89c1,.24,1.65-1.18.7-1.67-10-5.26-25.69-5-35.35.92a.64.64,0,0,0,.5,1.17Z" transform="translate(-0.14 0.38)"/><path class="cls-15" d="M1101.69,275.49l-6.16-18a24.43,24.43,0,0,1,22.58.75,172.14,172.14,0,0,1-3.75,19.09q-6.16-1.14-12.42-1.71l-.41-.6" transform="translate(-0.14 0.38)"/><path class="cls-16" d="M1101.53,275c.09-.06.31.09.58.32l.65-.06,1,0c.79,0,1.75,0,2.85.1s2.36.16,3.74.31l2.17.26.49.06.25,0c.1,0,.23.07.21-.09l0-.14a1.37,1.37,0,0,1,0-.29l.26-1.25c.17-.85.35-1.72.53-2.62.36-1.79.71-3.69,1-5.66s.66-4.05,1-6.18c.11-.73.08-.59.1-.7s0,0,0,0,0,0,0,0l-.35-.18a21.69,21.69,0,0,0-2.94-1.17,23.14,23.14,0,0,0-7-1.14,23.41,23.41,0,0,0-6.58.84,15.35,15.35,0,0,0-1.5.47l-.7.25-.12,0s-.12,0-.11.05l0,.1v.06l.1.34c.08.24.15.48.23.72.58,1.92,1.13,3.7,1.62,5.33,1.95,6.54,2.95,10.65,2.56,10.78s-2.11-3.73-4.56-10.09l-2-5.22-.64-1.77L1094,257l-.06-.17c0-.06-.07-.13,0-.14l.33-.16.66-.3,1.34-.63.83-.33a17.11,17.11,0,0,1,1.66-.59,24.78,24.78,0,0,1,7.37-1.13,25.47,25.47,0,0,1,11.25,2.56l1.09.59.74.39c.21.14.6.21.44.52-.13.85-.25,1.7-.38,2.54-.33,2.16-.71,4.25-1.11,6.25s-.84,3.91-1.28,5.72c-.23.9-.45,1.77-.67,2.62-.3,1.11-.59,2.19-.88,3.23l-.14.51c0,.13-.11.07-.19.06l-.26-.05-1-.21-1.54-.31-2.11-.44-3.64-.71-2.77-.55-1-.22c-.38-.08-.67-.15-.9-.22C1101.51,275.3,1101.45,275,1101.53,275Z" transform="translate(-0.14 0.38)"/><path d="M1095.14,261.59a.47.47,0,0,0,0-.94.47.47,0,0,0,0,.94Z" transform="translate(-0.14 0.38)"/><path d="M1093.11,255.89a32.78,32.78,0,0,0,2.55,8c1,2.57,1.77,5.29,2.95,7.8.27.58,1.11.16,1-.41-.61-2.84-1.76-5.58-2.53-8.38a29.44,29.44,0,0,0-2.64-7.33c-.33-.56-1.39-.37-1.31.35Z" transform="translate(-0.14 0.38)"/><path d="M1099,273c1.14,6.3,18.31,8.81,16.86,1.44a.62.62,0,0,0-1.18,0c-.29,1.7-3,2.77-4.59,2.87a15.25,15.25,0,0,1-4.24-.61,9.36,9.36,0,0,1-5.9-4.1.52.52,0,0,0-1,.4Z" transform="translate(-0.14 0.38)"/><path d="M1118.46,257c-1.29,2.53-1.2,5.41-1.25,8.21-.06,3.58-.59,7.11-.72,10.67,0,.72,1.13.9,1.26.17.62-3.5.85-7.06,1.54-10.56.53-2.73,1.26-5.57.54-8.31a.76.76,0,0,0-1.37-.18Z" transform="translate(-0.14 0.38)"/><path d="M1115.58,278.74c1.24-1.82,1.51-4.31,1.88-6.45s.94-4.43,1.19-6.67c.09-.89-1.21-.95-1.48-.2-.84,2.35-1.39,4.86-2,7.27a14.66,14.66,0,0,0-.83,5.88c.09.66,1,.61,1.28.17Z" transform="translate(-0.14 0.38)"/><path d="M1119.63,255.69c-6.83-5-18.45-3.4-25.62,0a.74.74,0,0,0,.57,1.35,35,35,0,0,1,12.25-2.45c4.33.07,8.1,1.63,12.31,2.21a.63.63,0,0,0,.49-1.15Z" transform="translate(-0.14 0.38)"/><path d="M1097.91,261.64a54.29,54.29,0,0,0,3.79,6.1c1.24,2,2.09,4.37,3.52,6.27a.78.78,0,0,0,1.41-.6c-.63-2.35-2.15-4.49-3.42-6.55a23.31,23.31,0,0,0-4.42-5.9.56.56,0,0,0-.88.68Z" transform="translate(-0.14 0.38)"/><path d="M1100.75,255.43a68.37,68.37,0,0,0,4,8.76c1.55,3.23,2.88,6.63,4.61,9.75a.71.71,0,0,0,1.29-.54,68,68,0,0,0-4-9.56,43.88,43.88,0,0,0-5-9c-.37-.47-1.14,0-1,.57Z" transform="translate(-0.14 0.38)"/><path d="M1109,253.71c-1.4.75-1.34,2.5-1.63,3.93-.4,2-.78,4.06-1.13,6.11-.27,1.61,2.18,2.32,2.49.68.4-2.17.76-4.34,1.1-6.52.22-1.43.8-3-.23-4.12a.5.5,0,0,0-.6-.08Z" transform="translate(-0.14 0.38)"/><path d="M1109.83,272.25a15,15,0,0,0,4.43-5.15c1.25-2,2.78-4.41,3.16-6.78a.92.92,0,0,0-1.67-.7c-1.26,1.86-2,4.11-3.13,6.05s-2.7,3.69-3.59,5.78c-.21.49.25,1.15.8.8Z" transform="translate(-0.14 0.38)"/></g></svg>