<svg xmlns="http://www.w3.org/2000/svg" xmlns:xlink="http://www.w3.org/1999/xlink" viewBox="0 0 363.17 399.28"><defs><style>.cls-1{fill:#fcd3ca;}.cls-2{fill:#2d0003;}.cls-3,.cls-4{stroke-miterlimit:10;}.cls-3{stroke:url(#Degradado_sin_nombre_4);}.cls-4,.cls-8{fill:#fff;}.cls-4{stroke:#000;}.cls-5{fill:#5c2f00;}.cls-6{fill:#c5f5ff;}.cls-7{fill:#dbff00;}.cls-9{fill:#e8e9ea;}.cls-10{fill:#e1ebeb;}</style><radialGradient id="Degradado_sin_nombre_4" cx="190.12" cy="222.69" r="130.85" gradientUnits="userSpaceOnUse"><stop offset="0" stop-color="#fff"/><stop offset="0" stop-color="#f6f6f6"/><stop offset="0.02" stop-color="#c8c8c8"/><stop offset="0.03" stop-color="#9d9d9d"/><stop offset="0.05" stop-color="#777"/><stop offset="0.06" stop-color="#575757"/><stop offset="0.08" stop-color="#3b3b3b"/><stop offset="0.11" stop-color="#252525"/><stop offset="0.13" stop-color="#141414"/><stop offset="0.16" stop-color="#090909"/><stop offset="0.21" stop-color="#020202"/><stop offset="0.33"/></radialGradient></defs><title>SoN</title><g id="Capa_2" data-name="Capa 2"><path class="cls-1" d="M17.14,156.62c-5.12,11.19-5.89,22.1-7,38a178.43,178.43,0,0,0,9,69c6,17.69,13.25,29.94,21,43a289,289,0,0,0,26,37,238.7,238.7,0,0,0,36,36c14.21,11.35,25,19.94,42,26,20.71,7.36,38.34,6.58,49,6,6.1-.33,30.65-2.05,59-16,22.85-11.25,36.46-24.67,52-40,14.51-14.32,31.86-31.73,46-60a193,193,0,0,0,17-50c3.42-18.09,3.23-32.07,3-45-.54-30.21-.8-45.31-7-55-14.86-23.25-67.14-22.84-127-3-15.67-12.36-51.53-36.77-101-38C97.45,103.68,35.8,115.81,17.14,156.62Z" transform="translate(-8.05 -14.05)"/><path class="cls-2" d="M359.14,73.62c0,11,3,47,7,75,1.42,10-16.5,14.66-29,17-21.5,4-39.07.65-49-1-78-13-154-60-152-59,1.63.82,4,1,0,1-1.23,0-3.73,1.79-5,6a186.39,186.39,0,0,1-22,17c-10.3,6.79-28.22,18.37-54,24a142.12,142.12,0,0,1-38,3q4-25.5,8-51v-33c10.62,3.94,25.28,9,43,14a556.92,556.92,0,0,0,93,18c80.1,8.2,123-6,175-18C346.38,84.25,359.14,70.62,359.14,73.62Z" transform="translate(-8.05 -14.05)"/><path class="cls-3" d="M13.14,182.62l50,11a14.63,14.63,0,0,0,2-10,13.64,13.64,0,0,0-2-5l86,9,9,3,5,6a6.2,6.2,0,0,0,3,6,6.32,6.32,0,0,0,8-2l8-2,9,2,8,5,4-8a30.39,30.39,0,0,1,9-7c7.17-3.63,13.76-3.18,20-3a265.25,265.25,0,0,0,31-1l29,1h13a21.51,21.51,0,0,0,3,19,129.16,129.16,0,0,0,17-4,132,132,0,0,0,42-22q1,7,2,14l-34,14-26,7q1,6,2,12-2,8.49-4,17-5.5,7-11,14l-14,7a96.4,96.4,0,0,1-31,0c-9-1.49-20.55-3.39-32-12-3.74-2.82-13.17-10.09-18-23a45.94,45.94,0,0,1-2-7l-8-6a24.06,24.06,0,0,0-12-2c-2.32.22-11.15,1.44-15,8-1.46,2.47-.95,3.58-2,7-2.08,6.76-6.67,11-10,14-15,13.72-46.18,10.22-48,10-12.44-1.52-22.52-2.76-31-11-14.1-13.7-11.46-34.77-11-38l-16-4-35-10C11.81,188.62,12.47,185.62,13.14,182.62Z" transform="translate(-8.05 -14.05)"/><path class="cls-4" d="M150.64,310.12a11.67,11.67,0,0,0,2,6,11.91,11.91,0,0,0,9,5c7.68.29,13-5,16-7,1.58-1.05,1.2,2.35,4,5a16.08,16.08,0,0,0,8,4c7.59,1.25,13.39-4.43,15-6,1.91-1.88,5-5.59,4-7-.71-1-3.33-.48-5,0l-19,2h-15Z" transform="translate(-8.05 -14.05)"/><path d="M327.64,138.16a1.67,1.67,0,0,0-.93.22.86.86,0,0,0,0,1.48,1.88,1.88,0,0,0,.93.22c1.23.06,1.24-2,0-1.92Z" transform="translate(-8.05 -14.05)"/><g id="Capa_3" data-name="Capa 3"><path class="cls-5" d="M70.69,275.57a1.84,1.84,0,0,0,.89-1.45,1,1,0,0,0-.94-.94,1.83,1.83,0,0,0-1.45.88c-.65.86.64,2.16,1.5,1.51Z" transform="translate(-8.05 -14.05)"/><path class="cls-5" d="M85.28,269.24a2.11,2.11,0,0,0-.75-.79.78.78,0,0,0-1.06,1.06,2.06,2.06,0,0,0,.8.75.75.75,0,0,0,1-1Z" transform="translate(-8.05 -14.05)"/><path class="cls-5" d="M106,267.24l.47.09a.73.73,0,1,0,0-1.42L106,266a.65.65,0,0,0,0,1.24Z" transform="translate(-8.05 -14.05)"/><path class="cls-5" d="M100.64,285.18a.56.56,0,0,0,0-1.12.56.56,0,0,0,0,1.12Z" transform="translate(-8.05 -14.05)"/><path class="cls-5" d="M115.14,273a.87.87,0,0,0,0-1.73.87.87,0,0,0,0,1.73Z" transform="translate(-8.05 -14.05)"/><path class="cls-5" d="M252.14,280.46l-.5,0a.62.62,0,0,0,0,1.24l.5,0c.84.06.84-1.37,0-1.31Z" transform="translate(-8.05 -14.05)"/><path class="cls-5" d="M247.14,300h-.5a.6.6,0,0,0,0,1.2h.5a.61.61,0,0,0,0-1.22Z" transform="translate(-8.05 -14.05)"/><path class="cls-5" d="M270.14,289.29a.67.67,0,0,0,0-1.34.67.67,0,0,0,0,1.34Z" transform="translate(-8.05 -14.05)"/><path class="cls-5" d="M289.9,273a1.33,1.33,0,0,0,1.36-.25.88.88,0,0,0,0-1.24,1.31,1.31,0,0,0-1.36-.25.91.91,0,0,0,0,1.74Z" transform="translate(-8.05 -14.05)"/><path class="cls-5" d="M309,276l-.15.16c-1.81,1.82,2.67,2.76,1.89.5l-.1-.29a1,1,0,0,0-2,0l-.09.29c-.78,2.26,3.7,1.32,1.89-.5l-.16-.16a.92.92,0,0,0-1.29,0Z" transform="translate(-8.05 -14.05)"/><path class="cls-5" d="M293.14,288.39l-.5.06a.67.67,0,0,0,0,1.34l.5,0c.93.11.93-1.56,0-1.45Z" transform="translate(-8.05 -14.05)"/><path class="cls-5" d="M191.13,257.48l-.28.11a1.08,1.08,0,0,0,0,2.06l.28.11c1.89.77,1.91-3.06,0-2.28Z" transform="translate(-8.05 -14.05)"/><path class="cls-5" d="M186.16,240.1c-.66-.57-1.61-1-2.35-.31s-.26,1.69.31,2.35a1.44,1.44,0,0,0,2-2Z" transform="translate(-8.05 -14.05)"/><path class="cls-5" d="M172.14,255.24a1.13,1.13,0,0,0,0-2.25,1.13,1.13,0,0,0,0,2.25Z" transform="translate(-8.05 -14.05)"/><path class="cls-5" d="M162.14,267a.85.85,0,0,0,0-1.69.85.85,0,0,0,0,1.69Z" transform="translate(-8.05 -14.05)"/><path class="cls-5" d="M228,278a2.66,2.66,0,0,0-.58.72.8.8,0,0,0,1.09,1.09,2.82,2.82,0,0,0,.71-.58c.81-.77-.45-2-1.22-1.23Z" transform="translate(-8.05 -14.05)"/><path class="cls-5" d="M263.64,271.8a1.82,1.82,0,0,0-.7.08.77.77,0,0,0,0,1.47,1.83,1.83,0,0,0,.7.09.82.82,0,0,0,0-1.64Z" transform="translate(-8.05 -14.05)"/><path class="cls-5" d="M273.93,278.85l-.48.07a.73.73,0,0,0,0,1.4l.48.07a.79.79,0,1,0,0-1.54Z" transform="translate(-8.05 -14.05)"/><path class="cls-5" d="M122.32,278l-.45.17a1,1,0,0,0,0,1.94l.45.17a1.18,1.18,0,1,0,0-2.28Z" transform="translate(-8.05 -14.05)"/><path class="cls-5" d="M128.33,259a2.38,2.38,0,0,0-.68.28,1,1,0,0,0,0,1.68,2.71,2.71,0,0,0,.68.28,1.16,1.16,0,1,0,0-2.24Z" transform="translate(-8.05 -14.05)"/><path class="cls-5" d="M101.88,269.91A1.34,1.34,0,0,0,102,271a.77.77,0,0,0,1.32,0,1.42,1.42,0,0,0,.1-1.09.79.79,0,0,0-1.52,0Z" transform="translate(-8.05 -14.05)"/><path class="cls-5" d="M121.14,265.76a.65.65,0,0,0,0-1.29.65.65,0,0,0,0,1.29Z" transform="translate(-8.05 -14.05)"/></g><path class="cls-6" d="M206.14,204.62c2.51-4.63,6.39-6.9,10-9a41.7,41.7,0,0,1,14-5c9.54-1.74,16.42-.61,23,0,26.68,2.47,37,0,44,1,4.32.61,1.6,6.44,4,19a88.31,88.31,0,0,1,2,16c.2,3-1.39,10.87-6,19a32.58,32.58,0,0,1-14,13c-9.58,4.49-18.55,2.41-29,0-7.32-1.69-24-5.77-38-20-4.52-4.59-10.84-11.17-12-21C203.84,215.1,203.29,209.86,206.14,204.62Z" transform="translate(-8.05 -14.05)"/><path class="cls-6" d="M152.14,194.62c2.12,1.39,3.23,2.92,5,7,.9,2.09,1.82,5.44,0,16-1.5,8.69-2.25,13-4,16-5.28,8.95-16.35,11.22-25,13-5,1-21.25,4.12-39-4-8.53-3.91-20.28-9.29-22-19-1.55-8.69,2.32-9,2-23-.2-8.71-1-17,2-18C77.14,180.62,95.14,186.62,152.14,194.62Z" transform="translate(-8.05 -14.05)"/><path class="cls-7" d="M26.14,70.62l6-16,3-22v-17l24,6,38,10c12,2.51,28,5.5,47,8a506.82,506.82,0,0,0,62,5c22.15.31,49.2.69,83-7a285.75,285.75,0,0,0,58-20,98.07,98.07,0,0,0,0,14,86.32,86.32,0,0,0,3,18,80.78,80.78,0,0,0,10,22,71.84,71.84,0,0,1-11,9c-10.36,6.86-19.45,8.53-36,12-33.76,7.07-27.05,6.35-37,8-6.45,1.06-21.76,3.44-48,5-22.4,1.33-40.92,2.43-63,1-32-2.09-57.4-9.32-82-16-11.37-3.09-20.68-6-27-8Z" transform="translate(-8.05 -14.05)"/><path class="cls-8" d="M286.67,230.16c.52.66-3.76,4.86-9,10s-9.43,9.43-10.09,8.9,2.62-5.72,8-11S286.18,229.51,286.67,230.16Z" transform="translate(-8.05 -14.05)"/><path class="cls-8" d="M276.59,214.58c.61.54-5,7.72-13.19,15.41s-15.65,12.89-16.15,12.26,6-6.83,14.1-14.45S276,214,276.59,214.58Z" transform="translate(-8.05 -14.05)"/><path class="cls-8" d="M245,206c.59.58-2.85,5.07-7.68,10s-9.23,8.53-9.83,8,2.85-5.08,7.68-10.05S244.44,205.44,245,206Z" transform="translate(-8.05 -14.05)"/><path class="cls-8" d="M147.14,222.61c.31.26-.26,1.61-1.63,3.51a36.09,36.09,0,0,1-14.09,11.22c-2.15.91-3.6,1.16-3.77.8s.92-1.31,2.72-2.64,4.3-3.12,6.94-5.23,4.94-4.13,6.64-5.59S146.8,222.35,147.14,222.61Z" transform="translate(-8.05 -14.05)"/><path class="cls-8" d="M137,209.47c.16.13-.1.73-.73,1.73A15.46,15.46,0,0,1,135,213c-.52.65-1.1,1.4-1.82,2.16s-1.49,1.62-2.4,2.46-1.9,1.71-3,2.61c-.53.45-1.11.87-1.69,1.31s-1.18.88-1.81,1.3c-1.24.87-2.59,1.68-4,2.5s-2.8,1.51-4.18,2.12c-.69.33-1.37.63-2,.89s-1.34.55-2,.78c-1.32.45-2.57.89-3.77,1.2s-2.31.59-3.34.79a27.23,27.23,0,0,1-2.8.45,16.56,16.56,0,0,1-2.13.17c-1.18,0-1.83-.06-1.86-.26s.56-.51,1.65-.89c.55-.18,1.22-.39,2-.66s1.65-.5,2.6-.85,2-.68,3.12-1.12,2.29-.9,3.52-1.4c.62-.25,1.23-.56,1.87-.84s1.28-.58,1.92-.91c1.31-.62,2.62-1.36,4-2.08s2.62-1.53,3.83-2.34c.61-.38,1.21-.77,1.77-1.18s1.15-.77,1.68-1.17c1.07-.8,2.1-1.54,3-2.3s1.79-1.44,2.56-2.1,1.46-1.27,2.08-1.79l1.58-1.37C136.23,209.69,136.79,209.33,137,209.47Z" transform="translate(-8.05 -14.05)"/><path class="cls-8" d="M120.57,195c.26.31-1.25,2.08-4,4.54-1.4,1.23-3.13,2.61-5.12,4.07-1,.71-2.06,1.47-3.18,2.19s-2.3,1.48-3.51,2.22-2.43,1.41-3.62,2-2.34,1.21-3.44,1.75c-2.22,1.06-4.26,1.93-6,2.58-3.49,1.3-5.77,1.78-5.92,1.41s1.82-1.57,5-3.34l5.63-3.1c1-.6,2.15-1.21,3.29-1.87l3.5-2.05,3.47-2.11c1.12-.68,2.18-1.37,3.2-2l5.4-3.47C118.32,195.89,120.3,194.7,120.57,195Z" transform="translate(-8.05 -14.05)"/><path class="cls-8" d="M277.09,198.07c.58.59-3.18,5.14-8.38,10.16s-9.89,8.59-10.47,8,3.18-5.15,8.39-10.16S276.52,197.47,277.09,198.07Z" transform="translate(-8.05 -14.05)"/></g><g id="Capa_1" data-name="Capa 1"><path d="M146.28,407.42c28.93,9.43,60.73,7,89.15-3.11,27.92-9.91,50.82-27.43,71.07-48.71,20.43-21.49,39.75-45.93,51.29-73.46,12.72-30.32,14.93-62.87,12.62-95.35-2.72-38.29-9.72-76.14-8.28-114.67a1.51,1.51,0,0,0-2.54-1.06c-7.27,5.79-14.87,11.37-23.64,14.65-8.2,3.07-16.95,4.55-25.49,6.31-24.58,5.06-49.33,9.34-74.34,11.69a411.61,411.61,0,0,1-131.76-8.55C77.68,89,51.63,80.37,26,70.68a1.49,1.49,0,0,0-1.89,1.44C27.45,126.85,1.81,179.83,9.5,234.49,13,259.12,24.69,282.61,37,304a280.2,280.2,0,0,0,43.52,57.47,220.67,220.67,0,0,0,65.69,46.07c1.61.72,3-1.66,1.4-2.39-44.09-19.87-79.22-55-104.23-96-12.82-21-25.34-44.53-30-68.86-5-26.12-1-52.86,3.72-78.7,5.42-29.57,11.85-59.2,10-89.45l-1.89,1.44c44.7,17,91,30.37,138.82,34.14,47.61,3.75,95.24-2.08,141.88-11.54,10.28-2.09,21-3.7,30.84-7.44,9.28-3.52,17.23-9.38,24.91-15.55l-2.54-1c-1.06,32.68,3.62,65,6.91,97.4,3.17,31.3,4.27,63.11-4.55,93.66-8.59,29.71-26.22,55.37-46.26,78.54-19,21.94-40.41,42-67,54.31-31.37,14.53-68,19.22-101.28,8.79-1.67-.52-2.36,2.06-.72,2.6Z" transform="translate(-8.05 -14.05)"/><path d="M360.61,72.55a108.61,108.61,0,0,1-12.56-54.93,1.21,1.21,0,0,0-2.41,0c-.57,19.57,3.57,38.86,13,56.07.7,1.27,2.63.13,1.94-1.14Z" transform="translate(-8.05 -14.05)"/><path d="M27.32,70.92c7.53-17.35,10.19-36.52,8.73-55.31-.12-1.53-2.54-1.55-2.42,0C35.08,34.4,32,52.53,25.52,70.16c-.38,1,1.36,1.78,1.8.76Z" transform="translate(-8.05 -14.05)"/><path d="M34.35,16.15C113.75,40.44,200.23,56,282.82,40a274.41,274.41,0,0,0,64.45-20.83c1.44-.68.18-2.82-1.26-2.15-75.18,35.18-163.24,31.45-242.6,14.35-23-5-45.67-11.41-68.49-17.3a1.07,1.07,0,0,0-.57,2.06Z" transform="translate(-8.05 -14.05)"/><path d="M70.85,37.6c.44-5.9-5-11.34-10.95-10.61s-10.2,7.48-8.34,13.22C53.76,47,61.62,48.79,65.65,54a9,9,0,0,1-3.42,13.59c-6,2.59-10.66-2-13.31-6.88-.58-1.07-2.5-.64-2.38.64.54,5.85,6.38,10.15,12.07,10.26,6.12.13,11.06-4.71,12-10.63,1-6.42-3.49-10.59-8.26-14-3.27-2.32-7.61-4.78-8-9.19-.32-3.21,1.94-6.91,5.21-7.73,4.86-1.21,8.56,3.16,9.05,7.5a1.16,1.16,0,0,0,2.32,0Z" transform="translate(-8.05 -14.05)"/><path d="M88.39,48c-5.3-2.9-12.3-.15-14.48,5.48s1,12.8,7,14.08a1.12,1.12,0,0,0,.85-2C78,63.27,75,59.1,76.67,54.6s6.81-6,11.07-5.12c.89.19,1.51-1,.65-1.52Z" transform="translate(-8.05 -14.05)"/><path d="M91,35.6c-.21,7.08,0,14-1.41,21s-4.14,13.3-7.17,19.74a1.31,1.31,0,0,0,2.25,1.32c7.47-11.53,11.28-28.82,7.48-42.19A.59.59,0,0,0,91,35.6Z" transform="translate(-8.05 -14.05)"/><path d="M88.88,58.14a10.81,10.81,0,0,0,11.93-1.2c.75-.64,0-2.1-1-1.71a18.35,18.35,0,0,1-10.31,1.43c-.84-.11-1.5,1-.63,1.48Z" transform="translate(-8.05 -14.05)"/><path d="M104.8,34.59c-3,6.43-5.17,13.31-7.55,20-2.52,7.12-5.82,14.5-7.16,21.95-.2,1.09,1.34,1.94,1.93.81,3.24-6.29,5-13.51,7.2-20.22,2.37-7.28,5.12-14.57,6.74-22.06.14-.66-.83-1.17-1.16-.49Z" transform="translate(-8.05 -14.05)"/><path d="M112.18,51.56c-4.13.24-8.93,3.6-10.11,7.68-.92,3.15.35,7.36,3.52,8.73,3.91,1.7,7.27-1.74,8.94-4.92,2.41-4.6,3.39-11.14.64-15.78-.51-.85-2.09-.56-2,.54.3,3.22,1,6.19.32,9.42-.63,3-2.32,8-5.91,7.65-4.11-.44-3-5.39-.89-7.58,1.77-1.83,4.24-2.71,6-4.58a.69.69,0,0,0-.48-1.16Z" transform="translate(-8.05 -14.05)"/><path d="M126.16,51.61a13.14,13.14,0,0,0-8.28,11.2c-.39,3.8.92,9.23,5.47,9.78,5,.6,8.05-5.44,9.11-9.35,1.43-5.26.75-11.47-2.77-15.74-.61-.74-2,0-1.64,1,2.16,5.37,4.46,13.65-.34,18.55-6.31,6.44-7.67-2.47-6.54-6.4.93-3.24,3.18-5.72,5.59-8a.62.62,0,0,0-.6-1Z" transform="translate(-8.05 -14.05)"/><path d="M144.67,47.17c-7.26,11.64-13,24.33-19.19,36.56a1.42,1.42,0,0,0,.84,2,23,23,0,0,0,15-1.21c1.18-.53.33-2.33-.85-2a28.49,28.49,0,0,1-13.45.56l.83,2c6.17-12.35,13-24.59,18-37.44.3-.75-.86-1.17-1.26-.53Z" transform="translate(-8.05 -14.05)"/><path d="M174.6,62.33c-3.68,2.17-7.71,5.38-6.53,10.23,1,4.15,5.21,5.6,8.67,3.19,3.27-2.29,7.19-7.81,5.62-12-1.18-3.12-5.52-4.84-7.68-1.82-.62.86.59,2,1.44,1.44a2.4,2.4,0,0,1,3.07.36c1.28,1.24.84,3.09.17,4.53-.94,2-2.71,4.6-4.74,5.66-3.17,1.65-4.73-2.08-3.94-4.6.73-2.34,2.95-4.36,4.66-6.05a.61.61,0,0,0-.74-1Z" transform="translate(-8.05 -14.05)"/><path d="M182.78,75.14c1.22-3.22,2.56-6.18,5-8.65s5.29-3.13,8.15-4.81a1,1,0,0,0-.52-1.92c-3.58-.2-7.42,2.69-9.75,5.17a15.07,15.07,0,0,0-4.46,10,.79.79,0,0,0,1.55.21Z" transform="translate(-8.05 -14.05)"/><path d="M182.57,70.56a20.76,20.76,0,0,0,6.22.8,1,1,0,0,0,.26-1.91,20.6,20.6,0,0,0-6.26-.5.82.82,0,0,0-.22,1.61Z" transform="translate(-8.05 -14.05)"/><path d="M217.31,98.23c5.16-4.62,6.67-11.26,7.61-17.87a101.37,101.37,0,0,0,0-27.29l-2.45.66a94.24,94.24,0,0,1,17,37.41c.33,1.52,2.7,1.15,2.69-.37-.07-17,7.65-30.79,19.9-42,1.06-1-.35-2.86-1.54-2-13.8,9.78-21.21,27.42-21.09,44l2.69-.36a96.14,96.14,0,0,0-17.35-38c-.67-.89-2.64-.8-2.45.67a105.77,105.77,0,0,1,.56,23.12c-.64,7.31-1.71,15.09-6.9,20.7a1,1,0,0,0,1.34,1.34Z" transform="translate(-8.05 -14.05)"/><path d="M252.83,73.72c4.78,1.88,12.43.5,13-5.61s-6.42-6.25-10-3.29c-4.51,3.7-7.22,11.14-3.92,16.42,2.6,4.16,9.2,6.39,12.91,2.47A1.11,1.11,0,0,0,263.5,82a6.79,6.79,0,0,1-8.58-1.37c-2.39-2.79-1.91-6.86-.32-9.92a11.7,11.7,0,0,1,3.74-4.4c2-1.32,5.7-.83,4.91,2.29-1.19,4.69-6.79,3.08-10.19,3.42a.88.88,0,0,0-.23,1.72Z" transform="translate(-8.05 -14.05)"/><path d="M271.4,83.62a66,66,0,0,1,.69-15.45,8.53,8.53,0,0,1,.78-3q.27-2.19,2.8-.75,3.42-.89,2.17,1.78c-.14,2.93-3.34,4.64-5.58,6A1.5,1.5,0,0,0,273.4,75,5.32,5.32,0,0,1,280,80.29a1.54,1.54,0,0,0,3.07,0,8.39,8.39,0,0,0-10.43-8.19l1.15,2.73c3.07-2,6.82-4.49,7.21-8.48.28-2.83-1.38-6.28-4.4-6.82-9.73-1.74-8.07,19.31-7.51,24.09.17,1.46,2.42,1.54,2.34,0Z" transform="translate(-8.05 -14.05)"/><path d="M287.9,60.53a56.9,56.9,0,0,1,1.22,17.06,1.13,1.13,0,0,0,1.68,1c5.93-3,11-9.1,8.8-16.13-1.5-4.79-9.22-9.38-13.19-4.56a1,1,0,0,0,1,1.69c2-.59,3.81-1.37,5.92-.63,2.95,1,4.45,4.08,4.42,7-.05,5-3.93,8.54-8.06,10.67l1.68,1A54.32,54.32,0,0,0,289.71,60a.94.94,0,0,0-1.81.49Z" transform="translate(-8.05 -14.05)"/><path d="M313.66,54.27c-2.75-4.78-9.39-.29-9.55,4.09-.1,2.73,1.53,4.75,3.73,6.17,1.94,1.24,4.8,1.87,6.06,4,2.52,4.3-2.07,6.68-5.58,7-1,.1-1.62,1.5-.56,2,4.77,2.5,10-2.28,9.65-7.2a7.73,7.73,0,0,0-3.49-5.88c-1.44-1-3.18-1.52-4.61-2.53l-1.91-1.77,1.26-4.72c.79-.73,3.34-.31,4.49-.38a.59.59,0,0,0,.51-.88Z" transform="translate(-8.05 -14.05)"/><path d="M16.73,158c45.35,1.81,90.33-17.44,120.66-51.15,1-1.11-.64-2.76-1.65-1.64a154.64,154.64,0,0,1-119,50.63c-1.39,0-1.39,2.1,0,2.16Z" transform="translate(-8.05 -14.05)"/><path d="M135,105.26a422.82,422.82,0,0,0,86.49,42.34,437.4,437.4,0,0,0,46.94,13.93c16.34,3.86,33.08,7.14,49.94,7s33.74-4,48-13.27c1.29-.85.08-2.94-1.22-2.09-28.56,18.59-63.87,13.53-95.2,6.19a439.26,439.26,0,0,1-87.83-30.7,491.75,491.75,0,0,1-46.09-25.17c-1.13-.69-2.13,1-1,1.76Z" transform="translate(-8.05 -14.05)"/><path d="M164.35,224.83c8.77-9.22,23.88-10.11,33.07-1.15,1.12,1.1,2.84-.62,1.72-1.72-9.62-9.43-27.47-9.6-36.21,1.44-.79,1,.5,2.39,1.42,1.43Z" transform="translate(-8.05 -14.05)"/><path d="M166.16,206.64c9.79-7.61,22.23-8.92,31.75.23,1.19,1.15,3-.68,1.82-1.82-9-8.55-26.91-10.93-34.73.69-.51.76.55,1.37,1.16.9Z" transform="translate(-8.05 -14.05)"/><path d="M199.51,206.76c6.16-19.74,30-19.92,46.84-19.43q29.36.84,58.7,1.72l-1.23-1.61a22.87,22.87,0,0,0,3.61,19.39,1.46,1.46,0,0,0,1.55.63,137.06,137.06,0,0,0,58.51-25.57c1.4-1,0-3.46-1.4-2.39a137.51,137.51,0,0,1-57.84,25.31l1.55.63a20.24,20.24,0,0,1-3.52-17.32,1.29,1.29,0,0,0-1.23-1.62c-22.65-.64-45.39-1.92-68.05-1.84-15.78.06-34.55,4.37-39.71,21.49a1.15,1.15,0,0,0,2.22.61Z" transform="translate(-8.05 -14.05)"/><path d="M368.22,193.29c-19.25,9.36-38.32,17.12-59.45,21.16a1.47,1.47,0,0,0-1,1.8,38.82,38.82,0,0,1-5.39,33.05c-8.12,11.89-21.37,16.64-35.4,16.42-26.1-.4-63.07-11.62-66.59-42.12-.22-1.88-3.18-1.91-3,0,3.46,32.82,43.11,45.38,71.28,45.1,14-.14,27.1-5.26,35.48-16.83a41.84,41.84,0,0,0,6.43-36.4l-1,1.81c20.63-4,41.87-10.91,59.72-22.21a1,1,0,0,0-1-1.78Z" transform="translate(-8.05 -14.05)"/><path d="M166.67,206c3.63-19-21.8-20.7-34.33-22Q98,180.28,63.58,176.7a1.53,1.53,0,0,0-1.47,1.93,18.91,18.91,0,0,1,1.32,7.48,17.43,17.43,0,0,1-.77,4.35c-.76,1.64-1.93,2.12-3.51,1.42-5.07.32-11.38-1.74-16.34-2.79a203.05,203.05,0,0,1-29-8.42c-2-.73-2.82,2.41-.87,3.14a203.77,203.77,0,0,0,50,11.57,1.49,1.49,0,0,0,1.33-.76,21.21,21.21,0,0,0,.82-16.8l-1.48,1.93q27.51,2.87,55,5.73c9.24.94,18.65,1.45,27.82,3,8.56,1.42,19.41,6.32,18,16.91-.21,1.48,2,2.17,2.3.63Z" transform="translate(-8.05 -14.05)"/><path d="M162.54,223.82c-3,17-18,26.2-34.08,28.75s-37.19,2.74-50.92-7C71,241,65.82,234.36,64.11,226.48c-1.27-5.88-.85-11.75-.88-17.7,0-2.42-.06-3.88-2.24-5.15-3-1.74-7-2.2-10.35-2.89-12.75-2.64-26.38-4.22-38.23-9.94-1.76-.85-3.31,1.78-1.54,2.63,11.29,5.47,24.07,7.3,36.27,9.64,3,.58,10.32.85,12.59,3.18,1,1,.6,2.79.57,4.3-.07,3.16-.14,6.31.07,9.47a36.63,36.63,0,0,0,22.34,31.75c7.74,3.38,16.37,4.36,24.74,4.59s17,0,25.18-1.84c15.34-3.36,30.16-13.79,32.15-30.4.15-1.27-2-1.56-2.24-.3Z" transform="translate(-8.05 -14.05)"/><path d="M187.22,114.55c9.5,6.21,20.31,10.92,30.75,15.31A293.91,293.91,0,0,0,252.64,142a296.54,296.54,0,0,0,70.17,10.7c1.72.06,1.72-2.61,0-2.67a294.1,294.1,0,0,1-69.45-10.62,297.24,297.24,0,0,1-32.2-11c-11.3-4.6-21.86-10.44-32.84-15.68a1.09,1.09,0,0,0-1.1,1.88Z" transform="translate(-8.05 -14.05)"/><path d="M259.34,112.42c10.48,6.23,23.56,9.63,35.41,12a168.9,168.9,0,0,0,37.4,3.27,1.2,1.2,0,0,0,0-2.39A169.3,169.3,0,0,1,294.5,122c-12-2.48-23-7.06-34.67-10.74a.65.65,0,0,0-.49,1.18Z" transform="translate(-8.05 -14.05)"/><path d="M89.07,103.88c-7.55,6.05-14.69,12.3-23.07,17.23a109.5,109.5,0,0,1-12.47,6.3c-4.1,1.76-8.54,2.85-12.52,4.83-.87.44-.5,2,.51,1.9,8.83-1.08,18.24-6.34,25.78-10.8,8.29-4.91,16.66-11,22.67-18.56a.64.64,0,0,0-.9-.9Z" transform="translate(-8.05 -14.05)"/><path d="M68.23,93.76c-4.83,4.42-8.75,9.2-14.31,12.85-5.15,3.39-10.71,5.13-16.29,7.57-1,.43-.52,2.22.56,2.08,11.44-1.52,26-11.31,31-21.8a.58.58,0,0,0-.91-.7Z" transform="translate(-8.05 -14.05)"/><path d="M52.5,87.72l-6.75,4.56c-2,1.37-4.3,2.6-6,4.38-.5.53,0,1.65.78,1.33a34.5,34.5,0,0,0,6.24-3.94l6.72-4.63c1-.72.06-2.42-1-1.7Z" transform="translate(-8.05 -14.05)"/><path d="M162.86,223.14c-.8,15.51-4.1,29.29-14,41.72-1,1.25.77,3,1.77,1.77,9.4-11.79,16-28.17,14-43.49a.93.93,0,0,0-1.86,0Z" transform="translate(-8.05 -14.05)"/><path d="M151.34,284.13c3.86,2.37,9.26.42,13.1-.9,1.65-.56.49-3-.89-2.12a14.07,14.07,0,0,1-6.38,2c-1.85.16-3.71-.26-5.53,0a.59.59,0,0,0-.3,1.09Z" transform="translate(-8.05 -14.05)"/><path d="M187.3,281c3.6,3.63,9.9,6.84,15.13,5.21a1.12,1.12,0,0,0-.29-2.19c-2.33-.27-4.54-.13-6.83-.87a16,16,0,0,1-6.29-3.87A1.22,1.22,0,0,0,187.3,281Z" transform="translate(-8.05 -14.05)"/><path d="M208.71,284.41c5.66-4.15,7.72-15.94,2.87-21.37-.74-.83-1.82.09-1.68,1,.51,3.27,1.76,6.11,1.43,9.54-.35,3.69-2.15,6.52-3.73,9.74-.32.65.39,1.63,1.11,1.11Z" transform="translate(-8.05 -14.05)"/><path d="M164.64,283c2.26-1,4.47-2.1,6.66-3.22,1.24-.64.14-2.52-1.1-1.88-2.19,1.12-4.37,2.27-6.48,3.52-1,.61-.13,2,.92,1.58Z" transform="translate(-8.05 -14.05)"/><path d="M131.38,304.54c31.6,12.86,67.86,12.3,99.25-.87a1.18,1.18,0,1,0-.91-2.17,130.85,130.85,0,0,1-97.83,1.21c-1.15-.45-1.62,1.37-.51,1.83Z" transform="translate(-8.05 -14.05)"/><path d="M150.19,310.19c-.24,5.74,4,10.34,9.45,11.67,7,1.69,13.5-2.41,18.51-6.81l-1.68-.21a18.7,18.7,0,0,0,33.77-4.21c.48-1.5-1.84-2.11-2.35-.64-4.68,13.27-21.73,15.6-29.58,3.77a1.08,1.08,0,0,0-1.67-.22c-3.78,3.6-8.54,6.89-14,6.88-5.79,0-11.11-4.19-11.11-10.23a.68.68,0,0,0-1.36,0Z" transform="translate(-8.05 -14.05)"/><path d="M160.71,359c5.7-1.49,11.06-3.22,17-3.31s11.35,1.48,17.11,2.89c1,.24,1.65-1.18.7-1.67-10-5.26-25.69-5-35.35.92a.64.64,0,0,0,.5,1.17Z" transform="translate(-8.05 -14.05)"/><path class="cls-9" d="M177.69,217.49l-6.16-18a24.43,24.43,0,0,1,22.58.75,172.14,172.14,0,0,1-3.75,19.09q-6.17-1.14-12.42-1.71l-.41-.6" transform="translate(-8.05 -14.05)"/><path class="cls-10" d="M177.53,217c.09-.06.31.09.58.32l.65-.06,1.05,0c.79,0,1.75,0,2.85.1s2.36.16,3.74.31l2.17.26.49.06.25,0c.1,0,.23.07.21-.09l0-.14a1.37,1.37,0,0,1,.05-.29l.26-1.25c.17-.85.35-1.72.53-2.62.36-1.79.71-3.69,1.05-5.66s.66-4,1-6.18c.11-.73.08-.59.1-.7s0,0,0,0,0,0,0,0l-.35-.18a21.69,21.69,0,0,0-2.94-1.17,23.14,23.14,0,0,0-7-1.14,23.41,23.41,0,0,0-6.58.84,15.35,15.35,0,0,0-1.5.47l-.7.25-.12,0s-.12,0-.11,0l0,.1v.06l.1.34c.08.24.15.48.23.72.58,1.92,1.13,3.7,1.62,5.33,2,6.54,3,10.65,2.56,10.78s-2.11-3.73-4.56-10.09l-2-5.22-.64-1.77L170,199l-.06-.17c0-.06-.07-.13,0-.14l.33-.16.66-.3,1.34-.63.83-.33a17.11,17.11,0,0,1,1.66-.59,24.78,24.78,0,0,1,7.37-1.13,25.47,25.47,0,0,1,11.25,2.56l1.09.59.74.39c.21.14.6.21.44.52-.13.85-.25,1.7-.38,2.54-.33,2.16-.71,4.25-1.11,6.25s-.84,3.91-1.28,5.72c-.23.9-.45,1.77-.67,2.62-.3,1.11-.59,2.19-.88,3.23l-.14.51c0,.13-.11.07-.19.06l-.26,0-1-.21-1.54-.31-2.11-.44-3.64-.71-2.77-.55-1-.22c-.38-.08-.67-.15-.9-.22C177.51,217.3,177.45,217,177.53,217Z" transform="translate(-8.05 -14.05)"/><path d="M171.14,203.59a.47.47,0,0,0,0-.94.47.47,0,0,0,0,.94Z" transform="translate(-8.05 -14.05)"/><path d="M169.11,197.89a32.78,32.78,0,0,0,2.55,8c1,2.57,1.77,5.29,3,7.8.27.58,1.11.16,1-.41-.61-2.84-1.76-5.58-2.53-8.38a29.44,29.44,0,0,0-2.64-7.33c-.33-.56-1.39-.37-1.31.35Z" transform="translate(-8.05 -14.05)"/><path d="M175,215c1.14,6.3,18.31,8.81,16.86,1.44a.62.62,0,0,0-1.18,0c-.29,1.7-3,2.77-4.59,2.87a15.25,15.25,0,0,1-4.24-.61,9.36,9.36,0,0,1-5.9-4.1.52.52,0,0,0-.95.4Z" transform="translate(-8.05 -14.05)"/><path d="M194.46,199c-1.29,2.53-1.2,5.41-1.25,8.21-.06,3.58-.59,7.11-.72,10.67,0,.72,1.13.9,1.26.17.62-3.5.85-7.06,1.54-10.56.53-2.73,1.26-5.57.54-8.31a.76.76,0,0,0-1.37-.18Z" transform="translate(-8.05 -14.05)"/><path d="M191.58,220.74c1.24-1.82,1.51-4.31,1.88-6.45s.94-4.43,1.19-6.67c.09-.89-1.21-1-1.48-.2-.84,2.35-1.39,4.86-2,7.27a14.66,14.66,0,0,0-.83,5.88c.09.66,1,.61,1.28.17Z" transform="translate(-8.05 -14.05)"/><path d="M195.63,197.69c-6.83-5-18.45-3.4-25.62,0a.74.74,0,0,0,.57,1.35,35,35,0,0,1,12.25-2.45c4.33.07,8.1,1.63,12.31,2.21a.63.63,0,0,0,.49-1.15Z" transform="translate(-8.05 -14.05)"/><path d="M173.91,203.64a54.29,54.29,0,0,0,3.79,6.1c1.24,2,2.09,4.37,3.52,6.27a.78.78,0,0,0,1.41-.6c-.63-2.35-2.15-4.49-3.42-6.55a23.31,23.31,0,0,0-4.42-5.9.56.56,0,0,0-.88.68Z" transform="translate(-8.05 -14.05)"/><path d="M176.75,197.43a68.37,68.37,0,0,0,4,8.76c1.55,3.23,2.88,6.63,4.61,9.75a.71.71,0,0,0,1.29-.54,68,68,0,0,0-4-9.56,43.88,43.88,0,0,0-5-9c-.37-.47-1.14,0-1,.57Z" transform="translate(-8.05 -14.05)"/><path d="M185,195.71c-1.4.75-1.34,2.5-1.63,3.93-.4,2-.78,4.06-1.13,6.11-.27,1.61,2.18,2.32,2.49.68.4-2.17.76-4.34,1.1-6.52.22-1.43.8-2.95-.23-4.12a.5.5,0,0,0-.6-.08Z" transform="translate(-8.05 -14.05)"/><path d="M185.83,214.25a15,15,0,0,0,4.43-5.15c1.25-2,2.78-4.41,3.16-6.78a.92.92,0,0,0-1.67-.7c-1.26,1.86-2,4.11-3.13,6s-2.7,3.69-3.59,5.78c-.21.49.25,1.15.8.8Z" transform="translate(-8.05 -14.05)"/></g></svg>