<svg id="Capa_4" data-name="Capa 4" xmlns="http://www.w3.org/2000/svg" viewBox="0 0 389 417"><defs><style>.cls-1{fill:#fff;}</style></defs><title>unity logo</title><rect width="389" height="417"/><path class="cls-1" d="M150.85,174.15c-3.21,6.17-2.09,14.39-2.22,21.19-.15,7.32-.63,14.85,0,22.15,1.21,13.86,10.21,24.51,24.29,26.5,35.58,5,32.71-45.62,31.31-67.73-.54-8.57-14.07-8.54-13.35,0,1.06,12.61,2.34,25.63,0,38.18-1.75,9.56-5.88,19.8-17.68,17.14-12-2.7-12.59-13.52-12.48-23.83.06-5.68,0-11.35-.11-17s.56-11.4-2-16.57c-1.48-3-6.33-2.9-7.85,0Z" transform="translate(0.86 0.38)"/><path class="cls-1" d="M217.65,232.8c1.64-4.05,1.33-8.65,1.44-13,.14-5,.32-9.9.36-14.86q.11-14.35.22-28.72c.06-7.12-11-7.12-11,0q-.1,14.35-.22,28.72c0,4.63,0,9.25.1,13.87s-.41,9.6,1.27,14c1.51,3.91,6.34,3.82,7.88,0Z" transform="translate(0.86 0.38)"/><path class="cls-1" d="M219.92,193.38c2.57-3.85,6.71-7,11.55-6.65,6.13.47,7.21,5.15,7.42,10.37.51,12.33.76,24.66,1.14,37,.23,7.57,12,7.61,11.79,0L251,204.55c-.21-7.59.22-16.15-5.16-22.22-10.15-11.46-28.87-5.57-33.8,7.72-1.79,4.81,5.31,7.19,7.89,3.33Z" transform="translate(0.86 0.38)"/><path class="cls-1" d="M259.51,182.19c-.46,17.28.9,34.63,1.64,51.89.34,8.09,13,8.13,12.63,0-.78-17.28-1-34.7-2.94-51.89-.81-7.08-11.13-7.47-11.33,0Z" transform="translate(0.86 0.38)"/><path class="cls-1" d="M264.28,153.94a7.81,7.81,0,0,0-5.8,2.83,6.3,6.3,0,0,0-1.16,5.73c1.33,4.32,6.61,5.37,10.48,4.35,4.1-1.07,7.44-5.17,5.16-9.41s-8.47-5.76-12.14-2.72c-1.69,1.4-1.34,4.91.75,5.81a14.21,14.21,0,0,0,3,.9,7.75,7.75,0,0,1,1.15.29c.3.1.25.08-.13-.05.36.23.41.25.17.05s-.2-.17.09.09a1.84,1.84,0,0,1-.46-.87,2.5,2.5,0,0,1,.21-1.76c.17-.31,1.12-.83.49-.57-.79.32.8-.14-.16.1-.34.09-.66.18-1,.25.94-.21-.06-.05-.27,0-.89.07.57.23-.24,0s.49.41-.16-.08a2.45,2.45,0,0,1,1,2c-.13.66-.14.77,0,.32l-.17.48c-.54,1.21.37-.44,0,.05-.24.18-.19.17.15-.05-.41.17-.38.18.07,0a3.9,3.9,0,0,0,2.8-4.28c-.27-1.76-1.88-3.57-3.84-3.38Z" transform="translate(0.86 0.38)"/><path class="cls-1" d="M296.87,175.31c-1.47,9.73-.59,20-.88,29.86-.3,10-2.09,20.51-1.57,30.49.33,6.17,9.91,8.2,11.31,1.53,2.07-9.91,1.53-20.93,1.7-31s1-21-1.11-30.85c-.95-4.53-8.73-4.82-9.45,0Z" transform="translate(0.86 0.38)"/><path class="cls-1" d="M277.37,179.43c7,3.08,16.08,1.83,23.6,1.81,8.32,0,17,.52,25.27-.81,5.86-1,3.6-8.89-1.28-9.48-8.11-1-16.83,0-25,.33-7.18.26-16-.59-22.6,2.62-2,1-2.16,4.58,0,5.53Z" transform="translate(0.86 0.38)"/><path class="cls-1" d="M333.65,177.75c2.75,5.8,6.5,11.18,9.39,16.95a193.72,193.72,0,0,1,8,18c2.53,6.62,13.28,3.78,10.75-3-4.9-13-10.89-27.55-20.2-38.09-4-4.57-10.27,1.24-8,6.13Z" transform="translate(0.86 0.38)"/><path class="cls-1" d="M372,167.35c-6.38,11.09-10.86,23.36-17,34.65a309.94,309.94,0,0,1-20.41,32.88c-4.63,6.48,6.08,12.66,10.66,6.24a277.75,277.75,0,0,0,20.82-33.69c5.82-11.29,12.29-23.81,14.71-36.36,1-5.16-6-8.7-8.82-3.72Z" transform="translate(0.86 0.38)"/><path class="cls-1" d="M120.35,243.56c1-4.87-4.74-8.85-7.61-12.29-4.08-4.88-8.07-9.83-12.07-14.77-8.09-10-16.12-20.14-24.87-29.62-3.26-3.54-8.54,1.75-5.28,5.28,8.56,9.24,16.42,19.08,24.33,28.87,3.81,4.71,7.62,9.43,11.6,14,2.81,3.25,7,10.62,11.88,10.06a2.15,2.15,0,0,0,2-1.54Z" transform="translate(0.86 0.38)"/><path class="cls-1" d="M75.73,191A387.79,387.79,0,0,0,97.3,143.66c1.52-3.94-4.81-5.64-6.32-1.74A493,493,0,0,1,70.6,188c-1.74,3.39,3.28,6.38,5.13,3Z" transform="translate(0.86 0.38)"/><path class="cls-1" d="M73.16,185.94c-10.47.91-21.23,3.74-31.39,6.46-4.16,1.12-8.31,2.31-12.46,3.5-4.91,1.42-11.88,1.9-14.91,6.3a3.11,3.11,0,0,0,1.11,4.24c4.85,2.12,10.57-.88,15.45-2.27,4.18-1.19,8.36-2.39,12.57-3.52C53.61,198,64.24,196.3,74.12,193c3.6-1.21,3.29-7.4-1-7Z" transform="translate(0.86 0.38)"/><path class="cls-1" d="M133.19,185.46c-1.21.83-4.17-1.21-8-5.08a192.8,192.8,0,0,1-13.57-15.86q-1.89-2.37-3.63-4.64c-1.16-1.5-2.27-3-3.33-4.37s-2-2.76-2.94-4S100,149,99.23,147.84c-3-4.53-4.41-7.8-3.37-8.84s4.35.4,8.8,3.73c1.1.85,2.3,1.78,3.52,2.86s2.5,2.24,3.8,3.53,2.62,2.67,3.94,4.15,2.65,3.06,4,4.71a94.78,94.78,0,0,1,11.42,18.15C133.62,181.14,134.39,184.65,133.19,185.46Z" transform="translate(0.86 0.38)"/><path class="cls-1" d="M132.79,185.73c.71.17,1.17,1.14,1.39,2.78a15.8,15.8,0,0,1,.12,2.94,37.76,37.76,0,0,1-.33,3.78c-.21,1.38-.45,2.9-.82,4.47s-.77,3.27-1.26,5-1,3.52-1.65,5.35-1.23,3.69-1.89,5.58-1.26,3.68-1.87,5.44c-.31.88-.59,1.73-.85,2.57s-.58,1.65-.8,2.45l-.74,2.34c-.24.76-.42,1.5-.65,2.21-.46,1.43-.78,2.78-1.16,4s-.64,2.37-1,3.38-.61,1.89-.92,2.62c-.62,1.46-1.3,2.31-2,2.35s-1.43-.78-2.08-2.33a13.64,13.64,0,0,1-.86-2.85,28,28,0,0,1-.54-3.87,38.45,38.45,0,0,1,0-4.71c0-.84.08-1.72.18-2.61s.24-1.81.37-2.75.34-1.87.53-2.84.42-1.94.69-2.92c.5-2,1.12-3.95,1.8-5.95s1.42-3.9,2.16-5.7,1.49-3.51,2.22-5.12,1.44-3.12,2.13-4.52,1.32-2.7,2-3.87,1.2-2.24,1.78-3.17,1.08-1.71,1.57-2.34C131.2,186.19,132.09,185.55,132.79,185.73Z" transform="translate(0.86 0.38)"/><path class="cls-1" d="M30.37,149.11c-.13-.72.66-1.54,2.24-2.42a17.4,17.4,0,0,1,3-1.26c.58-.21,1.21-.41,1.88-.61s1.37-.36,2.11-.54c1.49-.37,3.11-.67,4.86-1s3.6-.51,5.57-.73c3.9-.41,8.17-.69,12.59-.89l12.32-.52,5.29-.25c1.63-.12,3.2-.14,4.58-.28.69-.05,1.36-.09,2-.11l1.78-.14c1.12-.07,2.14-.06,3-.11,1.65,0,2.79.24,3.12.9s-.22,1.64-1.58,2.91A14,14,0,0,1,90.36,146c-.55.32-1.14.69-1.79,1s-1.33.6-2.06.9a43.71,43.71,0,0,1-4.86,1.66c-1.76.49-3.66.91-5.65,1.28s-4.1.67-6.26.88-4.39.38-6.67.51c-4.56.21-8.85.19-12.73.07-1.92-.05-3.77-.15-5.47-.24s-3.31-.23-4.75-.34c-.73-.07-1.42-.14-2.08-.22s-1.26-.13-1.84-.21c-1.17-.16-2.18-.36-3-.53C31.52,150.37,30.5,149.82,30.37,149.11Z" transform="translate(0.86 0.38)"/><path class="cls-1" d="M13.14,203.87c-.47-.55-.33-1.65.22-3.06.14-.36.32-.71.49-1.12s.35-.87.55-1.34.44-.94.69-1.43l.69-1.65c.24-.57.53-1.13.78-1.76s.5-1.28.78-1.94.54-1.36.79-2.09.54-1.47.83-2.23c.48-1.57,1.08-3.15,1.56-4.89s1-3.51,1.52-5.34.95-3.67,1.34-5.46.78-3.5,1.19-5.14.71-3.24,1-4.72l.95-4.14c.32-1.28.62-2.44.9-3.46s.62-1.92.91-2.65c.61-1.47,1.29-2.32,2-2.34s1.44.77,2.1,2.29a16.33,16.33,0,0,1,.88,2.8A30.52,30.52,0,0,1,34,158a44.42,44.42,0,0,1,.31,4.57c.07,1.64,0,3.4-.11,5.25s-.32,3.79-.68,5.78-.77,4.06-1.28,6.15a60.12,60.12,0,0,1-2,6,53.41,53.41,0,0,1-2.43,5.44c-.45.85-1,1.65-1.41,2.43A21.89,21.89,0,0,1,25,195.83c-.51.7-1,1.36-1.5,2s-1.06,1.18-1.57,1.71-1,1-1.49,1.48-1,.81-1.51,1.16-.93.66-1.36.93a9.93,9.93,0,0,1-1.28.62C14.66,204.38,13.61,204.43,13.14,203.87Z" transform="translate(0.86 0.38)"/><ellipse class="cls-1" cx="35.91" cy="222.62" rx="5.27" ry="27.1" transform="translate(-138.41 81.01) rotate(-41.81)"/><path class="cls-1" d="M118.33,243c0,.72-1,1.41-2.7,2-.86.3-1.9.58-3.12.87s-2.58.54-4.11.82c-3,.52-6.66,1-10.71,1.4s-8.55.72-13.33.81c-2.39,0-4.73,0-7-.08s-4.47-.26-6.56-.48-4.08-.51-5.92-.87-3.56-.76-5.11-1.17A43.31,43.31,0,0,1,55.64,245a21,21,0,0,1-3-1.42c-1.61-.94-2.41-1.8-2.26-2.51s1.22-1.22,3-1.53c.89-.16,2-.25,3.18-.37s2.6-.13,4.12-.21,3.16-.08,4.93-.15l5.63-.12,12.94-.27c4.63-.09,9.1-.11,13.19,0a104.1,104.1,0,0,1,10.94.85c1.56.2,3,.48,4.21.75a22.59,22.59,0,0,1,3.17.91C117.41,241.57,118.35,242.28,118.33,243Z" transform="translate(0.86 0.38)"/></svg>