<svg id="Capa_4" data-name="Capa 4" xmlns="http://www.w3.org/2000/svg" viewBox="0 0 389 417"><defs><style>.cls-1{fill:#fff;}</style></defs><title>unreal logo</title><rect width="389" height="417"/><path class="cls-1" d="M320.25,139.12c-.29-52.73-33.59-100.76-83.2-119C187.17,1.85,129.43,17.72,95.8,58.78S57.73,159.1,85.21,204.52c27.36,45.24,81.26,69,133.12,58.79,51.24-10,92.26-52.59,100.33-104.19a134,134,0,0,0,1.59-20c0-3.36-5.2-3.37-5.22,0-.28,50.51-32.26,96.93-80,114.15s-102.18,2.37-134.71-36.5c-32.8-39.2-37-96.73-10.6-140.42C116,33,167.89,10.08,217.6,20.09c49.12,9.89,87.91,50.31,95.92,99.74A125.83,125.83,0,0,1,315,139.12C315.05,142.48,320.27,142.48,320.25,139.12Z" transform="translate(0.86 0.38)"/><path class="cls-1" d="M67.65,275.92l-2.12,15.32c-.7,5-2,10.38-.59,15.39,2.62,9.44,12.55,12.11,21.18,12.7,8.24.55,18.18.18,22.8-7.94,2.39-4.19,2.11-9.39,2.22-14l.39-16.73c.16-6.72-10.28-6.72-10.44,0s-.21,13.64-.48,20.45c-.11,3-.15,5.57-3.11,7.08s-6.58,1-9.67.83c-2.86-.15-6.06-.17-8.74-1.32-4-1.72-4.58-4.63-4.17-8.71.69-6.77,1.86-13.52,2.8-20.26.9-6.57-9.16-9.41-10.07-2.77Z" transform="translate(0.86 0.38)"/><path class="cls-1" d="M126,310.6a241.45,241.45,0,0,1,2.85-29.27c1.06-6.57-9-9.4-10.07-2.77a262.81,262.81,0,0,0-3.22,32c-.26,6.72,10.18,6.71,10.44,0Z" transform="translate(0.86 0.38)"/><path class="cls-1" d="M119.91,279.16A129.85,129.85,0,0,0,140,314.42c4.19,5.26,11.53-2.17,7.39-7.38A114.09,114.09,0,0,1,130,276.39c-2.36-6.23-12.45-3.53-10.07,2.77Z" transform="translate(0.86 0.38)"/><path class="cls-1" d="M149,311.94l3.56-33.31c.71-6.67-9.73-6.62-10.44,0l-3.56,33.31c-.72,6.68,9.73,6.63,10.44,0Z" transform="translate(0.86 0.38)"/><path class="cls-1" d="M159.7,277.3,158,314.62c-.31,6.72,10.13,6.7,10.44,0l1.71-37.32c.31-6.71-10.14-6.7-10.44,0Z" transform="translate(0.86 0.38)"/><path class="cls-1" d="M165.94,283.75c2.81-.22,11.58-1.46,12.21,3.08s-8.46,4.29-10.94,4.32c-6.72.08-6.74,10.52,0,10.44,5-.06,10.4-.32,14.74-3.15,4-2.61,6.84-6.95,6.66-11.83-.43-11.73-13.49-14-22.67-13.31-6.66.52-6.72,11,0,10.45Z" transform="translate(0.86 0.38)"/><path class="cls-1" d="M166.47,300.74a17,17,0,0,1,16.22,13.95c1.32,6.58,11.39,3.79,10.07-2.78-2.48-12.41-13.77-21.37-26.29-21.61-6.73-.13-6.73,10.31,0,10.44Z" transform="translate(0.86 0.38)"/><path class="cls-1" d="M198.83,278l.22,34.66c0,6.72,10.48,6.74,10.44,0L209.27,278c-.05-6.72-10.49-6.73-10.44,0Z" transform="translate(0.86 0.38)"/><path class="cls-1" d="M203.8,318.89l28.67-.33c6.72-.08,6.73-10.52,0-10.44l-28.67.33c-6.71.08-6.73,10.52,0,10.44Z" transform="translate(0.86 0.38)"/><path class="cls-1" d="M205.8,298.41l12.67-1.28c2.8-.29,5.22-2.2,5.22-5.23,0-2.6-2.4-5.5-5.22-5.22L205.8,288c-2.81.29-5.23,2.2-5.23,5.23,0,2.6,2.4,5.5,5.23,5.22Z" transform="translate(0.86 0.38)"/><path class="cls-1" d="M203.64,283.34c7.74.69,15.43-.9,23.17-.2,6.69.6,6.65-9.85,0-10.44-7.74-.7-15.43.89-23.17.2-6.69-.6-6.65,9.84,0,10.44Z" transform="translate(0.86 0.38)"/><path class="cls-1" d="M250.16,314.51l16.28-33.2c2.94-6-6.06-11.31-9-5.27l-16.28,33.2c-2.94,6,6.06,11.31,9,5.27Z" transform="translate(0.86 0.38)"/><path class="cls-1" d="M257.7,279.37l14.64,32.38c2.76,6.11,11.76.81,9-5.27L266.71,274.1c-2.76-6.11-11.76-.81-9,5.27Z" transform="translate(0.86 0.38)"/><path class="cls-1" d="M252.79,310.6l18.67-1.28c6.67-.45,6.72-10.9,0-10.44l-18.67,1.27c-6.67.46-6.72,10.91,0,10.45Z" transform="translate(0.86 0.38)"/><path class="cls-1" d="M292,274.62l-2.25,34c-.45,6.71,10,6.68,10.44,0l2.25-34c.45-6.7-10-6.68-10.44,0Z" transform="translate(0.86 0.38)"/><path class="cls-1" d="M293.81,311.88a163.37,163.37,0,0,0,28.56-1.47c5.89-.79,3.38-9.73-2.46-8.94a149.84,149.84,0,0,1-26.1,1.13c-6-.23-6,9,0,9.28Z" transform="translate(0.86 0.38)"/><path class="cls-1" d="M120.89,328.22c-1.76,8.12-.76,16.81-1.54,25.06-.28,3,4.82,3.06,4.69,0-.36-8.28,1.06-16.87-.27-25.06-.24-1.46-2.58-1.38-2.88,0Z" transform="translate(0.86 0.38)"/><path class="cls-1" d="M120.17,354.3c2.52.93,5.34.67,8,.71,3,0,6,.17,9,.07a1.8,1.8,0,0,0,0-3.59c-3-.13-6,0-9,0-2.66,0-5.45-.26-8,.65a1.13,1.13,0,0,0,0,2.16Z" transform="translate(0.86 0.38)"/><path class="cls-1" d="M123.15,340.63c1.55,0,3.12-.13,4.66-.23a18.34,18.34,0,0,0,4.51-.49c1.63-.51,2-3.35,0-3.65a19.63,19.63,0,0,0-4.84.14c-1.61.14-3.24.24-4.84.51-2.16.37-1.56,3.68.51,3.72Z" transform="translate(0.86 0.38)"/><path class="cls-1" d="M120.73,329.14c5.22,1.09,11.7.54,17-.21,2.46-.36,1.72-4.08-.56-4.17-5.11-.21-11.5-.05-16.39,1.51-1.31.42-1.52,2.55,0,2.87Z" transform="translate(0.86 0.38)"/><path class="cls-1" d="M149.18,352.33c1.1-3.14,1.09-6.62,1.32-9.92.26-3.67.86-7.47.5-11.13-.2-2-3.3-2.81-3.8-.52-.79,3.54-.69,7.25-.87,10.86s-.64,7.2.14,10.71c.32,1.44,2.28,1.22,2.71,0Z" transform="translate(0.86 0.38)"/><path class="cls-1" d="M147.33,329.3c2.53,3.78,6.18,6.72,8.78,10.52s4.27,8.1,6.17,12.38c.88,2,3.83.53,3.39-1.43-1.84-8.11-8.63-19.82-16.58-23.23-1.05-.45-2.55.57-1.76,1.76Z" transform="translate(0.86 0.38)"/><path class="cls-1" d="M164.46,353.78c1.83-3.26,1.94-7.31,2.49-11,.58-3.84,1.05-7.69,1.56-11.54.36-2.77-4-2.78-4.37,0-.47,3.94-1,7.88-1.36,11.84-.34,3.44-1.13,7-.22,10.42a1.05,1.05,0,0,0,1.9.25Z" transform="translate(0.86 0.38)"/><path class="cls-1" d="M187.1,327.54c-7.62.71-16.88,4.09-18.09,12.79-.95,6.83,5.16,12.15,11.58,12.66s13.89-4.28,12.41-11.47c-1.26-6.15-10.63-8.58-12.85-1.83-.82,2.49,2.35,3.79,4.06,2.36,2.35-2,4.36.53,2.87,3a5.87,5.87,0,0,1-3.58,2.24,7.87,7.87,0,0,1-7.66-2.51c-5.55-7.12,7.61-11.07,11.88-12.6,2.31-.83,2.19-4.87-.62-4.61Z" transform="translate(0.86 0.38)"/><path class="cls-1" d="M201.62,328.21c-1.84,6.54-2.58,14.3-3,21.07-.13,2,3.18,2.5,3.57.48,1.28-6.72,2.52-14.32,2.38-21.15a1.49,1.49,0,0,0-2.92-.4Z" transform="translate(0.86 0.38)"/><path class="cls-1" d="M214.1,348.9c3.3-6,4.62-13.62,6.6-20.2h-4.94c3,8.41,8.23,15.77,11.29,24.13.87,2.37,4.45,2.72,5.18,0,2.27-8.56,6.77-17.13,6-26.2a2.53,2.53,0,0,0-5.06,0c-.5,8.82-3.83,16.36-6.09,24.77h5.18c-3-8.4-8.4-15.7-11.53-24.06-.85-2.27-4.22-2.59-4.94,0C213.92,334,211,341.07,210.6,348c-.12,1.87,2.63,2.54,3.5.95Z" transform="translate(0.86 0.38)"/><path class="cls-1" d="M247.43,327.49c-3.07,8.07-4,17.09-3.9,25.66a2.27,2.27,0,0,0,2.82,2.16l18.65-3c2.84-.46,1.63-4.79-1.2-4.33l-18.63,3,2.82,2.15c-.08-8.48,1.45-16.37,3.34-24.59a2,2,0,0,0-3.9-1.07Z" transform="translate(0.86 0.38)"/><path class="cls-1" d="M248.46,338.05a43.88,43.88,0,0,0,11.83-1,1.83,1.83,0,0,0-.48-3.57c-3.75-.22-8.12.65-11.77,1.48-1.76.4-1.32,3,.42,3.08Z" transform="translate(0.86 0.38)"/><path class="cls-1" d="M248.75,328.34a122.36,122.36,0,0,0,21.05,1,1.92,1.92,0,0,0,0-3.83c-6.81-.58-14.28-.92-21.05.1a1.44,1.44,0,0,0,0,2.75Z" transform="translate(0.86 0.38)"/><path class="cls-1" d="M149.07,93.54c-6.15,26.18-11.2,66.06,16.24,82.6,11.74,7.07,26.79,6.54,39.16,1.47,13.08-5.35,22.31-15.58,27.6-28.57,6.34-15.56,4.94-33.11,11.49-48.54,1.66-3.89,1.17-8.4-2.81-10.72-3.29-1.93-9.06-1.11-10.72,2.81-6.39,15-6.28,31.18-11,46.6-4.15,13.47-13.64,23.51-27.79,26.09-12.95,2.37-23.86-3.93-28.2-16.32-5.8-16.58-2.72-34.63,1.18-51.25,2.31-9.81-12.81-14-15.11-4.17Z" transform="translate(0.86 0.38)"/><path class="cls-1" d="M185.42,71.62c.47.84-.41,2.4-2.36,4.48-.48.52-1,1.07-1.65,1.65s-1.27,1.24-2,1.9C178,81,176.3,82.4,174.49,84c-.91.8-1.88,1.62-2.89,2.46l-3.08,2.71c-2.17,1.81-4.38,3.87-6.79,5.93s-4.84,4.31-7.32,6.69-5.07,4.82-7.7,7.33c-1.29,1.29-2.57,2.55-3.83,3.8l-3.66,3.76c-1.22,1.21-2.37,2.45-3.5,3.65s-2.3,2.35-3.35,3.54l-3.15,3.4c-1,1.1-2,2.21-3,3.25l-5.35,5.84c-1.69,1.76-3.13,3.42-4.53,4.81s-2.61,2.59-3.67,3.53c-2.15,1.87-3.74,2.69-4.57,2.19s-.81-2.26,0-5.08a34.36,34.36,0,0,1,1.77-4.94c.81-1.85,1.74-4,3-6.2s2.57-4.68,4.21-7.17c.82-1.26,1.63-2.58,2.56-3.88l2.87-4c1-1.37,2.09-2.69,3.19-4.07s2.24-2.78,3.47-4.14,2.45-2.78,3.75-4.15l4-4.12c2.81-2.69,5.59-5.29,8.43-7.62s5.65-4.49,8.35-6.5,5.41-3.74,8-5.24c1.29-.77,2.53-1.51,3.75-2.19s2.42-1.26,3.56-1.83a64.07,64.07,0,0,1,6.3-2.8c.95-.37,1.83-.7,2.67-1s1.62-.47,2.33-.63C183.19,70.73,185,70.77,185.42,71.62Z" transform="translate(0.86 0.38)"/><path class="cls-1" d="M191.63,189.28c.12.87-.7,1.79-2.42,2.72a10.46,10.46,0,0,1-1.46.67c-.54.18-1.14.36-1.79.53s-1.35.35-2.1.49-1.54.18-2.38.25a32.88,32.88,0,0,1-5.52,0c-1-.08-2-.27-3.05-.43l-1.6-.28-1.6-.41c-1.07-.31-2.2-.56-3.28-1s-2.21-.84-3.33-1.3a51.67,51.67,0,0,1-6.56-3.54c-.53-.34-1.08-.67-1.59-1l-1.5-1.11c-1-.75-2-1.45-2.83-2.26s-1.75-1.57-2.58-2.35-1.54-1.62-2.27-2.42l-1.07-1.18-1-1.22c-.62-.81-1.22-1.59-1.78-2.36-1.07-1.57-2-3.1-2.77-4.5s-1.32-2.78-1.79-4a17.22,17.22,0,0,1-.89-3.24c-.32-1.86-.12-3.09.63-3.56s2-.14,3.52.8c.78.46,1.58,1.12,2.56,1.83s2,1.57,3.07,2.53,2.32,1.94,3.58,3c.65.52,1.31,1.06,2,1.63l1,.87,1.08.83,2.19,1.76c.77.56,1.54,1.13,2.32,1.73s1.62,1.12,2.44,1.71l1.24.87c.42.28.86.54,1.29.81,1.71,1.14,3.46,2.07,5.12,3,.85.42,1.69.84,2.51,1.27s1.65.74,2.44,1.13l1.19.55,1.18.45c.78.29,1.52.65,2.27.9,1.49.47,2.88,1.07,4.2,1.41.66.2,1.29.41,1.9.62s1.18.32,1.73.49,1.06.35,1.54.53.93.3,1.34.46C190.47,187.65,191.5,188.4,191.63,189.28Z" transform="translate(0.86 0.38)"/><path class="cls-1" d="M253.14,139.62c.88.47,1.21,1.8,1,3.86a17.33,17.33,0,0,1-.69,3.6,41.18,41.18,0,0,1-1.6,4.47,54.77,54.77,0,0,1-2.59,5.11,52.05,52.05,0,0,1-3.63,5.51,61.61,61.61,0,0,1-4.68,5.65,65.49,65.49,0,0,1-5.79,5.41,39.19,39.19,0,0,1-3.2,2.48c-1.1.75-2.14,1.54-3.26,2.2s-2.21,1.31-3.29,1.92-2.22,1.09-3.29,1.6a32.28,32.28,0,0,1-3.23,1.32c-1.07.37-2.08.79-3.12,1.05A38.67,38.67,0,0,1,210,185c-.9.12-1.75.22-2.56.29s-1.6,0-2.32,0-1.39-.05-2-.11a11.39,11.39,0,0,1-1.7-.33c-2.06-.52-3.19-1.29-3.32-2.27s.73-2.1,2.29-3.24c.39-.29.83-.55,1.29-.88s1-.65,1.51-1,1.12-.66,1.73-1,1.23-.77,1.89-1.15c1.34-.72,2.74-1.66,4.25-2.54.77-.42,1.51-1,2.3-1.47s1.61-1,2.41-1.57l2.48-1.7c.83-.62,1.67-1.24,2.54-1.85s1.7-1.34,2.58-2,1.74-1.38,2.61-2.12c1.79-1.4,3.42-2.94,5.06-4.35s3.16-2.87,4.58-4.3,2.81-2.77,4.13-4,2.48-2.52,3.67-3.59,2.17-2.13,3.17-3,1.86-1.61,2.69-2.16C250.93,139.58,252.26,139.15,253.14,139.62Z" transform="translate(0.86 0.38)"/><path class="cls-1" d="M238.17,93a5.77,5.77,0,0,1-2.66.82c-.45,0-1,.09-1.48.1s-1,.05-1.5,0h-.79c-.26,0-.51,0-.8,0a7.49,7.49,0,0,1-.82,0,6.42,6.42,0,0,1-.88,0c-.28,0-.61,0-.92,0s-.62,0-1-.06c-.65-.07-1.36-.1-2.07-.2s-1.46-.16-2.19-.23-1.45-.17-2.15-.31-1.39-.23-2.06-.38-1.31-.31-1.91-.49a11.9,11.9,0,0,1-3.17-1.41,4.31,4.31,0,0,1-1.77-2.2,3.58,3.58,0,0,1,.37-2.8,8.29,8.29,0,0,1,2.69-2.85,16.56,16.56,0,0,1,2.19-1.2,17.26,17.26,0,0,1,5.82-1.43,20.26,20.26,0,0,1,3.48,0,20.6,20.6,0,0,1,3.53.69,14,14,0,0,1,1.65.58,15.66,15.66,0,0,1,1.55.72c.5.28,1,.56,1.42.85s.88.65,1.27,1a8.34,8.34,0,0,1,1.09,1,10.91,10.91,0,0,1,.89,1.09,8.69,8.69,0,0,1,1.15,2.21,5.42,5.42,0,0,1,.32,2A3.08,3.08,0,0,1,238.17,93Z" transform="translate(0.86 0.38)"/><path class="cls-1" d="M273.52,78.43c.14.59-.43,1.35-1.54,2.2-.55.41-1.24.86-2,1.38s-1.7,1-2.68,1.63-2.06,1.19-3.19,1.9-2.32,1.44-3.58,2.21c-.63.38-1.24.83-1.89,1.24l-1,.63-1,.69c-1.33.89-2.63,1.89-4,2.88s-2.64,2-3.85,3.09l-.92.75-.87.78c-.58.51-1.17,1-1.71,1.49-1.07,1-2.14,1.93-3.08,2.86s-1.86,1.77-2.69,2.57-1.57,1.52-2.27,2.14S236,108,235.4,108.46c-1.11.84-2,1.19-2.53.89s-.67-1.21-.43-2.66a12.29,12.29,0,0,1,.69-2.53A22.84,22.84,0,0,1,234.5,101a32,32,0,0,1,2.09-3.56,42,42,0,0,1,2.83-3.81c.53-.65,1.12-1.27,1.71-1.92l.91-1,1-.93a53.87,53.87,0,0,1,4.28-3.69A52.66,52.66,0,0,1,252,83l1.16-.69,1.18-.62c.79-.39,1.54-.8,2.31-1.14a43,43,0,0,1,4.43-1.71,31.34,31.34,0,0,1,4-1.06,23.53,23.53,0,0,1,3.38-.49,13.33,13.33,0,0,1,2.62,0C272.53,77.46,273.38,77.84,273.52,78.43Z" transform="translate(0.86 0.38)"/><path class="cls-1" d="M233.43,166.44c-.28,1.14-2,1.83-4.53,2-.63,0-1.33.07-2.06.06l-.56,0H226l-.05,0a.64.64,0,0,0-.16.17.36.36,0,0,0,0,.46v0a.13.13,0,0,0-.09,0h0s0,0,0,0,0,.25,0,.36c-.09.55-.18,1.09-.3,1.6a15.46,15.46,0,0,1-2.18,5.09,8.33,8.33,0,0,1-2.73,2.64,2.12,2.12,0,0,1-2.12.17c-1.06-.67-1.13-2.56-1.15-4.94,0-1.19,0-2.54,0-4,0-.35,0-.72-.05-1.09a2.27,2.27,0,0,1,0-.33c0-.22,0-.43,0-.67a12.52,12.52,0,0,0-.15-1.45,15.13,15.13,0,0,0-.23-1.54c-.13-.56-.25-1.11-.37-1.68-.26-1.15-.51-2.32-.77-3.5-.18-.9-.37-1.78-.55-2.66l2.67.72,2.66.75c1.73.51,3.37,1,4.87,1.52l2.14.74.5.18a2,2,0,0,1,.29.13l.5.24c.65.34,1.25.67,1.8,1C232.54,163.89,233.72,165.29,233.43,166.44Z" transform="translate(0.86 0.38)"/><path class="cls-1" d="M148.2,169.53a2.1,2.1,0,0,1,1.08-1.83,5.63,5.63,0,0,1,1.49-.81,9.86,9.86,0,0,1,2.06-.59,12.91,12.91,0,0,1,2.58-.25,18,18,0,0,1,3,.19c.52.07,1,.19,1.58.31a12.47,12.47,0,0,1,1.61.44,20.62,20.62,0,0,1,6.27,3.18,15,15,0,0,1,1.31,1.05c.4.37.81.71,1.17,1.09a18.36,18.36,0,0,1,1.9,2.28,13.45,13.45,0,0,1,1.31,2.23,9.7,9.7,0,0,1,.75,2,5.84,5.84,0,0,1,.22,1.68,2.15,2.15,0,0,1-.84,1.95,2.52,2.52,0,0,1-2.11-.06c-.41-.15-.85-.37-1.34-.61s-1-.56-1.53-.87l-3.6-2.2c-.33-.2-.68-.38-1-.58a10,10,0,0,0-1.06-.6c-.71-.42-1.48-.79-2.24-1.21s-1.54-.77-2.29-1.1c-.37-.19-.74-.35-1.11-.5s-.72-.34-1.08-.48l-3.9-1.61c-.57-.28-1.11-.48-1.6-.73s-.92-.49-1.29-.72A2.54,2.54,0,0,1,148.2,169.53Z" transform="translate(0.86 0.38)"/><path class="cls-1" d="M236.37,161.83a1.6,1.6,0,0,1-.92.44,7.51,7.51,0,0,1-1.37,0l-.84-.06c-.3,0-.62,0-.93,0-.65,0-1.36,0-2.12,0-.38,0-.79.08-1.18.1s-.83.11-1.25.19a19.07,19.07,0,0,0-2.66.7,18,18,0,0,0-2.7,1.22,16.34,16.34,0,0,0-2.48,1.75,21.35,21.35,0,0,0-4,5c-.55.88-1,1.8-1.42,2.67s-.8,1.74-1.13,2.55-.65,1.57-.93,2.23-.57,1.28-.84,1.78a5.55,5.55,0,0,1-.83,1.19,1.45,1.45,0,0,1-.9.46,1.27,1.27,0,0,1-.91-.4,3.9,3.9,0,0,1-.86-1.28,9.28,9.28,0,0,1-.68-2.12,16,16,0,0,1-.33-2.89,21.68,21.68,0,0,1,.23-3.57,21.42,21.42,0,0,1,1.06-4.06,21,21,0,0,1,2.13-4.27,20.65,20.65,0,0,1,3.44-4,18.73,18.73,0,0,1,4.59-2.95,18.36,18.36,0,0,1,4.78-1.4,17.79,17.79,0,0,1,4.48-.07c.7.09,1.37.23,2,.37a16.13,16.13,0,0,1,1.78.6,11.56,11.56,0,0,1,2.78,1.61c.36.31.69.6,1,.89a11.11,11.11,0,0,1,.68.88,3.52,3.52,0,0,1,.6,1.49A1.16,1.16,0,0,1,236.37,161.83Z" transform="translate(0.86 0.38)"/><ellipse class="cls-1" cx="215.81" cy="172.95" rx="6" ry="4.5" transform="translate(41.76 387.55) rotate(-89.48)"/><ellipse class="cls-1" cx="215.37" cy="174.58" rx="6.01" ry="4.5" transform="translate(-19.5 320.89) rotate(-70.79)"/><ellipse class="cls-1" cx="231.14" cy="159.62" rx="7.13" ry="4.5" transform="translate(-24.92 46.45) rotate(-10.78)"/><path class="cls-1" d="M157.82,92.17c-3.08,22.9-10.66,74.53,25.8,73.89,30.64-.55,44.91-40.58,48.77-65.5,1.51-9.81-11.84-13.93-15.12-4.17-4.79,14.26-3.42,29.55-7.43,44-2.5,9-11.64,23.51-23.22,18.15-3.84-1.78-8.45-1.08-10.72,2.81-2,3.39-1.05,8.94,2.81,10.73,16.25,7.52,34.13-1.32,42-16.63,8.84-17.18,5.65-36.92,11.67-54.84l-15.12-4.17a107.27,107.27,0,0,1-10.8,33.67c-4.36,8.3-10.6,18.57-20.75,20.16-10,1.57-13.66-6.38-14.27-15a192.86,192.86,0,0,1,1.49-38.87c.56-4.19-1-8.41-5.48-9.64-3.65-1-9.07,1.25-9.64,5.47Z" transform="translate(0.86 0.38)"/></svg>